<svg xmlns="http://www.w3.org/2000/svg" xmlns:xlink="http://www.w3.org/1999/xlink" width="225.432" height="50.893" viewBox="0 0 225.432 50.893">
  <defs>
    <clipPath id="clip-path">
      <rect id="長方形_534" data-name="長方形 534" width="225.432" height="50.893" fill="none"/>
    </clipPath>
  </defs>
  <g id="グループ_42" data-name="グループ 42" transform="translate(0 0)">
    <g id="グループ_41" data-name="グループ 41" transform="translate(0 0)" clip-path="url(#clip-path)">
      <path id="パス_37" data-name="パス 37" d="M128.364,58.459,123.73,35.327h3.376l2.858,16.8q.347,2.021.5,3.787.913-1.894,2.006-3.787l9.632-16.8h3.183L131.563,58.459Z" transform="translate(-29.001 -8.281)" fill="#fff"/>
      <path id="パス_38" data-name="パス 38" d="M167.223,50.227l2.968.773a13.412,13.412,0,0,1-4.646,5.751,11.545,11.545,0,0,1-6.614,1.98,9.888,9.888,0,0,1-5.9-1.522,7.309,7.309,0,0,1-2.775-4.411,14.589,14.589,0,0,1-.041-6.2,15.85,15.85,0,0,1,2.632-6.3,12.658,12.658,0,0,1,4.8-4.087,13.509,13.509,0,0,1,5.986-1.4,8.346,8.346,0,0,1,5.6,1.767,7.206,7.206,0,0,1,2.393,4.971l-3.208.71a5.624,5.624,0,0,0-1.665-3.676,5.48,5.48,0,0,0-3.7-1.152,8.831,8.831,0,0,0-8.021,4.71,15.661,15.661,0,0,0-1.6,4.442,13.3,13.3,0,0,0-.126,5.152,4.936,4.936,0,0,0,2.086,3.29,6.686,6.686,0,0,0,3.791,1.089,8.007,8.007,0,0,0,4.725-1.483,9.791,9.791,0,0,0,3.315-4.4" transform="translate(-35.136 -8.16)" fill="#fff"/>
      <path id="パス_39" data-name="パス 39" d="M194.648,58.459l3.966-20.4H190.85l.531-2.73h18.679l-.531,2.73h-7.8l-3.966,20.4Z" transform="translate(-44.733 -8.28)" fill="#fff"/>
      <path id="パス_40" data-name="パス 40" d="M211.007,60.295l3.257-16.758h2.6l-.494,2.541a9.258,9.258,0,0,1,2.3-2.351,3.794,3.794,0,0,1,1.967-.568,4.87,4.87,0,0,1,2.8.915l-1.509,2.635a3.594,3.594,0,0,0-2-.616,3.283,3.283,0,0,0-1.813.56,3.99,3.99,0,0,0-1.379,1.554,12.41,12.41,0,0,0-1.126,3.314L213.9,60.295Z" transform="translate(-49.458 -10.116)" fill="#fff"/>
      <path id="パス_41" data-name="パス 41" d="M237.616,58.228a13.879,13.879,0,0,1-3.463,1.893,10,10,0,0,1-3.3.553,5.313,5.313,0,0,1-4.062-1.35,3.737,3.737,0,0,1-.841-3.448,5.4,5.4,0,0,1,1.008-2.249,6.209,6.209,0,0,1,1.812-1.633,8.751,8.751,0,0,1,2.262-.931,23.093,23.093,0,0,1,2.655-.426,29.957,29.957,0,0,0,5.35-.978c.087-.389.139-.636.16-.742a2.718,2.718,0,0,0-.344-2.445,4.182,4.182,0,0,0-3.108-.963,5.9,5.9,0,0,0-3.151.7,5.557,5.557,0,0,0-1.921,2.485l-2.756-.379a8.68,8.68,0,0,1,1.83-2.879,7.2,7.2,0,0,1,2.884-1.688,12.629,12.629,0,0,1,3.99-.592,9.589,9.589,0,0,1,3.454.5,3.6,3.6,0,0,1,1.762,1.27,3.681,3.681,0,0,1,.524,1.933A15.965,15.965,0,0,1,242,49.486l-.737,3.787a40.833,40.833,0,0,0-.789,5.009,5.411,5.411,0,0,0,.341,2.012h-3.022a5.337,5.337,0,0,1-.177-2.067m.991-6.343a24.4,24.4,0,0,1-4.934,1.073,12.631,12.631,0,0,0-2.634.568,3.305,3.305,0,0,0-1.321.923,2.894,2.894,0,0,0-.664,1.349,2.021,2.021,0,0,0,.508,1.894,3.251,3.251,0,0,0,2.417.757,6.891,6.891,0,0,0,3.114-.718,5.918,5.918,0,0,0,2.295-1.965,7.8,7.8,0,0,0,1.018-2.84Z" transform="translate(-52.937 -10.116)" fill="#fff"/>
      <path id="パス_42" data-name="パス 42" d="M260.721,58.458l.41-2.114a6.61,6.61,0,0,1-5.258,2.493,5.794,5.794,0,0,1-3.539-1.1,5.559,5.559,0,0,1-2.053-3.085,9.848,9.848,0,0,1-.055-4.552,13.621,13.621,0,0,1,1.736-4.552,8.783,8.783,0,0,1,3.165-3.132,8.018,8.018,0,0,1,4.022-1.089,5.071,5.071,0,0,1,2.625.639,4.3,4.3,0,0,1,1.637,1.664l1.614-8.3H267.9l-4.5,23.132ZM253.2,50.1q-.627,3.219.447,4.813A3.373,3.373,0,0,0,256.6,56.5a5.058,5.058,0,0,0,3.52-1.523,8.391,8.391,0,0,0,2.229-4.647q.668-3.44-.369-5.049a3.369,3.369,0,0,0-3.014-1.609,4.96,4.96,0,0,0-3.524,1.547A9.046,9.046,0,0,0,253.2,50.1" transform="translate(-58.595 -8.28)" fill="#fff"/>
      <path id="パス_43" data-name="パス 43" d="M285.536,54.9l2.919.362a9.381,9.381,0,0,1-3.4,3.993,9.278,9.278,0,0,1-5.162,1.42q-3.746,0-5.5-2.265t-.96-6.351a11.245,11.245,0,0,1,3.494-6.564,9.149,9.149,0,0,1,6.209-2.335,6.041,6.041,0,0,1,5.149,2.288q1.726,2.289.92,6.438-.049.253-.164.757H276.314a5.5,5.5,0,0,0,.769,4.229,3.918,3.918,0,0,0,3.284,1.467,5.238,5.238,0,0,0,2.876-.82,7.189,7.189,0,0,0,2.293-2.619m-8.608-4.592h9.533a4.894,4.894,0,0,0-.477-3.172,3.622,3.622,0,0,0-3.266-1.641,5.577,5.577,0,0,0-3.605,1.309,6.469,6.469,0,0,0-2.184,3.5" transform="translate(-64.033 -10.116)" fill="#fff"/>
      <path id="パス_44" data-name="パス 44" d="M22.632,46.5c-.635,3.477,1.144,4.592,4.232,4.592,2.189,0,4.643-.831,5.137-3.02.592-2.6-3.281-3.1-7.034-4.3-3.711-1.2-7.462-3.1-6.233-8.524,1.465-6.45,8.169-8.978,13.4-8.978,5.547,0,10.488,2.859,9.017,9.525H33.89c.727-2.691-1.459-3.563-3.685-3.563-1.566,0-3.649.576-4.089,2.523-.517,2.275,3.415,2.69,7.2,3.892,3.755,1.2,7.365,3.183,6.157,8.521-1.7,7.485-8.259,9.884-14.39,9.884-6.409,0-11.4-2.977-9.723-10.549Z" transform="translate(-3.524 -6.157)" fill="#fff"/>
      <path id="パス_45" data-name="パス 45" d="M88.57,27.083h7.265L89.14,56.619H81.87Z" transform="translate(-19.19 -6.348)" fill="#fff"/>
      <path id="パス_46" data-name="パス 46" d="M53.984,27.082H67.028c4.827-.08,9.8,1.241,8.4,7.4a8.96,8.96,0,0,1-5.022,5.956c2.765.91,3.98,3.647,3.221,6.993-1.594,7.036-6.963,9.182-12.941,9.182h-13.4Zm4.632,11.627h5.623a3.628,3.628,0,0,0,3.6-2.813c.492-2.151-.8-2.857-2.318-2.857H59.9ZM55.951,50.453h5.823c2.305,0,4.1-.87,4.656-3.3.591-2.609-.931-3.474-3.122-3.474H57.489Z" transform="translate(-11.085 -6.347)" fill="#fff"/>
      <path id="パス_47" data-name="パス 47" d="M86.794,8.87C82.778-1.8,59.794-3.014,35.469,6.146,18.121,12.685,4.775,22.737,0,31.837c6.6-6.9,17.264-13.672,30.127-18.519,24.329-9.17,47.31-7.948,51.327,2.721,1.157,3.06.619,6.566-1.3,10.229,5.879-6.142,8.537-12.372,6.642-17.4" transform="translate(0 0)" fill="#fff"/>
    </g>
  </g>
</svg>
