<svg xmlns="http://www.w3.org/2000/svg" xmlns:xlink="http://www.w3.org/1999/xlink" width="1095" height="1057" viewBox="0 0 1095 1057">
  <defs>
    <linearGradient id="linear-gradient" x1="0.281" y1="-0.138" x2="0.761" y2="1" gradientUnits="objectBoundingBox">
      <stop offset="0" stop-color="#eda3ff"/>
      <stop offset="1" stop-color="#a09eff"/>
    </linearGradient>
    <clipPath id="clip-path">
      <rect id="長方形_1095" data-name="長方形 1095" width="173.905" height="349.355" transform="translate(0 0)" fill="none"/>
    </clipPath>
    <linearGradient id="linear-gradient-2" x1="0.703" y1="0.387" x2="0.094" y2="1" gradientUnits="objectBoundingBox">
      <stop offset="0" stop-color="#a09eff"/>
      <stop offset="1" stop-color="#eda3ff"/>
    </linearGradient>
  </defs>
  <g id="グループ_193" data-name="グループ 193" transform="translate(-143 -3077)">
    <rect id="長方形_1097" data-name="長方形 1097" width="1080" height="1042" rx="46" transform="translate(158 3092)" fill="#2d3138"/>
    <g id="長方形_1087" data-name="長方形 1087" transform="translate(143 3077)" fill="#fff" stroke="#2d3138" stroke-width="2">
      <rect width="1080" height="1042" rx="46" stroke="none"/>
      <rect x="1" y="1" width="1078" height="1040" rx="45" fill="none"/>
    </g>
    <text id="NFTの受取イメージ" transform="translate(683 3197)" fill="#2d3138" font-size="37" font-family="NotoSansJP-Black, Noto Sans JP" font-weight="800"><tspan x="-166.278" y="0">NFT</tspan><tspan y="0">の</tspan><tspan y="0">受取</tspan><tspan y="0">イメージ</tspan></text>
    <path id="パス_349" data-name="パス 349" d="M-425.36-21.476h-4.862a13.832,13.832,0,0,1,.234,2.652v1.742h-5.434a24.056,24.056,0,0,1-2.782-.13,18.545,18.545,0,0,1,.13,2.366v4.472c0,.806-.052,1.716-.13,2.47h4.342a18.59,18.59,0,0,1-.1-2.132v-3.328h11.986a13.988,13.988,0,0,1-2.21,6.188A12.533,12.533,0,0,1-429.442-3.2,22.688,22.688,0,0,1-433.68-2l3.276,3.8a16.7,16.7,0,0,0,10.79-8.06,24.19,24.19,0,0,0,2.366-7.124,21.628,21.628,0,0,1,.572-2.34l-2.73-1.664a7.045,7.045,0,0,1-2.366.312h-3.8v-1.742A19.2,19.2,0,0,1-425.36-21.476Zm28.5,5.148h-4.03a20.078,20.078,0,0,1,.234,2.392c.026.416.026.832.052,1.274h-6.656a20.4,20.4,0,0,1-2.6-.182V-9c.806-.052,1.924-.1,2.7-.1h4.732a25.9,25.9,0,0,1-8.788,6.448l2.73,3.146a29.6,29.6,0,0,0,8.06-6.4c.026,1.508.026,2.886.026,3.952,0,.572-.182.832-.676.832a27.231,27.231,0,0,1-2.86-.208l.234,3.562c1.248.078,2.808.13,4.186.13a2.583,2.583,0,0,0,2.86-2.574c-.026-2.756-.13-5.928-.208-8.892h2.756c.6,0,1.456.026,2.158.052v-3.8a18.647,18.647,0,0,1-2.34.182h-2.678c0-.442-.026-.858-.026-1.274A17.709,17.709,0,0,1-396.864-16.328ZM-384.02-1.144l2.99,2.6a6.76,6.76,0,0,1,1.794-.832c5.928-2.08,11.362-5.122,15.028-9.412l-2.236-3.588a30.647,30.647,0,0,1-12.87,8.45V-16.744a20.417,20.417,0,0,1,.286-3.276h-4.94a17.161,17.161,0,0,1,.338,3.276V-3.068A3.922,3.922,0,0,1-384.02-1.144Zm34.762-14.56L-353-14.482a48.938,48.938,0,0,1,2.158,5.824l3.77-1.3C-347.464-11.18-348.738-14.56-349.258-15.7Zm9.7,2.132L-344.006-15a17.333,17.333,0,0,1-3.172,8.918,17.543,17.543,0,0,1-8.71,5.408l3.3,3.38a20.6,20.6,0,0,0,8.814-6.63,21.321,21.321,0,0,0,3.484-7.384C-340.106-11.934-339.924-12.558-339.56-13.572Zm-15.73-.728-3.8,1.352a47.33,47.33,0,0,1,2.392,6.058l3.848-1.43C-353.366-9.828-354.562-12.844-355.29-14.3Zm26.416,11.7a29.187,29.187,0,0,1-.312,3.926h4.94c-.13-1.17-.286-3.224-.286-3.926V-9.282a81.086,81.086,0,0,1,8.944,3.718l1.794-4.394a85.961,85.961,0,0,0-10.738-3.926v-3.562a30.91,30.91,0,0,1,.26-3.38h-4.914a18.165,18.165,0,0,1,.312,3.38Zm38.532.026h-14.69V-16.016H-308.7V2.47h3.666V.988h14.69V2.47h3.666V-16.016h-3.666Zm-4.394-8.476h-1.43v-1.508h1.43Zm0,4.368h-1.43V-8.216h1.43Zm-6.058-1.534h1.4v1.534h-1.4Zm0-4.342h1.4v1.508h-1.4Zm-8.71-8.19v3.51h9.8V-15.6h-4.16V-3.64h12.35V-15.6h-4.368v-1.638h10.036v-3.51Zm44.746,18.46h-2.184v-9.75h2.184Zm-14.118-9.75h2.054v9.75h-2.054Zm8.554,1.222h-3.146v-1.222h3.146Zm-3.146,7.2h3.146v1.326h-3.146Zm3.146-2.912h-3.146V-7.9h3.146Zm10.556-10.79v-3.562H-283.53v3.562h9.256c-.078.6-.182,1.222-.26,1.82h-7.982V2.47h3.64V1.17h14.118v1.3h3.848V-15.5h-9.62l.572-1.82Zm2.73-.91.39,4.29a99.881,99.881,0,0,1,9.932-1.456,10.611,10.611,0,0,0-3.3,7.592c0,5.538,4.966,8.684,10.764,9.126l1.482-4.368c-4.5-.26-8.086-1.768-8.086-5.59a7.218,7.218,0,0,1,5.226-6.76,32.791,32.791,0,0,1,4.992-.312l-.026-4.056c-1.9.078-4.966.26-7.566.468-4.758.416-8.684.728-11.128.936C-254.852-18.3-256-18.252-257.036-18.226Zm17.706,4.706-2.262.936a20.887,20.887,0,0,1,1.976,3.562l2.314-1.014A34.457,34.457,0,0,0-239.33-13.52Zm2.938-1.248-2.236,1.014a21.775,21.775,0,0,1,2.106,3.458l2.288-1.092C-234.754-12.324-235.716-13.832-236.392-14.768ZM-213.8-9.776h-8.06l-.208-1.326-2.054.546v-3.38h1.4V-11.7h8.918Zm6.422-1.924v-3.484h-5.668V-16.8h4.55V-20.2h-4.55v-2.054h-3.744V-20.2h-4.368V-16.8h4.368v1.612h-5.46v-2.34h-1.872V-22.23h-3.458v4.706h-.728c.13-.962.234-1.924.312-2.86l-3.12-.52a32.339,32.339,0,0,1-1.326,8.268,21.8,21.8,0,0,1,2.626,1.716,21.156,21.156,0,0,0,.884-3.016h1.352V-9.62c-1.716.442-3.276.832-4.55,1.092l.884,3.614c1.118-.312,2.366-.676,3.666-1.066V2.47h3.458V-6.994l2.028-.624v1.3h2.7l-2.028,1.274a22.938,22.938,0,0,1,2.834,4l2.964-1.95a21.8,21.8,0,0,0-2.574-3.328h4.394V-1.69c0,.338-.13.416-.546.416s-1.846,0-2.964-.052a14.06,14.06,0,0,1,1.118,3.744,10.911,10.911,0,0,0,4.654-.65c1.17-.572,1.482-1.586,1.482-3.38V-6.318h2.366V-9.776h-2.366V-11.7Zm7.566,1.95h1.664v2.7h-1.664Zm1.664-6.084v2.626h-1.664v-2.626Zm5.278,0v2.626h-1.768v-2.626Zm5.3,0v2.626h-1.716v-2.626Zm-5.3,8.788h-1.768v-2.7h1.768Zm3.588-2.7h1.716v2.7h-1.716Zm7.878,2.7h-2.34V-19.318h-5.538v-3.016h-3.588v3.016h-1.768v-3.016h-3.51v3.016h-5.3V-7.046H-206v3.562h6.63A27.782,27.782,0,0,1-206.1-.312a30.606,30.606,0,0,1,2.99,2.73,33.074,33.074,0,0,0,8.138-4.264l-2.392-1.638h6.942l-1.9,1.742a51.2,51.2,0,0,1,6.89,4.108L-181.9-.156a65.832,65.832,0,0,0-6.188-3.328h6.682Zm25.09-2.132c0-5.9-4.186-10.478-10.816-10.478-6.942,0-12.272,5.252-12.272,11.44,0,4.446,2.444,7.93,5.668,7.93,3.068,0,5.408-3.484,6.942-8.684a51.744,51.744,0,0,0,1.534-6.786c2.99.7,4.628,3.094,4.628,6.448,0,3.432-2.21,5.746-5.512,6.552a19.784,19.784,0,0,1-2.548.468l2.392,3.744C-159.536.312-156.312-3.692-156.312-9.178Zm-19.006.546a7.752,7.752,0,0,1,5.772-7.02,38.6,38.6,0,0,1-1.326,5.85c-.936,3.016-1.716,4.6-2.756,4.6C-174.538-5.2-175.318-6.37-175.318-8.632Zm43.03-10.582-4.706-1.638a20.9,20.9,0,0,1-.676,2.652,27.983,27.983,0,0,1-2.548,5.668c-2.132-1.534-4.68-3.25-6.682-4.472l-2.7,3.224A71.33,71.33,0,0,1-142.766-9a27.6,27.6,0,0,1-9.62,7.384l3.536,3.2a32.6,32.6,0,0,0,9.386-7.826A54.067,54.067,0,0,1-133.9-.624l3.25-3.64a66.341,66.341,0,0,0-6.136-5.642,41.416,41.416,0,0,0,3.276-6.708A23.4,23.4,0,0,1-132.288-19.214Zm10.062-.962-2.99,3.2a54.191,54.191,0,0,1,6.526,5.694l3.224-3.3A52.46,52.46,0,0,0-122.226-20.176Zm-3.848,17.264,2.678,4.16a27.745,27.745,0,0,0,9.308-3.432,28.116,28.116,0,0,0,10.114-9.854l-2.444-4.446a25.124,25.124,0,0,1-9.932,10.4A26.756,26.756,0,0,1-126.074-2.912Zm43.862-18.1-2.444.988a35.225,35.225,0,0,1,2,3.614l2.47-1.04C-80.652-18.356-81.562-20.046-82.212-21.008Zm3.2-1.248-2.444.988A29,29,0,0,1-79.4-17.68l2.444-1.04A37.11,37.11,0,0,0-79.014-22.256ZM-98.072-8.242a31.7,31.7,0,0,1-4.082,7.306L-97.708.936a35.7,35.7,0,0,0,3.822-7.592A62.624,62.624,0,0,0-91.754-14.3c.1-.6.468-2.158.7-2.99l-4.6-.962A37.614,37.614,0,0,1-98.072-8.242Zm12.844-.286A81.318,81.318,0,0,1-82.654.78l4.706-1.534c-.728-2.7-2.106-6.942-2.964-9.178-.91-2.366-2.756-6.6-3.874-8.684L-89-17.264A72.069,72.069,0,0,1-85.228-8.528Zm10.764-3.952v4.966c1.066-.078,3.016-.156,4.5-.156H-56.16c1.066,0,2.522.13,3.2.156V-12.48c-.754.052-2.028.182-3.2.182H-69.966C-71.24-12.3-73.424-12.4-74.464-12.48Zm48.62,6.136H-30.55c.1-.962.182-2.028.286-3.224.078-.494.13-1.534.13-1.534H-40.846l.338-1.69H-31.1v-3.224h-8.84l.26-1.612-.286-.026h9.906v3.2H-26.1v-6.682H-49.192v6.682h3.77v-3.2H-43.5c-.494,3.406-1.3,7.566-2,10.244l3.822.286.156-.7h7.358q-.078.78-.156,1.482H-49.5v3.458h14.586a3.062,3.062,0,0,1-.754,1.612,1.847,1.847,0,0,1-1.274.338c-.754,0-2.5,0-4.16-.156A7.587,7.587,0,0,1-39.832,2.47a37.928,37.928,0,0,0,4.342-.052A4.163,4.163,0,0,0-32.5,1.092c.624-.65,1.092-1.846,1.482-3.978h5.174Zm18.616-7.41h-8.71v-.78h8.71Zm0,2.808h-8.71v-.78h8.71Zm0,2.808h-8.71v-.806h8.71Zm-6.526-8.528h-5.824v10.66h16.2v-10.66H-9.75v-.754H-.52v-3.12H-9.75v-1.716h-4v1.716h-8.788v3.12h8.788ZM-.026-2.236V-5.3h-23.3v3.068H-17A28.5,28.5,0,0,1-23.556-.052a26.707,26.707,0,0,1,2.574,2.574A30.393,30.393,0,0,0-13.13-.468l-2.444-1.768h7.15L-10.218-.494A74.2,74.2,0,0,1-2.86,2.5L.39,0C-1.118-.6-3.484-1.456-5.8-2.236Zm2-9.776L3.8-8.034C4.862-8.528,6.422-9.36,8.19-10.27c.182.416.364.858.546,1.3A79.3,79.3,0,0,1,12.194,1.9L16.536.806c-.858-2.964-3.068-8.918-4.186-11.518-.182-.416-.364-.858-.572-1.326,2.626-1.2,5.3-2.184,7.176-2.184,1.612,0,2.73.884,2.73,2.08,0,1.872-1.56,2.652-3.016,2.652a10.055,10.055,0,0,1-3.536-.884l-.1,3.952a13.315,13.315,0,0,0,4.082.728c3.926,0,6.76-2.314,6.76-6.318,0-3.12-2.574-5.8-6.812-5.8a13.272,13.272,0,0,0-3.51.546l2-1.43a45.416,45.416,0,0,0-3.744-3.354l-2.912,2a41.381,41.381,0,0,1,3.38,3.172c-1.274.442-2.6.988-3.952,1.586-.364-.754-.7-1.482-1.066-2.158-.286-.494-.858-1.69-1.092-2.21L4.082-18.07a26.431,26.431,0,0,1,1.69,2.5c.338.6.65,1.222.962,1.846-.65.286-1.274.546-1.924.806A21.683,21.683,0,0,1,1.976-12.012ZM32.994-20.28v4.056c.78-.078,2.028-.1,2.912-.1h9.8c.988,0,2.392.052,3.12.1V-20.28a29.185,29.185,0,0,1-3.068.156H35.906A24.927,24.927,0,0,1,32.994-20.28Zm18.2,7.956-2.782-1.742a6.057,6.057,0,0,1-2.184.312H33.852c-.884,0-2.106-.078-3.3-.182V-9.88c1.17-.1,2.652-.13,3.3-.13h11.83a10.208,10.208,0,0,1-2.418,3.77A17.823,17.823,0,0,1,34.32-1.794l3.146,3.562a19.911,19.911,0,0,0,9.282-5.746,20.056,20.056,0,0,0,3.874-7.1A10.1,10.1,0,0,1,51.194-12.324Zm3.38,1.82,1.95,3.978a51.627,51.627,0,0,0,8.788-3.51v7.618a35.1,35.1,0,0,1-.208,3.77H70.1a19.416,19.416,0,0,1-.26-3.77V-12.662a50.038,50.038,0,0,0,6.942-5.564l-3.406-3.25a34.967,34.967,0,0,1-7.436,6.4A41.208,41.208,0,0,1,54.574-10.5Zm44.512-11.57-2.548,1.04c.442.7.858,1.43,1.248,2.158a12.71,12.71,0,0,1-1.326.052H84.994c-.858,0-2.574-.13-3.38-.234v4.446c.676-.052,2.106-.13,3.38-.13h11.44a14.606,14.606,0,0,1-2.86,6.708C91.52-5.486,88.582-3.2,83.356-2.028l3.432,3.77A21.321,21.321,0,0,0,97.37-5.564c2.236-3.016,3.3-6.968,3.926-9.412a12.918,12.918,0,0,1,.676-2.08l-1.872-1.2.936-.39A29.713,29.713,0,0,0,99.086-22.074Zm3.8-.676-2.574,1.04a28.1,28.1,0,0,1,2.054,3.51l2.574-1.092C104.468-20.176,103.558-21.762,102.882-22.75ZM125.658-2.574h-14.69V-16.016H107.3V2.47h3.666V.988h14.69V2.47h3.666V-16.016h-3.666Zm-4.394-8.476h-1.43v-1.508h1.43Zm0,4.368h-1.43V-8.216h1.43Zm-6.058-1.534h1.4v1.534h-1.4Zm0-4.342h1.4v1.508h-1.4Zm-8.71-8.19v3.51h9.8V-15.6h-4.16V-3.64h12.35V-15.6H120.12v-1.638h10.036v-3.51Zm29.926-1.482a27.93,27.93,0,0,1-4.914,9.75,29.282,29.282,0,0,1,1.768,4.16q.546-.663,1.092-1.4V2.444h3.588v-18.59a50.279,50.279,0,0,0,1.95-5.044Zm6.838,7.8h2.6V-13h-2.6Zm4.342-3.588a13.252,13.252,0,0,1-.806,1.092h-3.38c.312-.364.6-.728.884-1.092ZM152.178-13h-2.964v-1.43h2.964ZM145.158-.6c-.26,0-.546,0-.858-.026q1.248-.741,2.418-1.56a2.163,2.163,0,0,1-.416,1.04A1.188,1.188,0,0,1,145.158-.6Zm9.126-9.568a23,23,0,0,1-1.95,1.976q-.351-1.131-.624-2.34h4.082v-6.4h-5.044c.6-.78,1.144-1.612,1.612-2.366L150.176-20.9l-.676.208h-3.406c.182-.286.364-.6.52-.884l-3.51-.65a15.963,15.963,0,0,1-4.94,5.694,8.761,8.761,0,0,1,1.716,1.17v4.836h3.406a27.312,27.312,0,0,1-4.654,1.794,21.45,21.45,0,0,1,2,2.418,29.085,29.085,0,0,0,3.588-1.638,3.118,3.118,0,0,0,.312.286,24.334,24.334,0,0,1-5.772,2.6,12.354,12.354,0,0,1,1.612,2.314,33.357,33.357,0,0,0,5.564-3.016,3.234,3.234,0,0,1,.26.52A25.458,25.458,0,0,1,138.372-1.2,12.38,12.38,0,0,1,140.3,1.43a27.206,27.206,0,0,0,3.25-1.638,8.362,8.362,0,0,1,.6,2.652c.6.052,1.222.052,1.742.052A3.847,3.847,0,0,0,148.8,1.3c1.9-1.768,2.054-7.254-2.08-10.764a15.268,15.268,0,0,0,1.4-1.066h.442c1.014,5.3,2.678,9.62,6.11,12.038a12.588,12.588,0,0,1,2.392-2.938,10.083,10.083,0,0,1-3.536-3.9A28.123,28.123,0,0,0,156.78-7.9Zm16.042-10.868-4.16-.338a16.361,16.361,0,0,1-.442,2.834H164.71a34.228,34.228,0,0,1-4.68-.312v3.64c1.378.13,3.276.182,4.342.182a24.634,24.634,0,0,1-5.564,6.708L162.162-5.8a28.689,28.689,0,0,1,2.418-2.938,6.139,6.139,0,0,1,3.822-1.742,1.913,1.913,0,0,1,1.43.546c-2.886,1.508-5.98,3.666-5.98,7.072,0,3.458,3.068,4.576,7.332,4.576a63.508,63.508,0,0,0,7.514-.468l.13-4.056A39.159,39.159,0,0,1,171.262-2c-2.444,0-3.25-.442-3.25-1.534,0-1.04.7-1.9,2.34-2.86-.026.988-.078,1.95-.13,2.626h3.744c-.026-1.17-.078-2.912-.1-4.342,1.378-.6,2.652-1.092,3.64-1.482s2.626-.988,3.536-1.248l-1.534-3.64c-1.118.546-2.184,1.04-3.328,1.534-.91.416-1.768.754-2.808,1.248a3.76,3.76,0,0,0-3.458-1.82,12.663,12.663,0,0,0-2.574.26,19.655,19.655,0,0,0,1.014-1.846c2.756-.1,5.954-.338,8.372-.65l.026-3.64a60.029,60.029,0,0,1-6.994.728C170.04-19.656,170.222-20.462,170.326-21.034Zm13.884,8.84V-8.06h24.232v-4.134Zm30.524-2.158h1.352v.676h-1.352Zm1.352-5.07v.6h-1.352v-.6Zm2.808,2.5v.676h-4.16v-.676Zm3.952,3.25h-3.77v-.676h3.068v-1.56a22.818,22.818,0,0,1,2.418,1.638c.13-.156.234-.312.364-.468v2.5h8.684V-15.08h-8.45a15.318,15.318,0,0,0,1.092-1.82h7.982v-2.86h-6.76c.208-.572.39-1.17.546-1.742l-3.354-.754a15.038,15.038,0,0,1-2.522,5.538v-2.106h-3.068v-.6H222.4v-2H211.38v9.75h11.466Zm-5.408,9.152h9.568V-3.9h-9.568Zm0-2.366h9.568v.6h-9.568Zm0-2.366h9.568v.6h-9.568Zm10.5,8.606c-.962,0-1.144-.052-1.144-.728v-.65h3.952v-9.1H213.876v9.1h3.172c-.572,1.066-2,1.482-7.124,1.69a8.9,8.9,0,0,1,1.586,2.86c6.786-.6,8.632-1.924,9.334-4.55h2.262v.676c0,2.7.832,3.588,4.316,3.588h3.458c2.522,0,3.458-.78,3.8-3.692A10.439,10.439,0,0,1,231.582-2.6c-.13,1.664-.286,1.95-1.066,1.95Zm9.022-17.576.39,4.29a99.88,99.88,0,0,1,9.932-1.456,10.611,10.611,0,0,0-3.3,7.592c0,5.538,4.966,8.684,10.764,9.126l1.482-4.368c-4.5-.26-8.086-1.768-8.086-5.59a7.218,7.218,0,0,1,5.226-6.76,32.791,32.791,0,0,1,4.992-.312l-.026-4.056c-1.9.078-4.966.26-7.566.468-4.758.416-8.684.728-11.128.936C239.148-18.3,238-18.252,236.964-18.226ZM254.67-13.52l-2.262.936a20.887,20.887,0,0,1,1.976,3.562l2.314-1.014A34.46,34.46,0,0,0,254.67-13.52Zm2.938-1.248-2.236,1.014a21.775,21.775,0,0,1,2.106,3.458l2.288-1.092C259.246-12.324,258.284-13.832,257.608-14.768ZM277.082-2.834h2v1.326h-2ZM271.7-13.13h-4.16c.312-1.4.572-2.834.78-4.264h3.25v2.366h3.172V-16.8h1.248a14.159,14.159,0,0,1-4.29,5.1Zm-3.146,9.282h-1.43V-9.906h1.43ZM283.192-16.8v1.04l-2.522-.494a17.547,17.547,0,0,1-.754,2.366H278.46a23.308,23.308,0,0,0,1.43-2.912Zm-4.108,7.228h-2V-10.79h2Zm0,4.03h-2V-6.864h2Zm7.566,4.03h-4.108V-2.834h2.912v-2.7h-2.912V-6.864h2.912v-2.7h-2.912V-10.79H286.1v-3.094H283.3c.182-.364.364-.754.572-1.144h2.652v-4.914h-5.538c.156-.546.312-1.092.442-1.664l-3.588-.65a21.521,21.521,0,0,1-.6,2.314H271.96V-20.8h-9.49v3.406h2.288c-.52,4.082-1.482,7.9-3.25,10.4a20.188,20.188,0,0,1,1.976,3.666c.208-.286.416-.572.624-.884v5.59h3.016v-2H271.7v-9.854a19.889,19.889,0,0,1,1.768,2.132l.078-.052V2.5h3.536V1.56h9.568Zm10.192-19.968h-7.618v2.808h7.618Zm.728,3.562h-9.62v2.938h9.62Zm-.676,3.718h-7.748v2.808h7.748Zm-7.748,6.4h7.748v-2.808h-7.748Zm4.68,6.006h-1.69V-4h1.69Zm14.43-16.354c-.182,3.3-.39,4.654-.676,5.044a.756.756,0,0,1-.754.338c-.234,0-.52,0-.858-.026l1.144-1.846c-.572-.338-1.248-.7-2-1.092a18.157,18.157,0,0,0,.546-2.418ZM313.04-.13a19.69,19.69,0,0,0-2.782-6.6l-3.042,1.222A21.037,21.037,0,0,1,308.75-2.34a8.036,8.036,0,0,1-2.6-1.2c-.078,2.288-.182,2.6-.572,2.6h-.728c-.364,0-.39-.078-.39-.858v-4.94a11.715,11.715,0,0,1,1.716,1.586l2.34-2.418a13.662,13.662,0,0,0-2.366-1.9,14.279,14.279,0,0,0,2.6-.156,2.618,2.618,0,0,0,1.846-1.118c.7-.884.988-3.406,1.222-9.2.052-.416.052-1.326.052-1.326H298.61v3.12h3.666c-.078.364-.156.728-.26,1.092-.7-.26-1.4-.494-2.08-.676l-1.742,2.6c.806.26,1.69.572,2.548.936a8.58,8.58,0,0,1-3.38,2.782,9.153,9.153,0,0,1,2.106,2.678,11.12,11.12,0,0,0,4.316-3.978c.572.338,1.092.65,1.534.962l.182-.286a10.039,10.039,0,0,1,.546,2.5,21.388,21.388,0,0,0-2.21-1.248l-2.158,2.184a21.8,21.8,0,0,1,2.236,1.456H301v1.82l-2.756-.728a13.4,13.4,0,0,1-1.3,4.94V-6.942h-7.878V2.08h3.068V1.144h4.81V-.338l2.392,1.43A10.782,10.782,0,0,0,301-3.614v1.872c0,2.99.546,4.03,3.224,4.03h1.742c1.846,0,2.73-.78,3.12-3.666a13.068,13.068,0,0,1,.65,2.6Zm1.924-18.1.39,4.29a99.882,99.882,0,0,1,9.932-1.456,10.611,10.611,0,0,0-3.3,7.592c0,5.538,4.966,8.684,10.764,9.126l1.482-4.368c-4.5-.26-8.086-1.768-8.086-5.59a7.218,7.218,0,0,1,5.226-6.76,32.791,32.791,0,0,1,4.992-.312l-.026-4.056c-1.9.078-4.966.26-7.566.468-4.758.416-8.684.728-11.128.936C317.148-18.3,316-18.252,314.964-18.226ZM332.67-13.52l-2.262.936a20.889,20.889,0,0,1,1.976,3.562l2.314-1.014A34.463,34.463,0,0,0,332.67-13.52Zm2.938-1.248-2.236,1.014a21.774,21.774,0,0,1,2.106,3.458l2.288-1.092C337.246-12.324,336.284-13.832,335.608-14.768Zm7.306,1.144.208,3.692a101.726,101.726,0,0,0,11.232.052c.338.7.7,1.4,1.118,2.132-.728-.052-2-.156-2.912-.234l-.312,2.99c1.95.208,4.992.572,6.448.832l1.846-2.834a8.547,8.547,0,0,1-1.274-1.482c-.338-.52-.7-1.144-1.04-1.794,1.378-.208,2.652-.442,3.822-.728l-.624-3.718a32.787,32.787,0,0,1-4.836,1.04c-.13-.364-.26-.7-.364-.988-.1-.312-.208-.6-.286-.91a32.767,32.767,0,0,0,4.6-.91l-.494-3.588a27.612,27.612,0,0,1-4.992,1.092c-.156-.806-.312-1.638-.416-2.548l-4.212.442c.286.832.546,1.612.78,2.366a58.7,58.7,0,0,1-7.852-.416l.208,3.588a63.722,63.722,0,0,0,8.658.26c.1.364.26.78.416,1.274.078.208.156.416.234.65A74.576,74.576,0,0,1,342.914-13.624Zm5.668,6.292-3.9-.728a9.091,9.091,0,0,0-1.2,4.446c.078,3.9,3.51,5.46,8.762,5.46a46.1,46.1,0,0,0,6.474-.494l.234-4a36.265,36.265,0,0,1-6.708.572c-3.094,0-4.862-.624-4.862-2.418A4.792,4.792,0,0,1,348.582-7.332ZM373.1-3.042c0-.728.832-1.3,2.288-1.3a11.848,11.848,0,0,1,1.95.156c.026.312.026.572.026.754,0,1.326-.728,1.69-2.054,1.69C373.958-1.742,373.1-2.184,373.1-3.042Zm8.086-18.2h-4.264a9.946,9.946,0,0,1,.182,1.9v.884h-.884a49.051,49.051,0,0,1-6.292-.572l.078,3.562a59.928,59.928,0,0,0,6.24.468h.832c-.026.7-.026,1.43-.026,2.132h-1.17a45.065,45.065,0,0,1-6.11-.494l.052,3.692c1.638.208,4.628.338,6.006.338H377.1c.026.6.052,1.222.078,1.82-.416-.026-.832-.052-1.274-.052-4.134,0-6.63,1.976-6.63,4.758,0,2.886,2.262,4.628,6.656,4.628,3.432,0,5.408-1.664,5.408-4.108v-.52A19.848,19.848,0,0,1,386,.572l2.262-3.51a19.765,19.765,0,0,0-7.124-3.874c-.052-.884-.1-1.768-.156-2.6,2.47-.078,4.368-.234,6.656-.468l.026-3.692c-2,.234-4.082.468-6.76.6,0-.676,0-1.4.026-2.158,2.5-.1,4.784-.312,6.344-.546l.026-3.588a58.271,58.271,0,0,1-6.318.676c0-.286.026-.546.026-.754C381.03-19.968,381.108-20.7,381.186-21.242Zm27.482.078h-4.55c.078.39.182,1.352.286,2.6a1.166,1.166,0,0,0,.026.286c-3.354.052-7.956.156-10.972.13l.1,3.77c3.172-.156,7.02-.312,10.92-.364.026.442.026.884.026,1.326a5.222,5.222,0,0,0-.65-.026c-3.016,0-5.538,1.924-5.538,5.07a4.825,4.825,0,0,0,4.6,4.992,2.826,2.826,0,0,0,.468-.026,14.559,14.559,0,0,1-5.954,2.288l3.354,3.354c6.5-1.768,8.658-6.292,8.658-9.62a6.691,6.691,0,0,0-1.014-3.718c0-1.092,0-2.418-.026-3.666,3.276.026,5.72.078,7.254.156l.052-3.718c-1.352-.026-4.836.026-7.254.026v-.286C408.486-19.058,408.59-20.67,408.668-21.164ZM402.09-8.45a1.584,1.584,0,0,1,1.664-1.69,1.682,1.682,0,0,1,1.43.7c.286,1.976-.6,2.574-1.43,2.574A1.642,1.642,0,0,1,402.09-8.45ZM419.718-6.5a4.35,4.35,0,0,0-4.342,4.342,4.35,4.35,0,0,0,4.342,4.342,4.333,4.333,0,0,0,4.342-4.342A4.333,4.333,0,0,0,419.718-6.5Zm0,6.5a2.169,2.169,0,0,1-2.158-2.158,2.169,2.169,0,0,1,2.158-2.158,2.153,2.153,0,0,1,2.158,2.158A2.153,2.153,0,0,1,419.718,0Zm-636.87,18.176v4.368c.806-.052,2.262-.1,3.432-.1h11.258v9.88h-11.57c-1.222,0-2.418-.078-3.432-.156v4.5c.936-.1,2.574-.182,3.562-.182h11.414c0,.416-.026.858-.026,1.3h4.576c-.078-1.014-.13-2.5-.13-3.38V20.906c0-.858.052-2,.078-2.626-.39.026-1.638.078-2.47.078h-13.26C-214.656,18.358-216.112,18.28-217.152,18.176Zm26.832,17.68,2.99,2.6a6.76,6.76,0,0,1,1.794-.832c5.928-2.08,11.362-5.122,15.028-9.412l-2.236-3.588a30.646,30.646,0,0,1-12.87,8.45V20.256a20.419,20.419,0,0,1,.286-3.276h-4.94a17.161,17.161,0,0,1,.338,3.276V33.932A3.922,3.922,0,0,1-190.32,35.856Zm36.764-19.188-4.6-1.508a13.56,13.56,0,0,1-1.378,3.094,23.587,23.587,0,0,1-8.086,8.138l3.536,2.626a32.236,32.236,0,0,0,6.552-6.214h6.474a16.656,16.656,0,0,1-3.432,6.5c-2.21,2.47-4.914,4.68-10.53,6.4l3.744,3.328a25,25,0,0,0,10.556-7.488,27.254,27.254,0,0,0,4.5-8.528,11.629,11.629,0,0,1,1.014-2.132l-3.2-1.976a9.8,9.8,0,0,1-2.574.338h-4.186C-154.778,18.566-154.154,17.5-153.556,16.668Zm18.694-.6-2.288,3.484c1.82,1.014,4.472,2.7,6.032,3.744l2.34-3.484C-130.26,18.8-133.042,17.058-134.862,16.07Zm-5.33,18.382,2.366,4.16a31.717,31.717,0,0,0,8.71-3.2,31.893,31.893,0,0,0,10.53-9.386L-121,21.712a26.527,26.527,0,0,1-10.27,9.88A28.292,28.292,0,0,1-140.192,34.452Zm1.274-12.4-2.288,3.484c1.846.988,4.472,2.7,6.058,3.8l2.314-3.536A70.783,70.783,0,0,0-138.918,22.05Zm27.3.026v3.77c.728-.052,2.418-.1,3.536-.1h8.008v2.47h-7.67c-1.04,0-2.366-.026-3.146-.078v3.692c.676-.052,2.106-.052,3.146-.052h7.67v2.782h-9.49a23.1,23.1,0,0,1-2.314-.1v3.822c.442-.026,1.586-.078,2.288-.078h9.516c0,.39-.026.78-.026,1.014h3.952c0-.494-.026-1.56-.026-1.976V24.156c0-.572,0-1.612.026-2-.442.026-1.586.052-2.21.052h-9.724C-109.2,22.206-110.838,22.154-111.618,22.076Zm27.092-5.252-2.99,3.2a54.191,54.191,0,0,1,6.526,5.694l3.224-3.3A52.46,52.46,0,0,0-84.526,16.824Zm-3.848,17.264,2.678,4.16a27.745,27.745,0,0,0,9.308-3.432,28.116,28.116,0,0,0,10.114-9.854l-2.444-4.446a25.124,25.124,0,0,1-9.932,10.4A26.756,26.756,0,0,1-88.374,34.088Zm36.4-18.122-4.16-.338a16.361,16.361,0,0,1-.442,2.834H-57.59a34.228,34.228,0,0,1-4.68-.312v3.64c1.378.13,3.276.182,4.342.182a24.634,24.634,0,0,1-5.564,6.708l3.354,2.522a28.689,28.689,0,0,1,2.418-2.938A6.139,6.139,0,0,1-53.9,26.522a1.913,1.913,0,0,1,1.43.546c-2.886,1.508-5.98,3.666-5.98,7.072,0,3.458,3.068,4.576,7.332,4.576a63.509,63.509,0,0,0,7.514-.468l.13-4.056A39.159,39.159,0,0,1-51.038,35c-2.444,0-3.25-.442-3.25-1.534,0-1.04.7-1.9,2.34-2.86-.026.988-.078,1.95-.13,2.626h3.744c-.026-1.17-.078-2.912-.1-4.342,1.378-.6,2.652-1.092,3.64-1.482s2.626-.988,3.536-1.248l-1.534-3.64c-1.118.546-2.184,1.04-3.328,1.534-.91.416-1.768.754-2.808,1.248a3.76,3.76,0,0,0-3.458-1.82,12.662,12.662,0,0,0-2.574.26,19.655,19.655,0,0,0,1.014-1.846c2.756-.1,5.954-.338,8.372-.65l.026-3.64a60.029,60.029,0,0,1-6.994.728C-52.26,17.344-52.078,16.538-51.974,15.966ZM-31.72,23.48h11.258v1.378H-31.72Zm0-4.394h11.258v1.352H-31.72ZM-13.936,30.6H-24.154V28.16h7.618V15.784h-18.9V28.16h7.384V30.6h-9.88v3.588h9.88v5.226h3.9V34.192h10.218ZM7.28,23.74V25.4H5.174V23.74Zm-7.748,0H1.508V25.4H-.468Zm1.976-2.834H-3.926v7.306h3.77a14.036,14.036,0,0,1-5.3,3.51,14.713,14.713,0,0,1,2.392,2.86A15.087,15.087,0,0,0,1.508,30.89v3.926H5.174V31.1A18.854,18.854,0,0,0,9.646,34.53a15.367,15.367,0,0,1,2.548-2.964,19.552,19.552,0,0,1-5.772-3.354h4.524V20.906H5.174V19.892h6.5v-3.12h-6.5V14.8H1.508v1.976H-4.6v3.12h6.11Zm-6.474-1.664A22.246,22.246,0,0,0-9.23,15.368l-2.808,2.262a20.73,20.73,0,0,1,4.056,4.108Zm-.6,5.59h-6.37v3.484h2.678v4.836a37.27,37.27,0,0,1-3.354,2.106l1.82,3.952c1.4-1.118,2.5-2.054,3.562-2.99,1.716,2,3.77,2.652,6.864,2.782,3.25.156,8.424.1,11.726-.078a19.021,19.021,0,0,1,1.2-3.848,120.821,120.821,0,0,1-12.844.286c-2.548-.1-4.316-.754-5.278-2.366ZM20.644,20.2a18.992,18.992,0,0,0-4.134-3.8l-2.6,2.158a19.17,19.17,0,0,1,3.952,4.056Zm6.916,1.2H24.232V20.152H27.56Zm-3.328,2.626H27.56V25.3H24.232Zm13.442,8.788v-3.25H27.9v-1.43h3.328V25.326a35.29,35.29,0,0,1,4.836,3.224l2.34-2.834a45.37,45.37,0,0,0-6.058-3.51l-1.118,1.3V20.542L33.436,22a37.071,37.071,0,0,0,4.29-4l-3.25-1.95a25.994,25.994,0,0,1-3.25,3.588V17.318H27.56c.286-.65.572-1.378.858-2.132l-4.264-.442a20.027,20.027,0,0,1-.468,2.574H20.748v7.748l-.884-2.626c-2.288,1.2-4.6,2.392-6.188,3.094l1.872,3.12c1.586-.91,3.484-2.054,5.2-3.12v2.6h3.3v1.43H14.378v3.25h6.63a24.938,24.938,0,0,1-7.436,3.38,18.338,18.338,0,0,1,2.522,3.146,23.591,23.591,0,0,0,7.956-4.758v4.862H27.9V34.582a26.5,26.5,0,0,0,8.034,4.55,16.3,16.3,0,0,1,2.522-3.172,26.92,26.92,0,0,1-7.436-3.146Zm11.44-16.64-5.07-.052a19.191,19.191,0,0,1,.39,4c0,1.95-.234,8.918-.234,12.194,0,4.55,2.834,6.6,7.384,6.6A13.764,13.764,0,0,0,63.128,32.84l-2.86-3.51c-1.9,2.912-4.628,5.278-8.658,5.278-1.768,0-3.2-.78-3.2-3.276,0-2.86.182-8.476.312-11.206C48.776,18.982,48.932,17.4,49.114,16.174Zm21.294.806.156,4.03c.7-.1,1.716-.208,2.236-.234,1.17-.078,2.912-.13,3.952-.156-.494,1.014-1.118,2.522-1.742,3.978-5.278.312-9.022,3.484-9.022,7.592a4.2,4.2,0,0,0,4.342,4.576,4.952,4.952,0,0,0,4.5-2.548,49.477,49.477,0,0,0,2.756-5.9,16.926,16.926,0,0,1,5.434,1.924c-.91,2.132-2.7,4.42-6.5,6.058l3.38,2.73A13.487,13.487,0,0,0,86.32,32.4c.7.546,1.352,1.092,1.976,1.664l1.82-4.394c-.7-.468-1.56-1.014-2.574-1.612a40.691,40.691,0,0,0,.468-4.68l-4.134-.468A17.223,17.223,0,0,1,83.9,26c0,.078-.026.182-.026.286a23.009,23.009,0,0,0-4.81-1.43,53.7,53.7,0,0,1,2.418-5.226,7.206,7.206,0,0,1,.988-1.2l-2.5-1.95a7.506,7.506,0,0,1-2.054.442c-1.274.1-3.666.182-5.226.182C72.124,17.11,71.136,17.058,70.408,16.98Zm-.754,14.586c0-1.326,1.352-2.782,3.744-3.276a26.713,26.713,0,0,1-1.664,3.432c-.442.624-.754.884-1.222.884C70.018,32.606,69.654,32.268,69.654,31.566ZM98.8,33.958c0-.728.832-1.3,2.288-1.3a11.848,11.848,0,0,1,1.95.156c.026.312.026.572.026.754,0,1.326-.728,1.69-2.054,1.69C99.658,35.258,98.8,34.816,98.8,33.958Zm8.086-18.2h-4.264a9.947,9.947,0,0,1,.182,1.9v.884h-.884a49.051,49.051,0,0,1-6.292-.572l.078,3.562a59.928,59.928,0,0,0,6.24.468h.832c-.026.7-.026,1.43-.026,2.132h-1.17a45.064,45.064,0,0,1-6.11-.494l.052,3.692c1.638.208,4.628.338,6.006.338H102.8c.026.6.052,1.222.078,1.82-.416-.026-.832-.052-1.274-.052-4.134,0-6.63,1.976-6.63,4.758,0,2.886,2.262,4.628,6.656,4.628,3.432,0,5.408-1.664,5.408-4.108v-.52a19.849,19.849,0,0,1,4.654,3.38l2.262-3.51a19.766,19.766,0,0,0-7.124-3.874c-.052-.884-.1-1.768-.156-2.6,2.47-.078,4.368-.234,6.656-.468l.026-3.692c-2,.234-4.082.468-6.76.6,0-.676,0-1.4.026-2.158,2.5-.1,4.784-.312,6.344-.546L113,17.734a58.271,58.271,0,0,1-6.318.676c0-.286.026-.546.026-.754C106.73,17.032,106.808,16.3,106.886,15.758Zm20.228.416-5.07-.052a19.191,19.191,0,0,1,.39,4c0,1.95-.234,8.918-.234,12.194,0,4.55,2.834,6.6,7.384,6.6a13.764,13.764,0,0,0,11.544-6.084l-2.86-3.51c-1.9,2.912-4.628,5.278-8.658,5.278-1.768,0-3.2-.78-3.2-3.276,0-2.86.182-8.476.312-11.206C126.776,18.982,126.932,17.4,127.114,16.174Zm23.972,18.512c0-.65.624-1.118,2.028-1.118a8.547,8.547,0,0,1,1.4.13v.39c0,1.17-.468,1.69-1.508,1.69C151.892,35.778,151.086,35.31,151.086,34.686Zm7.15-14.378H154a14.753,14.753,0,0,1,.234,2.834v3.406c0,1.118.078,2.522.156,3.926-.26-.026-.52-.026-.78-.026-3.874,0-6.11,1.768-6.11,4.446,0,2.99,2.808,4.394,6.006,4.394,3.848,0,4.914-1.9,4.914-3.926v-.1a21.512,21.512,0,0,1,3.77,3.2l2.158-3.406a17.616,17.616,0,0,0-6.136-3.77c-.078-1.43-.182-2.886-.208-3.926,1.716-.052,4.16-.13,5.824-.26l-.1-3.484c-1.638.182-4.03.286-5.72.338V23.09A17.938,17.938,0,0,1,158.236,20.308Zm28.054,8.268c0,3.744-3.978,5.642-10.5,6.344l2.236,3.952c7.514-.988,12.74-4.6,12.74-10.14,0-4.264-2.964-6.76-7.306-6.76a35.373,35.373,0,0,0-7.93,1.144,28.523,28.523,0,0,1-3.094.468l1.17,4.472c.806-.312,1.976-.78,2.7-.988a22.366,22.366,0,0,1,6.578-1.248C185.2,25.82,186.29,27.12,186.29,28.576Zm-9.828-12.922-.6,3.77c3.016.52,8.892,1.04,12.012,1.248L188.5,16.8A78.386,78.386,0,0,1,176.462,15.654Zm29.926,14.43h3.224l.78-8.216.156-4.316h-5.1l.156,4.316ZM208,37.312a2.568,2.568,0,0,0,2.652-2.652,2.653,2.653,0,0,0-5.3,0A2.553,2.553,0,0,0,208,37.312Z" transform="translate(683 3853)" fill="url(#linear-gradient)"/>
    <g id="グループ_85" data-name="グループ 85" transform="translate(255 3268.542)">
      <g id="グループ_84" data-name="グループ 84" transform="translate(0 -0.004)" clip-path="url(#clip-path)">
        <path id="パス_345" data-name="パス 345" d="M26.148,0H147.757a26.148,26.148,0,0,1,26.148,26.148V323.2a26.148,26.148,0,0,1-26.148,26.148H26.148A26.148,26.148,0,0,1,0,323.2V26.145A26.148,26.148,0,0,1,26.148,0" transform="translate(0 0.003)" fill="#454343" fill-rule="evenodd"/>
        <path id="パス_346" data-name="パス 346" d="M100.354,86.633H221.007a19.381,19.381,0,0,1,19.354,19.407V400.109a19.381,19.381,0,0,1-19.354,19.407H100.354A19.381,19.381,0,0,1,81,400.109V106.04a19.381,19.381,0,0,1,19.354-19.407" transform="translate(-73.728 -78.855)" fill="#fff" fill-rule="evenodd"/>
        <path id="パス_347" data-name="パス 347" d="M573.3,52.828H638.01a3.436,3.436,0,0,1,3.436,3.435v4.869a3.436,3.436,0,0,1-3.436,3.435H573.3a3.436,3.436,0,0,1-3.436-3.435V56.263a3.436,3.436,0,0,1,3.436-3.435" transform="translate(-518.702 -48.085)" fill="#454343" fill-rule="evenodd"/>
      </g>
    </g>
    <g id="グループ_86" data-name="グループ 86" transform="translate(593.047 3268.542)">
      <g id="グループ_84-2" data-name="グループ 84" transform="translate(0 -0.004)" clip-path="url(#clip-path)">
        <path id="パス_345-2" data-name="パス 345" d="M26.148,0H147.757a26.148,26.148,0,0,1,26.148,26.148V323.2a26.148,26.148,0,0,1-26.148,26.148H26.148A26.148,26.148,0,0,1,0,323.2V26.145A26.148,26.148,0,0,1,26.148,0" transform="translate(0 0.003)" fill="#454343" fill-rule="evenodd"/>
        <path id="パス_346-2" data-name="パス 346" d="M100.354,86.633H221.007a19.381,19.381,0,0,1,19.354,19.407V400.109a19.381,19.381,0,0,1-19.354,19.407H100.354A19.381,19.381,0,0,1,81,400.109V106.04a19.381,19.381,0,0,1,19.354-19.407" transform="translate(-73.728 -78.855)" fill="#fff" fill-rule="evenodd"/>
        <path id="パス_347-2" data-name="パス 347" d="M573.3,52.828H638.01a3.436,3.436,0,0,1,3.436,3.435v4.869a3.436,3.436,0,0,1-3.436,3.435H573.3a3.436,3.436,0,0,1-3.436-3.435V56.263a3.436,3.436,0,0,1,3.436-3.435" transform="translate(-518.702 -48.085)" fill="#454343" fill-rule="evenodd"/>
      </g>
    </g>
    <g id="グループ_87" data-name="グループ 87" transform="translate(958.802 3268.542)">
      <g id="グループ_84-3" data-name="グループ 84" transform="translate(0 -0.004)" clip-path="url(#clip-path)">
        <path id="パス_345-3" data-name="パス 345" d="M26.148,0H147.757a26.148,26.148,0,0,1,26.148,26.148V323.2a26.148,26.148,0,0,1-26.148,26.148H26.148A26.148,26.148,0,0,1,0,323.2V26.145A26.148,26.148,0,0,1,26.148,0" transform="translate(0 0.003)" fill="#454343" fill-rule="evenodd"/>
        <path id="パス_346-3" data-name="パス 346" d="M100.354,86.633H221.007a19.381,19.381,0,0,1,19.354,19.407V400.109a19.381,19.381,0,0,1-19.354,19.407H100.354A19.381,19.381,0,0,1,81,400.109V106.04a19.381,19.381,0,0,1,19.354-19.407" transform="translate(-73.728 -78.855)" fill="#fff" fill-rule="evenodd"/>
        <path id="パス_347-3" data-name="パス 347" d="M573.3,52.828H638.01a3.436,3.436,0,0,1,3.436,3.435v4.869a3.436,3.436,0,0,1-3.436,3.435H573.3a3.436,3.436,0,0,1-3.436-3.435V56.263a3.436,3.436,0,0,1,3.436-3.435" transform="translate(-518.702 -48.085)" fill="#454343" fill-rule="evenodd"/>
      </g>
    </g>
    <text id="SBI_Web3ウォレットにログインし_アカウントにアクセス" data-name="SBI Web3ウォレットにログインし、アカウントにアクセス" transform="translate(202.453 3647.226)" fill="#2d3138" font-size="16" font-family="NotoSansJP-Bold, Noto Sans JP" font-weight="700"><tspan x="0" y="19">SBI Web3</tspan><tspan y="19">ウォレットにログインし、</tspan><tspan x="0" y="45">アカウントにアクセス</tspan></text>
    <text id="口座開設と10_000円入金が完了した後_SBI_VCトレードから自動的にNFTが送信され_ウォレット内で受け取ることができます_" data-name="口座開設と10,000円入金が完了した後、SBI VCトレードから自動的にNFTが送信され、ウォレット内で受け取ることができます。" transform="translate(543.5 3647.226)" fill="#2d3138" font-size="16" font-family="NotoSansJP-Bold, Noto Sans JP" font-weight="700"><tspan x="0" y="19">口座開設</tspan><tspan y="19">と10,000</tspan><tspan y="19">円入金</tspan><tspan y="19">が</tspan><tspan y="19">完了</tspan><tspan y="19">した</tspan><tspan x="0" y="45">後、</tspan><tspan y="45">SBI VC</tspan><tspan y="45">トレードから</tspan><tspan y="45">自動的</tspan><tspan y="45">に</tspan><tspan y="45">NFT</tspan><tspan x="0" y="71">が</tspan><tspan y="71">送信</tspan><tspan y="71">され、ウォレット</tspan><tspan y="71">内</tspan><tspan y="71">で</tspan><tspan y="71">受</tspan><tspan y="71">け</tspan><tspan y="71">取</tspan><tspan y="71">る</tspan><tspan x="0" y="97">ことができます。</tspan></text>
    <text id="ウォレットの_NFT管理_画面から配布されたNFTを確認し_コレクションとして一覧表示されます_" data-name="ウォレットの「NFT管理」画面から配布されたNFTを確認し、コレクションとして一覧表示されます。" transform="translate(906.254 3647.226)" fill="#2d3138" font-size="16" font-family="NotoSansJP-Bold, Noto Sans JP" font-weight="700"><tspan x="0" y="19">ウォレットの</tspan><tspan y="19">「NFT</tspan><tspan y="19">管理」画面</tspan><tspan y="19">から</tspan><tspan y="19">配</tspan><tspan x="0" y="45">布</tspan><tspan y="45">された</tspan><tspan y="45">NFT</tspan><tspan y="45">を</tspan><tspan y="45">確認</tspan><tspan y="45">し、コレクション</tspan><tspan x="0" y="71">として</tspan><tspan y="71">一覧表示</tspan><tspan y="71">されます。</tspan></text>
    <path id="パス_348" data-name="パス 348" d="M47.6,0,39.847,8.668,29.376,3.613,25.55,14.594l-11.61-.654.654,11.61L3.613,29.376,8.668,39.848,0,47.6l8.668,7.748L3.613,65.815l10.981,3.826-.654,11.61L25.55,80.6l3.826,10.981,10.471-5.055L47.6,95.191l7.748-8.668,10.471,5.055L69.641,80.6l11.61.654L80.6,69.641l10.981-3.826L86.523,55.344,95.191,47.6l-8.668-7.748,5.055-10.471L80.6,25.55l.654-11.61-11.61.654L65.815,3.613,55.344,8.668Z" transform="translate(204.453 3226.286)" fill="#2d3138"/>
    <path id="パス_362" data-name="パス 362" d="M47.6,0,39.847,8.668,29.376,3.613,25.55,14.594l-11.61-.654.654,11.61L3.613,29.376,8.668,39.848,0,47.6l8.668,7.748L3.613,65.815l10.981,3.826-.654,11.61L25.55,80.6l3.826,10.981,10.471-5.055L47.6,95.191l7.748-8.668,10.471,5.055L69.641,80.6l11.61.654L80.6,69.641l10.981-3.826L86.523,55.344,95.191,47.6l-8.668-7.748,5.055-10.471L80.6,25.55l.654-11.61-11.61.654L65.815,3.613,55.344,8.668Z" transform="translate(542.453 3226.286)" fill="#2d3138"/>
    <path id="パス_363" data-name="パス 363" d="M47.6,0,39.847,8.668,29.376,3.613,25.55,14.594l-11.61-.654.654,11.61L3.613,29.376,8.668,39.848,0,47.6l8.668,7.748L3.613,65.815l10.981,3.826-.654,11.61L25.55,80.6l3.826,10.981,10.471-5.055L47.6,95.191l7.748-8.668,10.471,5.055L69.641,80.6l11.61.654L80.6,69.641l10.981-3.826L86.523,55.344,95.191,47.6l-8.668-7.748,5.055-10.471L80.6,25.55l.654-11.61-11.61.654L65.815,3.613,55.344,8.668Z" transform="translate(909.206 3226.286)" fill="#2d3138"/>
    <path id="パス_767" data-name="パス 767" d="M1.35-13.32h-2.6l-1.14,3.28H-4.71l-.88,2.42h2.32L-3.93-5.7H-6.21l-.9,2.42h2.32L-5.97,0h2.58l1.18-3.28H-.17L-1.35,0H1.23L2.41-3.28H4.69l.9-2.42H3.27l.68-1.92H6.21l.9-2.42H4.81l1.16-3.28H3.39L2.23-10.04H.19Zm.06,5.7L.73-5.66H-1.43l.7-1.96ZM-11.178,15.3a7.992,7.992,0,0,0,8.257,7.981,7.932,7.932,0,0,0,7.705-7.843,7.988,7.988,0,0,0-8.142-8.1A7.993,7.993,0,0,0-11.178,15.3ZM.3,15.088A3.493,3.493,0,0,1-2.99,18.814a3.443,3.443,0,0,1-3.2-1.7,2.683,2.683,0,0,1-.506-1.541A3.525,3.525,0,0,1-3.128,11.8,3.524,3.524,0,0,1,.3,15.088ZM6.348,23H10.81V7.774H6.348Z" transform="translate(251.336 3269.197)" fill="#fff"/>
    <path id="パス_768" data-name="パス 768" d="M1.35-13.32h-2.6l-1.14,3.28H-4.71l-.88,2.42h2.32L-3.93-5.7H-6.21l-.9,2.42h2.32L-5.97,0h2.58l1.18-3.28H-.17L-1.35,0H1.23L2.41-3.28H4.69l.9-2.42H3.27l.68-1.92H6.21l.9-2.42H4.81l1.16-3.28H3.39L2.23-10.04H.19Zm.06,5.7L.73-5.66H-1.43l.7-1.96ZM-14.34,15.3a7.992,7.992,0,0,0,8.257,7.981,7.932,7.932,0,0,0,7.705-7.843,7.988,7.988,0,0,0-8.142-8.1A7.993,7.993,0,0,0-14.34,15.3Zm11.477-.207a3.493,3.493,0,0,1-3.289,3.726,3.443,3.443,0,0,1-3.2-1.7,2.683,2.683,0,0,1-.506-1.541A3.525,3.525,0,0,1-6.29,11.8,3.524,3.524,0,0,1-2.863,15.088ZM14.248,23V18.7H11.7c1.4-2.806,2.438-4.14,2.438-5.98a5.313,5.313,0,1,0-8.05,4.6l1.978-3.5a.862.862,0,0,1-.414-.713c0-.782.368-1.173,1.035-1.173.6,0,1.035.391,1.035,1.2a.963.963,0,0,1-.184.483L4.427,23Z" transform="translate(589.336 3269.197)" fill="#fff"/>
    <path id="パス_769" data-name="パス 769" d="M1.553-15.318h-2.99l-1.311,3.772H-5.417L-6.428-8.763H-3.76l-.759,2.208H-7.141L-8.176-3.772h2.668L-6.865,0H-3.9l1.357-3.772H-.2L-1.552,0H1.414L2.772-3.772H5.394L6.429-6.555H3.761l.782-2.208h2.6l1.035-2.783H5.532l1.334-3.772H3.9L2.565-11.546H.218Zm.069,6.555L.839-6.509H-1.644l.8-2.254ZM-13.11,15.3a7.992,7.992,0,0,0,8.257,7.981,7.932,7.932,0,0,0,7.705-7.843,7.988,7.988,0,0,0-8.142-8.1A7.993,7.993,0,0,0-13.11,15.3Zm11.477-.207a3.493,3.493,0,0,1-3.289,3.726,3.443,3.443,0,0,1-3.2-1.7,2.683,2.683,0,0,1-.506-1.541A3.525,3.525,0,0,1-5.06,11.8,3.524,3.524,0,0,1-1.633,15.088Zm6.21-3.174H6.394l-1.265,3.22c1.955-.046,2.99.8,2.99,1.771,0,1.495-.9,2.162-1.817,2.162a3.839,3.839,0,0,1-1.725-.575v4.3a5.878,5.878,0,0,0,2.668.506,5.214,5.214,0,0,0,2.622-.644,4.9,4.9,0,0,0,2.921-4.9c0-1.886-.943-2.921-2.553-4.3L12.7,7.521H4.577Z" transform="translate(956.09 3269.197)" fill="#fff"/>
    <path id="多角形_11" data-name="多角形 11" d="M20.825,2.768a2,2,0,0,1,3.407,0L43.18,33.56a2,2,0,0,1-1.7,3.048H3.579a2,2,0,0,1-1.7-3.048Z" transform="translate(527.709 3410.687) rotate(90)" fill="url(#linear-gradient-2)"/>
    <path id="多角形_12" data-name="多角形 12" d="M20.825,2.768a2,2,0,0,1,3.407,0L43.18,33.56a2,2,0,0,1-1.7,3.048H3.579a2,2,0,0,1-1.7-3.048Z" transform="translate(865.757 3410.687) rotate(90)" fill="url(#linear-gradient-2)"/>
    <g id="グループ_136" data-name="グループ 136" transform="translate(417 3486)">
      <g id="グループ_82" data-name="グループ 82" transform="translate(0 27)">
        <g id="長方形_1670" data-name="長方形 1670" transform="translate(92 445)" fill="none" stroke="#2d3138" stroke-width="2">
          <rect width="352" height="77" rx="38.5" stroke="none"/>
          <rect x="1" y="1" width="350" height="75" rx="37.5" fill="none"/>
        </g>
        <rect id="長方形_4" data-name="長方形 4" width="352" height="77" rx="38.5" transform="translate(88 440)" fill="#2d3138"/>
        <text id="無料_口座開設はこちら" data-name="無料・口座開設はこちら" transform="translate(125 489)" fill="#fff" font-size="22" font-family="NotoSansJP-Bold, Noto Sans JP" font-weight="700"><tspan x="0" y="0">無料・口座開設</tspan><tspan y="0">はこちら</tspan></text>
        <circle id="楕円形_7" data-name="楕円形 7" cx="14.5" cy="14.5" r="14.5" transform="translate(380 466)" fill="#fff"/>
        <path id="多角形_1" data-name="多角形 1" d="M6.3,2.768a2,2,0,0,1,3.407,0l4.421,7.184A2,2,0,0,1,12.421,13H3.579a2,2,0,0,1-1.7-3.048Z" transform="translate(402.5 472.5) rotate(90)" fill="#2d3138"/>
      </g>
      <g id="長方形_1669" data-name="長方形 1669" transform="translate(300 441)" fill="#fff" stroke="#2d3138" stroke-width="2">
        <rect width="119" height="38" rx="19" stroke="none"/>
        <rect x="1" y="1" width="117" height="36" rx="18" fill="none"/>
      </g>
      <g id="多角形_29" data-name="多角形 29" transform="translate(365 484) rotate(180)" fill="#fff">
        <path d="M 7.585780143737793 4 L 2.414220094680786 4 L 5 1.414219975471497 L 7.585780143737793 4 Z" stroke="none"/>
        <path d="M 5 0 L 10 5 L 0 5 L 5 0 Z" stroke="none" fill="#2d3138"/>
      </g>
      <path id="多角形_30" data-name="多角形 30" d="M5,0l5,5H0Z" transform="translate(365 482) rotate(180)" fill="#fff"/>
      <text id="最短当日" transform="translate(332 466)" fill="#2d3138" font-size="14" font-family="NotoSansJP-Bold, Noto Sans JP" font-weight="700"><tspan x="0" y="0">最短当日</tspan></text>
    </g>
  </g>
</svg>
