<svg xmlns="http://www.w3.org/2000/svg" xmlns:xlink="http://www.w3.org/1999/xlink" width="681.247" height="2255.09" viewBox="0 0 681.247 2255.09">
  <defs>
    <linearGradient id="linear-gradient" x1="0.5" x2="0.5" y2="1" gradientUnits="objectBoundingBox">
      <stop offset="0" stop-color="#eda3ff"/>
      <stop offset="1" stop-color="#a09eff"/>
    </linearGradient>
    <clipPath id="clip-path">
      <rect id="長方形_1095" data-name="長方形 1095" width="194.657" height="391.043" transform="translate(0 0)" fill="none"/>
    </clipPath>
    <linearGradient id="linear-gradient-2" x1="0.5" y1="0.069" x2="0.5" y2="1" gradientUnits="objectBoundingBox">
      <stop offset="0" stop-color="#a09eff"/>
      <stop offset="1" stop-color="#eda3ff"/>
    </linearGradient>
    <linearGradient id="linear-gradient-3" x1="0.5" y1="0.05" x2="0.5" y2="0.968" xlink:href="#linear-gradient-2"/>
  </defs>
  <g id="グループ_204" data-name="グループ 204" transform="translate(-40 -7619.396)">
    <rect id="長方形_1645" data-name="長方形 1645" width="671.247" height="2245.09" rx="19" transform="translate(50 7629.396)" fill="#2d3138"/>
    <g id="長方形_1646" data-name="長方形 1646" transform="translate(40 7619.396)" fill="#fff" stroke="#2d3138" stroke-width="4">
      <rect width="671.247" height="2245.09" rx="19" stroke="none"/>
      <rect x="2" y="2" width="667.247" height="2241.09" rx="17" fill="none"/>
    </g>
    <text id="NFTの受取イメージ" transform="translate(164 7754.396)" fill="#252525" font-size="47" font-family="NotoSansJP-Black, Noto Sans JP" font-weight="800"><tspan x="0" y="0">NFT</tspan><tspan y="0">の</tspan><tspan y="0">受取</tspan><tspan y="0">イメージ</tspan></text>
    <path id="パス_382" data-name="パス 382" d="M46.74,12.264H40.008a19.153,19.153,0,0,1,.324,3.672v2.412H32.808a33.308,33.308,0,0,1-3.852-.18,25.678,25.678,0,0,1,.18,3.276v6.192c0,1.116-.072,2.376-.18,3.42h6.012a25.74,25.74,0,0,1-.144-2.952V23.5h16.6a19.367,19.367,0,0,1-3.06,8.568,17.354,17.354,0,0,1-7.272,5.508,31.415,31.415,0,0,1-5.868,1.656l4.536,5.256c6.3-1.62,11.988-5.508,14.94-11.16a33.5,33.5,0,0,0,3.276-9.864,29.939,29.939,0,0,1,.792-3.24l-3.78-2.3a9.754,9.754,0,0,1-3.276.432H46.452V15.936A26.593,26.593,0,0,1,46.74,12.264ZM86.2,19.392h-5.58A27.8,27.8,0,0,1,80.94,22.7c.036.576.036,1.152.072,1.764H71.8a28.251,28.251,0,0,1-3.6-.252v5.328c1.116-.072,2.664-.144,3.744-.144h6.552a35.86,35.86,0,0,1-12.168,8.928l3.78,4.356a40.987,40.987,0,0,0,11.16-8.856c.036,2.088.036,4,.036,5.472,0,.792-.252,1.152-.936,1.152a37.706,37.706,0,0,1-3.96-.288l.324,4.932c1.728.108,3.888.18,5.8.18,2.412,0,4-1.512,3.96-3.564C86.448,37.9,86.3,33.5,86.2,29.4h3.816c.828,0,2.016.036,2.988.072V24.216a25.819,25.819,0,0,1-3.24.252H86.052c0-.612-.036-1.188-.036-1.764A24.522,24.522,0,0,1,86.2,19.392ZM103.98,40.416l4.14,3.6a9.36,9.36,0,0,1,2.484-1.152c8.208-2.88,15.732-7.092,20.808-13.032l-3.1-4.968a42.434,42.434,0,0,1-17.82,11.7V18.816a28.271,28.271,0,0,1,.4-4.536h-6.84a23.762,23.762,0,0,1,.468,4.536V37.752A5.431,5.431,0,0,1,103.98,40.416Zm48.132-20.16-5.184,1.692a67.763,67.763,0,0,1,2.988,8.064l5.22-1.8C154.6,26.52,152.832,21.84,152.112,20.256Zm13.428,2.952-6.156-1.98c-.324,4.464-2.016,9.36-4.392,12.348-2.988,3.78-8.244,6.516-12.06,7.488l4.572,4.68a28.526,28.526,0,0,0,12.2-9.18,29.522,29.522,0,0,0,4.824-10.224C164.784,25.476,165.036,24.612,165.54,23.208ZM143.76,22.2,138.5,24.072a65.53,65.53,0,0,1,3.312,8.388l5.328-1.98C146.424,28.392,144.768,24.216,143.76,22.2Zm36.576,16.2a40.415,40.415,0,0,1-.432,5.436h6.84c-.18-1.62-.4-4.464-.4-5.436V29.148A112.271,112.271,0,0,1,198.732,34.3l2.484-6.084a119.021,119.021,0,0,0-14.868-5.436V17.844a42.8,42.8,0,0,1,.36-4.68h-6.8a25.15,25.15,0,0,1,.432,4.68Zm53.352.036h-20.34V19.824h-5.076v25.6h5.076V43.368h20.34V45.42h5.076v-25.6h-5.076ZM227.6,26.7h-1.98V24.612h1.98Zm0,6.048h-1.98V30.624h1.98Zm-8.388-2.124h1.944v2.124h-1.944Zm0-6.012h1.944V26.7h-1.944Zm-12.06-11.34v4.86h13.572V20.4h-5.76V36.96h17.1V20.4H226.02V18.132h13.9v-4.86Zm61.956,25.56h-3.024v-13.5h3.024Zm-19.548-13.5h2.844v13.5h-2.844Zm11.844,1.692h-4.356V25.332h4.356ZM257.052,37h4.356v1.836h-4.356Zm4.356-4.032h-4.356V31.056h4.356Zm14.616-14.94V13.092h-32.9v4.932h12.816c-.108.828-.252,1.692-.36,2.52H244.524V45.42h5.04v-1.8h19.548v1.8h5.328V20.544H261.12l.792-2.52Zm3.78-1.26.54,5.94A138.3,138.3,0,0,1,294.1,20.688,14.693,14.693,0,0,0,289.524,31.2c0,7.668,6.876,12.024,14.9,12.636l2.052-6.048c-6.228-.36-11.2-2.448-11.2-7.74,0-4.284,3.348-8.5,7.236-9.36a45.4,45.4,0,0,1,6.912-.432L309.4,14.64c-2.628.108-6.876.36-10.476.648-6.588.576-12.024,1.008-15.408,1.3C282.828,16.656,281.244,16.728,279.8,16.764ZM304.32,23.28l-3.132,1.3a28.921,28.921,0,0,1,2.736,4.932l3.2-1.4A47.709,47.709,0,0,0,304.32,23.28Zm4.068-1.728-3.1,1.4a30.148,30.148,0,0,1,2.916,4.788l3.168-1.512C310.656,24.936,309.324,22.848,308.388,21.552Zm31.284,6.912h-11.16l-.288-1.836-2.844.756V22.7h1.944v3.1h12.348Zm8.892-2.664V20.976h-7.848V18.744h6.3V14.028h-6.3V11.184h-5.184v2.844h-6.048v4.716h6.048v2.232h-7.56v-3.24H325.38V11.22h-4.788v6.516h-1.008c.18-1.332.324-2.664.432-3.96l-4.32-.72c-.252,4.176-.792,8.64-1.836,11.448A30.175,30.175,0,0,1,317.5,26.88,29.3,29.3,0,0,0,318.72,22.7h1.872V28.68c-2.376.612-4.536,1.152-6.3,1.512l1.224,5c1.548-.432,3.276-.936,5.076-1.476v11.7h4.788v-13.1l2.808-.864v1.8h3.744l-2.808,1.764a31.761,31.761,0,0,1,3.924,5.544l4.1-2.7a30.185,30.185,0,0,0-3.564-4.608h6.084V39.66c0,.468-.18.576-.756.576s-2.556,0-4.1-.072a19.469,19.469,0,0,1,1.548,5.184c2.7,0,4.824-.108,6.444-.9s2.052-2.2,2.052-4.68V33.252h3.276V28.464h-3.276V25.8Zm10.476,2.7h2.3v3.744h-2.3Zm2.3-8.424v3.636h-2.3V20.076Zm7.308,0v3.636H366.2V20.076Zm7.344,0v3.636H373.62V20.076Zm-7.344,12.168H366.2V28.5h2.448ZM373.62,28.5H376v3.744H373.62Zm10.908,3.744h-3.24V15.252H373.62V11.076h-4.968v4.176H366.2V11.076h-4.86v4.176H354V32.244h-3.528v4.932h9.18a38.467,38.467,0,0,1-9.324,4.392,42.378,42.378,0,0,1,4.14,3.78,45.794,45.794,0,0,0,11.268-5.9l-3.312-2.268h9.612l-2.628,2.412a70.885,70.885,0,0,1,9.54,5.688l4.9-3.492a91.148,91.148,0,0,0-8.568-4.608h9.252Zm34.74-2.952c0-8.172-5.8-14.508-14.976-14.508-9.612,0-16.992,7.272-16.992,15.84,0,6.156,3.384,10.98,7.848,10.98,4.248,0,7.488-4.824,9.612-12.024a71.65,71.65,0,0,0,2.124-9.4c4.14.972,6.408,4.284,6.408,8.928,0,4.752-3.06,7.956-7.632,9.072a27.394,27.394,0,0,1-3.528.648l3.312,5.184C414.8,42.432,419.268,36.888,419.268,29.292Zm-26.316.756a10.734,10.734,0,0,1,7.992-9.72,53.44,53.44,0,0,1-1.836,8.1c-1.3,4.176-2.376,6.372-3.816,6.372C394.032,34.8,392.952,33.18,392.952,30.048ZM452.532,15.4l-6.516-2.268a28.937,28.937,0,0,1-.936,3.672,38.747,38.747,0,0,1-3.528,7.848c-2.952-2.124-6.48-4.5-9.252-6.192l-3.744,4.464a98.763,98.763,0,0,1,9.468,6.624A38.222,38.222,0,0,1,424.7,39.768l4.9,4.428a45.136,45.136,0,0,0,13-10.836,74.86,74.86,0,0,1,7.7,7.776l4.5-5.04a91.855,91.855,0,0,0-8.5-7.812A57.346,57.346,0,0,0,450.84,19,32.4,32.4,0,0,1,452.532,15.4Zm13.932-1.332-4.14,4.428a75.034,75.034,0,0,1,9.036,7.884l4.464-4.572A72.636,72.636,0,0,0,466.464,14.064Zm-5.328,23.9,3.708,5.76a38.416,38.416,0,0,0,12.888-4.752,38.93,38.93,0,0,0,14-13.644l-3.384-6.156a34.787,34.787,0,0,1-13.752,14.4A37.046,37.046,0,0,1,461.136,37.968Zm60.732-25.056-3.384,1.368a48.772,48.772,0,0,1,2.772,5l3.42-1.44C524.028,16.584,522.768,14.244,521.868,12.912Zm4.428-1.728-3.384,1.368a40.155,40.155,0,0,1,2.844,4.968l3.384-1.44A51.388,51.388,0,0,0,526.3,11.184Zm-26.388,19.4A43.892,43.892,0,0,1,494.256,40.7l6.156,2.592A49.437,49.437,0,0,0,505.7,32.784,86.713,86.713,0,0,0,508.656,22.2c.144-.828.648-2.988.972-4.14l-6.372-1.332A52.08,52.08,0,0,1,499.908,30.588Zm17.784-.4a112.6,112.6,0,0,1,3.564,12.888l6.516-2.124c-1.008-3.744-2.916-9.612-4.1-12.708-1.26-3.276-3.816-9.144-5.364-12.024L512.472,18.1A99.788,99.788,0,0,1,517.692,30.192Zm14.9-5.472V31.6c1.476-.108,4.176-.216,6.228-.216H557.94c1.476,0,3.492.18,4.428.216V24.72c-1.044.072-2.808.252-4.428.252H538.824C537.06,24.972,534.036,24.828,532.6,24.72Zm-418.68,60.5H107.4c.144-1.332.252-2.808.4-4.464.108-.684.18-2.124.18-2.124H93.144l.468-2.34h13.032V71.824H94.4l.36-2.232-.4-.036h13.716v4.428h5.472V64.732H81.588v9.252h5.22V69.556h2.664c-.684,4.716-1.8,10.476-2.772,14.184l5.292.4.216-.972H102.4q-.108,1.08-.216,2.052H81.156V90h20.2a4.239,4.239,0,0,1-1.044,2.232,2.558,2.558,0,0,1-1.764.468c-1.044,0-3.456,0-5.76-.216a10.505,10.505,0,0,1,1.764,4.932,52.517,52.517,0,0,0,6.012-.072,5.764,5.764,0,0,0,4.14-1.836c.864-.9,1.512-2.556,2.052-5.508h7.164Zm25.776-10.26h-12.06v-1.08h12.06Zm0,3.888h-12.06v-1.08h12.06Zm0,3.888h-12.06V81.616h12.06Zm-9.036-11.808h-8.064v14.76H145.02V70.924H136.2V69.88h12.78V65.56H136.2V63.184h-5.544V65.56H118.488v4.32h12.168ZM149.664,90.9V86.656H117.408V90.9h8.748a39.461,39.461,0,0,1-9.072,3.024,36.98,36.98,0,0,1,3.564,3.564,42.083,42.083,0,0,0,10.872-4.14L128.136,90.9h9.9l-2.484,2.412a102.736,102.736,0,0,1,10.188,4.14L150.24,94c-2.088-.828-5.364-2.016-8.568-3.1Zm2.772-13.536,2.52,5.508c1.476-.684,3.636-1.836,6.084-3.1.252.576.5,1.188.756,1.8a109.793,109.793,0,0,1,4.788,15.048l6.012-1.512c-1.188-4.1-4.248-12.348-5.8-15.948-.252-.576-.5-1.188-.792-1.836,3.636-1.656,7.344-3.024,9.936-3.024,2.232,0,3.78,1.224,3.78,2.88,0,2.592-2.16,3.672-4.176,3.672a13.922,13.922,0,0,1-4.9-1.224l-.144,5.472a18.436,18.436,0,0,0,5.652,1.008c5.436,0,9.36-3.2,9.36-8.748,0-4.32-3.564-8.028-9.432-8.028a18.377,18.377,0,0,0-4.86.756L174,68.116a62.884,62.884,0,0,0-5.184-4.644l-4.032,2.772a57.3,57.3,0,0,1,4.68,4.392c-1.764.612-3.6,1.368-5.472,2.2-.5-1.044-.972-2.052-1.476-2.988-.4-.684-1.188-2.34-1.512-3.06l-5.652,2.2a36.6,36.6,0,0,1,2.34,3.456c.468.828.9,1.692,1.332,2.556-.9.4-1.764.756-2.664,1.116A30.023,30.023,0,0,1,152.436,77.368ZM195.384,65.92v5.616c1.08-.108,2.808-.144,4.032-.144h13.572c1.368,0,3.312.072,4.32.144V65.92a40.41,40.41,0,0,1-4.248.216H199.416A34.514,34.514,0,0,1,195.384,65.92Zm25.2,11.016-3.852-2.412a8.387,8.387,0,0,1-3.024.432H196.572c-1.224,0-2.916-.108-4.572-.252V80.32c1.62-.144,3.672-.18,4.572-.18h16.38a14.135,14.135,0,0,1-3.348,5.22,24.677,24.677,0,0,1-12.384,6.156l4.356,4.932a25.758,25.758,0,0,0,18.216-17.784A13.985,13.985,0,0,1,220.584,76.936Zm4.68,2.52,2.7,5.508a71.484,71.484,0,0,0,12.168-4.86V90.652a48.6,48.6,0,0,1-.288,5.22h6.912a26.885,26.885,0,0,1-.36-5.22V76.468a69.283,69.283,0,0,0,9.612-7.7l-4.716-4.5A48.415,48.415,0,0,1,241,73.12,57.058,57.058,0,0,1,225.264,79.456ZM286.9,63.436l-3.528,1.44c.612.972,1.188,1.98,1.728,2.988a17.6,17.6,0,0,1-1.836.072H267.384c-1.188,0-3.564-.18-4.68-.324v6.156c.936-.072,2.916-.18,4.68-.18h15.84a20.223,20.223,0,0,1-3.96,9.288c-2.844,3.528-6.912,6.7-14.148,8.316l4.752,5.22A29.521,29.521,0,0,0,284.52,86.3c3.1-4.176,4.572-9.648,5.436-13.032a17.886,17.886,0,0,1,.936-2.88L288.3,68.728l1.3-.54A41.14,41.14,0,0,0,286.9,63.436Zm5.256-.936-3.564,1.44a38.9,38.9,0,0,1,2.844,4.86L295,67.288C294.348,66.064,293.088,63.868,292.152,62.5Zm31.536,27.936h-20.34V71.824h-5.076v25.6h5.076V95.368h20.34V97.42h5.076v-25.6h-5.076ZM317.6,78.7h-1.98V76.612h1.98Zm0,6.048h-1.98V82.624h1.98Zm-8.388-2.124h1.944v2.124h-1.944Zm0-6.012h1.944V78.7h-1.944Zm-12.06-11.34v4.86h13.572V72.4h-5.76V88.96h17.1V72.4H316.02V70.132h13.9v-4.86Zm41.436-2.052a38.673,38.673,0,0,1-6.8,13.5,40.546,40.546,0,0,1,2.448,5.76q.756-.918,1.512-1.944V97.384h4.968V71.644a69.616,69.616,0,0,0,2.7-6.984Zm9.468,10.8h3.6V76h-3.6Zm6.012-4.968a18.336,18.336,0,0,1-1.116,1.512h-4.68c.432-.5.828-1.008,1.224-1.512ZM360.408,76h-4.1V74.02h4.1Zm-9.72,17.172c-.36,0-.756,0-1.188-.036q1.728-1.026,3.348-2.16a3,3,0,0,1-.576,1.44A1.645,1.645,0,0,1,350.688,93.172Zm12.636-13.248a31.847,31.847,0,0,1-2.7,2.736q-.486-1.566-.864-3.24h5.652V70.564h-6.984c.828-1.08,1.584-2.232,2.232-3.276l-3.024-2.232-.936.288h-4.716c.252-.4.5-.828.72-1.224l-4.86-.9A22.1,22.1,0,0,1,341,71.1a12.131,12.131,0,0,1,2.376,1.62v6.7H348.1a37.817,37.817,0,0,1-6.444,2.484,29.7,29.7,0,0,1,2.772,3.348,40.272,40.272,0,0,0,4.968-2.268,4.314,4.314,0,0,0,.432.4,33.694,33.694,0,0,1-7.992,3.6,17.105,17.105,0,0,1,2.232,3.2,46.185,46.185,0,0,0,7.7-4.176,4.482,4.482,0,0,1,.36.72,35.249,35.249,0,0,1-10.836,5.616,17.14,17.14,0,0,1,2.664,3.636,37.669,37.669,0,0,0,4.5-2.268,11.579,11.579,0,0,1,.828,3.672c.828.072,1.692.072,2.412.072a5.326,5.326,0,0,0,4.032-1.656c2.628-2.448,2.844-10.044-2.88-14.9a21.135,21.135,0,0,0,1.944-1.476h.612c1.4,7.344,3.708,13.32,8.46,16.668a17.43,17.43,0,0,1,3.312-4.068,13.961,13.961,0,0,1-4.9-5.4,38.942,38.942,0,0,0,4.5-3.564Zm22.212-15.048-5.76-.468a22.653,22.653,0,0,1-.612,3.924h-1.4a47.392,47.392,0,0,1-6.48-.432v5.04c1.908.18,4.536.252,6.012.252a34.109,34.109,0,0,1-7.7,9.288l4.644,3.492A39.724,39.724,0,0,1,377.58,81.9a8.5,8.5,0,0,1,5.292-2.412,2.649,2.649,0,0,1,1.98.756c-4,2.088-8.28,5.076-8.28,9.792,0,4.788,4.248,6.336,10.152,6.336a87.933,87.933,0,0,0,10.4-.648l.18-5.616a54.221,54.221,0,0,1-10.476,1.116c-3.384,0-4.5-.612-4.5-2.124,0-1.44.972-2.628,3.24-3.96-.036,1.368-.108,2.7-.18,3.636h5.184c-.036-1.62-.108-4.032-.144-6.012,1.908-.828,3.672-1.512,5.04-2.052s3.636-1.368,4.9-1.728l-2.124-5.04c-1.548.756-3.024,1.44-4.608,2.124-1.26.576-2.448,1.044-3.888,1.728a5.206,5.206,0,0,0-4.788-2.52,17.533,17.533,0,0,0-3.564.36,27.207,27.207,0,0,0,1.4-2.556c3.816-.144,8.244-.468,11.592-.9l.036-5.04a83.117,83.117,0,0,1-9.684,1.008C385.14,66.784,385.392,65.668,385.536,64.876Zm19.224,12.24V82.84h33.552V77.116Zm42.264-2.988H448.9v.936h-1.872Zm1.872-7.02v.828h-1.872v-.828Zm3.888,3.456V71.5h-5.76v-.936Zm5.472,4.5h-5.22v-.936h4.248v-2.16a31.593,31.593,0,0,1,3.348,2.268c.18-.216.324-.432.5-.648v3.456H473.16V73.12h-11.7a21.208,21.208,0,0,0,1.512-2.52h11.052V66.64h-9.36c.288-.792.54-1.62.756-2.412l-4.644-1.044a20.821,20.821,0,0,1-3.492,7.668V67.936h-4.248v-.828h4.608V64.336H442.38v13.5h15.876Zm-7.488,12.672h13.248V88.6H450.768Zm0-3.276h13.248v.828H450.768Zm0-3.276h13.248v.828H450.768ZM465.312,93.1c-1.332,0-1.584-.072-1.584-1.008v-.9H469.2v-12.6H445.836v12.6h4.392c-.792,1.476-2.772,2.052-9.864,2.34a12.316,12.316,0,0,1,2.2,3.96c9.4-.828,11.952-2.664,12.924-6.3h3.132v.936c0,3.744,1.152,4.968,5.976,4.968h4.788c3.492,0,4.788-1.08,5.256-5.112a14.454,14.454,0,0,1-4.284-1.584c-.18,2.3-.4,2.7-1.476,2.7ZM477.8,68.764l.54,5.94A138.295,138.295,0,0,1,492.1,72.688,14.693,14.693,0,0,0,487.524,83.2c0,7.668,6.876,12.024,14.9,12.636l2.052-6.048c-6.228-.36-11.2-2.448-11.2-7.74,0-4.284,3.348-8.5,7.236-9.36a45.4,45.4,0,0,1,6.912-.432L507.4,66.64c-2.628.108-6.876.36-10.476.648-6.588.576-12.024,1.008-15.408,1.3C480.828,68.656,479.244,68.728,477.8,68.764ZM502.32,75.28l-3.132,1.3a28.921,28.921,0,0,1,2.736,4.932l3.2-1.4A47.709,47.709,0,0,0,502.32,75.28Zm4.068-1.728-3.1,1.4a30.148,30.148,0,0,1,2.916,4.788l3.168-1.512C508.656,76.936,507.324,74.848,506.388,73.552ZM67.152,142.076h2.772v1.836H67.152ZM59.7,127.82H53.94c.432-1.944.792-3.924,1.08-5.9h4.5v3.276h4.392v-2.448H65.64A19.605,19.605,0,0,1,59.7,129.8Zm-4.356,12.852h-1.98v-8.388h1.98Zm20.268-17.928v1.44L72.12,123.5a24.3,24.3,0,0,1-1.044,3.276H69.06a32.274,32.274,0,0,0,1.98-4.032Zm-5.688,10.008H67.152V131.06h2.772Zm0,5.58H67.152V136.5h2.772Zm10.476,5.58H74.712v-1.836h4.032v-3.744H74.712V136.5h4.032v-3.744H74.712V131.06h4.932v-4.284H75.756c.252-.5.5-1.044.792-1.584H80.22v-6.8H72.552c.216-.756.432-1.512.612-2.3l-4.968-.9a29.8,29.8,0,0,1-.828,3.2H60.06V117.2H46.92v4.716h3.168c-.72,5.652-2.052,10.944-4.5,14.4a27.954,27.954,0,0,1,2.736,5.076c.288-.4.576-.792.864-1.224v7.74h4.176v-2.772H59.7V131.492a27.536,27.536,0,0,1,2.448,2.952l.108-.072v15.084h4.9v-1.3H80.4Zm14.112-27.648H83.964v3.888H94.512ZM95.52,121.2H82.2v4.068H95.52Zm-.936,5.148H83.856v3.888H94.584ZM83.856,135.2H94.584v-3.888H83.856Zm6.48,8.316H88v-3.06h2.34Zm19.98-22.644c-.252,4.572-.54,6.444-.936,6.984a1.047,1.047,0,0,1-1.044.468c-.324,0-.72,0-1.188-.036l1.584-2.556c-.792-.468-1.728-.972-2.772-1.512a25.148,25.148,0,0,0,.756-3.348Zm6.624,24.948a27.263,27.263,0,0,0-3.852-9.144l-4.212,1.692A29.128,29.128,0,0,1,111,142.76a11.127,11.127,0,0,1-3.6-1.656c-.108,3.168-.252,3.6-.792,3.6H105.6c-.5,0-.54-.108-.54-1.188v-6.84a16.221,16.221,0,0,1,2.376,2.2l3.24-3.348A18.917,18.917,0,0,0,107.4,132.9a19.77,19.77,0,0,0,3.6-.216,3.625,3.625,0,0,0,2.556-1.548c.972-1.224,1.368-4.716,1.692-12.744.072-.576.072-1.836.072-1.836H96.96v4.32h5.076c-.108.5-.216,1.008-.36,1.512-.972-.36-1.944-.684-2.88-.936l-2.412,3.6c1.116.36,2.34.792,3.528,1.3a11.88,11.88,0,0,1-4.68,3.852,12.674,12.674,0,0,1,2.916,3.708,15.4,15.4,0,0,0,5.976-5.508c.792.468,1.512.9,2.124,1.332l.252-.4a13.9,13.9,0,0,1,.756,3.456,29.617,29.617,0,0,0-3.06-1.728l-2.988,3.024a30.178,30.178,0,0,1,3.1,2.016h-4.032v2.52l-3.816-1.008a18.547,18.547,0,0,1-1.8,6.84v-8.064H83.748V148.88H88v-1.3h6.66v-2.052l3.312,1.98a14.929,14.929,0,0,0,2.3-6.516v2.592c0,4.14.756,5.58,4.464,5.58h2.412c2.556,0,3.78-1.08,4.32-5.076a18.1,18.1,0,0,1,.9,3.6Zm2.664-25.056.54,5.94a138.295,138.295,0,0,1,13.752-2.016,14.693,14.693,0,0,0-4.572,10.512c0,7.668,6.876,12.024,14.9,12.636l2.052-6.048c-6.228-.36-11.2-2.448-11.2-7.74,0-4.284,3.348-8.5,7.236-9.36a45.4,45.4,0,0,1,6.912-.432l-.036-5.616c-2.628.108-6.876.36-10.476.648-6.588.576-12.024,1.008-15.408,1.3C122.628,120.656,121.044,120.728,119.6,120.764Zm24.516,6.516-3.132,1.3a28.921,28.921,0,0,1,2.736,4.932l3.2-1.4A47.712,47.712,0,0,0,144.12,127.28Zm4.068-1.728-3.1,1.4a30.149,30.149,0,0,1,2.916,4.788l3.168-1.512C150.456,128.936,149.124,126.848,148.188,125.552Zm10.116,1.584.288,5.112a140.851,140.851,0,0,0,15.552.072c.468.972.972,1.944,1.548,2.952-1.008-.072-2.772-.216-4.032-.324l-.432,4.14c2.7.288,6.912.792,8.928,1.152l2.556-3.924a11.835,11.835,0,0,1-1.764-2.052c-.468-.72-.972-1.584-1.44-2.484,1.908-.288,3.672-.612,5.292-1.008l-.864-5.148a45.4,45.4,0,0,1-6.7,1.44c-.18-.5-.36-.972-.5-1.368-.144-.432-.288-.828-.4-1.26a45.371,45.371,0,0,0,6.372-1.26l-.684-4.968a38.232,38.232,0,0,1-6.912,1.512c-.216-1.116-.432-2.268-.576-3.528l-5.832.612c.4,1.152.756,2.232,1.08,3.276a81.279,81.279,0,0,1-10.872-.576l.288,4.968a88.23,88.23,0,0,0,11.988.36c.144.5.36,1.08.576,1.764.108.288.216.576.324.9A103.259,103.259,0,0,1,158.3,127.136Zm7.848,8.712-5.4-1.008A12.588,12.588,0,0,0,159.1,141c.108,5.4,4.86,7.56,12.132,7.56a63.833,63.833,0,0,0,8.964-.684l.324-5.544a50.213,50.213,0,0,1-9.288.792c-4.284,0-6.732-.864-6.732-3.348A6.636,6.636,0,0,1,166.152,135.848Zm33.948,5.94c0-1.008,1.152-1.8,3.168-1.8a16.406,16.406,0,0,1,2.7.216c.036.432.036.792.036,1.044,0,1.836-1.008,2.34-2.844,2.34C201.288,143.588,200.1,142.976,200.1,141.788Zm11.2-25.2h-5.9a13.772,13.772,0,0,1,.252,2.628v1.224H204.42a67.917,67.917,0,0,1-8.712-.792l.108,4.932a82.978,82.978,0,0,0,8.64.648h1.152c-.036.972-.036,1.98-.036,2.952h-1.62a62.4,62.4,0,0,1-8.46-.684l.072,5.112c2.268.288,6.408.468,8.316.468h1.764c.036.828.072,1.692.108,2.52-.576-.036-1.152-.072-1.764-.072-5.724,0-9.18,2.736-9.18,6.588,0,4,3.132,6.408,9.216,6.408,4.752,0,7.488-2.3,7.488-5.688v-.72a27.483,27.483,0,0,1,6.444,4.68l3.132-4.86a27.367,27.367,0,0,0-9.864-5.364c-.072-1.224-.144-2.448-.216-3.6,3.42-.108,6.048-.324,9.216-.648l.036-5.112c-2.772.324-5.652.648-9.36.828,0-.936,0-1.944.036-2.988,3.456-.144,6.624-.432,8.784-.756l.036-4.968a80.683,80.683,0,0,1-8.748.936c0-.4.036-.756.036-1.044C211.08,118.352,211.188,117.344,211.3,116.588Zm38.052.108h-6.3c.108.54.252,1.872.4,3.6a1.614,1.614,0,0,0,.036.4c-4.644.072-11.016.216-15.192.18l.144,5.22c4.392-.216,9.72-.432,15.12-.5.036.612.036,1.224.036,1.836a7.229,7.229,0,0,0-.9-.036c-4.176,0-7.668,2.664-7.668,7.02a6.681,6.681,0,0,0,6.372,6.912,3.912,3.912,0,0,0,.648-.036c-2.124,1.656-5.112,2.52-8.244,3.168l4.644,4.644c9-2.448,11.988-8.712,11.988-13.32a9.264,9.264,0,0,0-1.4-5.148c0-1.512,0-3.348-.036-5.076,4.536.036,7.92.108,10.044.216l.072-5.148c-1.872-.036-6.7.036-10.044.036v-.4C249.1,119.612,249.24,117.38,249.348,116.7Zm-9.108,17.6a2.194,2.194,0,0,1,2.3-2.34,2.329,2.329,0,0,1,1.98.972c.4,2.736-.828,3.564-1.98,3.564A2.273,2.273,0,0,1,240.24,134.3Zm24.408,2.7a6.012,6.012,0,1,0,6.012,6.012A6.023,6.023,0,0,0,264.648,137Zm0,9a2.988,2.988,0,1,1,2.988-2.988A3,3,0,0,1,264.648,146Zm34.38-26.064v6.048c1.116-.072,3.132-.144,4.752-.144h15.588v13.68h-16.02c-1.692,0-3.348-.108-4.752-.216v6.228c1.3-.144,3.564-.252,4.932-.252h15.8c0,.576-.036,1.188-.036,1.8h6.336c-.108-1.4-.18-3.456-.18-4.68V123.716c0-1.188.072-2.772.108-3.636-.54.036-2.268.108-3.42.108H303.78C302.484,120.188,300.468,120.08,299.028,119.936Zm37.152,24.48,4.14,3.6a9.36,9.36,0,0,1,2.484-1.152c8.208-2.88,15.732-7.092,20.808-13.032l-3.1-4.968a42.434,42.434,0,0,1-17.82,11.7V122.816a28.273,28.273,0,0,1,.4-4.536h-6.84a23.763,23.763,0,0,1,.468,4.536v18.936A5.431,5.431,0,0,1,336.18,144.416Zm50.9-26.568-6.372-2.088a18.775,18.775,0,0,1-1.908,4.284,32.659,32.659,0,0,1-11.2,11.268l4.9,3.636a44.634,44.634,0,0,0,9.072-8.6h8.964a23.062,23.062,0,0,1-4.752,9c-3.06,3.42-6.8,6.48-14.58,8.856l5.184,4.608c6.768-2.772,11.124-6.084,14.616-10.368a37.738,37.738,0,0,0,6.228-11.808,16.1,16.1,0,0,1,1.4-2.952l-4.428-2.736a13.563,13.563,0,0,1-3.564.468h-5.8C385.392,120.476,386.256,119,387.084,117.848Zm25.884-.828-3.168,4.824c2.52,1.4,6.192,3.744,8.352,5.184l3.24-4.824C419.34,120.8,415.488,118.388,412.968,117.02Zm-7.38,25.452,3.276,5.76a43.329,43.329,0,0,0,26.64-17.424l-3.348-5.976a36.73,36.73,0,0,1-14.22,13.68A39.173,39.173,0,0,1,405.588,142.472Zm1.764-17.172-3.168,4.824c2.556,1.368,6.192,3.744,8.388,5.256l3.2-4.9A98.011,98.011,0,0,0,407.352,125.3Zm37.8.036v5.22c1.008-.072,3.348-.144,4.9-.144h11.088v3.42h-10.62c-1.44,0-3.276-.036-4.356-.108v5.112c.936-.072,2.916-.072,4.356-.072h10.62v3.852H448a31.985,31.985,0,0,1-3.2-.144v5.292c.612-.036,2.2-.108,3.168-.108h13.176c0,.54-.036,1.08-.036,1.4h5.472c0-.684-.036-2.16-.036-2.736V128.216c0-.792,0-2.232.036-2.772-.612.036-2.2.072-3.06.072H450.048C448.5,125.516,446.232,125.444,445.152,125.336Zm37.512-7.272-4.14,4.428a75.033,75.033,0,0,1,9.036,7.884l4.464-4.572A72.636,72.636,0,0,0,482.664,118.064Zm-5.328,23.9,3.708,5.76a38.416,38.416,0,0,0,12.888-4.752,38.93,38.93,0,0,0,14-13.644l-3.384-6.156a34.787,34.787,0,0,1-13.752,14.4A37.046,37.046,0,0,1,477.336,141.968Zm50.4-25.092-5.76-.468a22.659,22.659,0,0,1-.612,3.924h-1.4a47.391,47.391,0,0,1-6.48-.432v5.04c1.908.18,4.536.252,6.012.252a34.109,34.109,0,0,1-7.7,9.288l4.644,3.492a39.719,39.719,0,0,1,3.348-4.068,8.5,8.5,0,0,1,5.292-2.412,2.649,2.649,0,0,1,1.98.756c-4,2.088-8.28,5.076-8.28,9.792,0,4.788,4.248,6.336,10.152,6.336a87.932,87.932,0,0,0,10.4-.648l.18-5.616a54.219,54.219,0,0,1-10.476,1.116c-3.384,0-4.5-.612-4.5-2.124,0-1.44.972-2.628,3.24-3.96-.036,1.368-.108,2.7-.18,3.636h5.184c-.036-1.62-.108-4.032-.144-6.012,1.908-.828,3.672-1.512,5.04-2.052s3.636-1.368,4.9-1.728l-2.124-5.04c-1.548.756-3.024,1.44-4.608,2.124-1.26.576-2.448,1.044-3.888,1.728a5.206,5.206,0,0,0-4.788-2.52,17.533,17.533,0,0,0-3.564.36,27.214,27.214,0,0,0,1.4-2.556c3.816-.144,8.244-.468,11.592-.9l.036-5.04a83.116,83.116,0,0,1-9.684,1.008C527.34,118.784,527.592,117.668,527.736,116.876ZM125.58,179.28h15.588v1.908H125.58Zm0-6.084h15.588v1.872H125.58ZM150.2,189.144H136.056V185.76H146.6V168.624H120.432V185.76h10.224v3.384h-13.68v4.968h13.68v7.236h5.4v-7.236H150.2Zm29.376-9.5v2.3h-2.916v-2.3Zm-10.728,0h2.736v2.3h-2.736Zm2.736-3.924h-7.524v10.116h5.22a19.434,19.434,0,0,1-7.344,4.86,20.373,20.373,0,0,1,3.312,3.96,20.89,20.89,0,0,0,6.336-5.112v5.436h5.076v-5.148a26.105,26.105,0,0,0,6.192,4.752,21.276,21.276,0,0,1,3.528-4.1,27.072,27.072,0,0,1-7.992-4.644h6.264V175.716h-7.992v-1.4h9v-4.32h-9v-2.736h-5.076v2.736h-8.46v4.32h8.46Zm-8.964-2.3a30.8,30.8,0,0,0-5.9-5.364l-3.888,3.132a28.7,28.7,0,0,1,5.616,5.688Zm-.828,7.74h-8.82v4.824h3.708v6.7a51.6,51.6,0,0,1-4.644,2.916l2.52,5.472c1.944-1.548,3.456-2.844,4.932-4.14,2.376,2.772,5.22,3.672,9.5,3.852,4.5.216,11.664.144,16.236-.108a26.337,26.337,0,0,1,1.656-5.328,167.289,167.289,0,0,1-17.784.4c-3.528-.144-5.976-1.044-7.308-3.276Zm36.288-6.408a26.3,26.3,0,0,0-5.724-5.256l-3.6,2.988a26.544,26.544,0,0,1,5.472,5.616Zm9.576,1.656h-4.608v-1.728h4.608Zm-4.608,3.636h4.608V181.8h-4.608ZM221.664,192.2v-4.5H208.128v-1.98h4.608v-3.888a48.862,48.862,0,0,1,6.7,4.464l3.24-3.924a62.818,62.818,0,0,0-8.388-4.86l-1.548,1.8v-4.1l3.06,2.016a51.329,51.329,0,0,0,5.94-5.544l-4.5-2.7a35.993,35.993,0,0,1-4.5,4.968v-3.2H207.66c.4-.9.792-1.908,1.188-2.952l-5.9-.612a27.731,27.731,0,0,1-.648,3.564h-4.068v10.728L197,177.84c-3.168,1.656-6.372,3.312-8.568,4.284l2.592,4.32c2.2-1.26,4.824-2.844,7.2-4.32v3.6H202.8v1.98H189.408v4.5h9.18a34.528,34.528,0,0,1-10.3,4.68,25.391,25.391,0,0,1,3.492,4.356,32.665,32.665,0,0,0,11.016-6.588v6.732h5.328v-6.732a36.693,36.693,0,0,0,11.124,6.3,22.569,22.569,0,0,1,3.492-4.392,37.274,37.274,0,0,1-10.3-4.356Zm15.84-23.04-7.02-.072a26.572,26.572,0,0,1,.54,5.544c0,2.7-.324,12.348-.324,16.884,0,6.3,3.924,9.144,10.224,9.144a19.059,19.059,0,0,0,15.984-8.424l-3.96-4.86c-2.628,4.032-6.408,7.308-11.988,7.308-2.448,0-4.428-1.08-4.428-4.536,0-3.96.252-11.736.432-15.516C237.036,173.052,237.252,170.856,237.5,169.164Zm29.484,1.116.216,5.58c.972-.144,2.376-.288,3.1-.324,1.62-.108,4.032-.18,5.472-.216-.684,1.4-1.548,3.492-2.412,5.508-7.308.432-12.492,4.824-12.492,10.512,0,4.032,2.592,6.336,6.012,6.336a6.856,6.856,0,0,0,6.228-3.528,68.506,68.506,0,0,0,3.816-8.172,23.437,23.437,0,0,1,7.524,2.664c-1.26,2.952-3.744,6.12-9,8.388l4.68,3.78a18.674,18.674,0,0,0,8.892-9.18c.972.756,1.872,1.512,2.736,2.3l2.52-6.084c-.972-.648-2.16-1.4-3.564-2.232a56.333,56.333,0,0,0,.648-6.48l-5.724-.648a23.845,23.845,0,0,1,.036,4.284c0,.108-.036.252-.036.4a31.857,31.857,0,0,0-6.66-1.98,74.358,74.358,0,0,1,3.348-7.236,9.977,9.977,0,0,1,1.368-1.656l-3.456-2.7a10.394,10.394,0,0,1-2.844.612c-1.764.144-5.076.252-7.236.252C269.364,170.46,268,170.388,266.988,170.28Zm-1.044,20.2c0-1.836,1.872-3.852,5.184-4.536a36.987,36.987,0,0,1-2.3,4.752c-.612.864-1.044,1.224-1.692,1.224C266.448,191.916,265.944,191.448,265.944,190.476Zm40.356,3.312c0-1.008,1.152-1.8,3.168-1.8a16.406,16.406,0,0,1,2.7.216c.036.432.036.792.036,1.044,0,1.836-1.008,2.34-2.844,2.34C307.488,195.588,306.3,194.976,306.3,193.788Zm11.2-25.2h-5.9a13.773,13.773,0,0,1,.252,2.628v1.224H310.62a67.916,67.916,0,0,1-8.712-.792l.108,4.932a82.98,82.98,0,0,0,8.64.648h1.152c-.036.972-.036,1.98-.036,2.952h-1.62a62.4,62.4,0,0,1-8.46-.684l.072,5.112c2.268.288,6.408.468,8.316.468h1.764c.036.828.072,1.692.108,2.52-.576-.036-1.152-.072-1.764-.072-5.724,0-9.18,2.736-9.18,6.588,0,4,3.132,6.408,9.216,6.408,4.752,0,7.488-2.3,7.488-5.688v-.72a27.483,27.483,0,0,1,6.444,4.68l3.132-4.86a27.368,27.368,0,0,0-9.864-5.364c-.072-1.224-.144-2.448-.216-3.6,3.42-.108,6.048-.324,9.216-.648l.036-5.112c-2.772.324-5.652.648-9.36.828,0-.936,0-1.944.036-2.988,3.456-.144,6.624-.432,8.784-.756l.036-4.968a80.682,80.682,0,0,1-8.748.936c0-.4.036-.756.036-1.044C317.28,170.352,317.388,169.344,317.5,168.588Zm28.008.576-7.02-.072a26.573,26.573,0,0,1,.54,5.544c0,2.7-.324,12.348-.324,16.884,0,6.3,3.924,9.144,10.224,9.144a19.058,19.058,0,0,0,15.984-8.424l-3.96-4.86c-2.628,4.032-6.408,7.308-11.988,7.308-2.448,0-4.428-1.08-4.428-4.536,0-3.96.252-11.736.432-15.516C345.036,173.052,345.252,170.856,345.5,169.164ZM378.7,194.8c0-.9.864-1.548,2.808-1.548a11.836,11.836,0,0,1,1.944.18v.54c0,1.62-.648,2.34-2.088,2.34C379.812,196.308,378.7,195.66,378.7,194.8Zm9.9-19.908h-5.868a20.429,20.429,0,0,1,.324,3.924v4.716c0,1.548.108,3.492.216,5.436-.36-.036-.72-.036-1.08-.036-5.364,0-8.46,2.448-8.46,6.156,0,4.14,3.888,6.084,8.316,6.084,5.328,0,6.8-2.628,6.8-5.436v-.144a29.784,29.784,0,0,1,5.22,4.428l2.988-4.716a24.392,24.392,0,0,0-8.5-5.22c-.108-1.98-.252-4-.288-5.436,2.376-.072,5.76-.18,8.064-.36l-.144-4.824c-2.268.252-5.58.4-7.92.468V178.74A24.837,24.837,0,0,1,388.6,174.888Zm38.844,11.448c0,5.184-5.508,7.812-14.544,8.784l3.1,5.472c10.4-1.368,17.64-6.372,17.64-14.04,0-5.9-4.1-9.36-10.116-9.36a48.978,48.978,0,0,0-10.98,1.584,39.493,39.493,0,0,1-4.284.648l1.62,6.192c1.116-.432,2.736-1.08,3.744-1.368a30.969,30.969,0,0,1,9.108-1.728C425.928,182.52,427.44,184.32,427.44,186.336Zm-13.608-17.892-.828,5.22c4.176.72,12.312,1.44,16.632,1.728l.864-5.364A108.535,108.535,0,0,1,413.832,168.444Zm41.436,19.98h4.464l1.08-11.376.216-5.976h-7.056l.216,5.976Zm2.232,10.008a3.556,3.556,0,0,0,3.672-3.672,3.673,3.673,0,0,0-7.344,0A3.535,3.535,0,0,0,457.5,198.432Z" transform="translate(79.044 9378.036)" fill="url(#linear-gradient)"/>
    <text id="SBI_Web3ウォレットにログインし_アカウントにアクセス" data-name="SBI Web3ウォレットにログインし、アカウントにアクセス" transform="translate(325 7982.768)" fill="#252525" font-size="28" font-family="NotoSansJP-Bold, Noto Sans JP" font-weight="700"><tspan x="0" y="32">SBI Web3</tspan><tspan y="32">ウォレットにロ</tspan><tspan x="0" y="73">グインし、アカウントにア</tspan><tspan x="0" y="114">クセス</tspan></text>
    <text id="口座開設と10_000円入金が完了した後_SBI_VCトレードから自動的にNFTが送信され_ウォレット内で受け取ることができます_" data-name="口座開設と10,000円入金が完了した後、SBI VCトレードから自動的にNFTが送信され、ウォレット内で受け取ることができます。" transform="translate(325 8511.32)" fill="#252525" font-size="28" font-family="NotoSansJP-Bold, Noto Sans JP" font-weight="700"><tspan x="0" y="32">口座開設</tspan><tspan y="32">と10,000</tspan><tspan y="32">円入金</tspan><tspan y="32">が</tspan><tspan x="0" y="73">完了</tspan><tspan y="73">した</tspan><tspan y="73">後、</tspan><tspan y="73">SBI VC</tspan><tspan y="73">トレー</tspan><tspan x="0" y="114">ドから</tspan><tspan y="114">自動的</tspan><tspan y="114">に</tspan><tspan y="114">NFT</tspan><tspan y="114">が</tspan><tspan y="114">送信</tspan><tspan x="0" y="155">され、ウォレット</tspan><tspan y="155">内</tspan><tspan y="155">で</tspan><tspan y="155">受</tspan><tspan y="155">け</tspan><tspan x="0" y="196">取</tspan><tspan y="196">ることができます。</tspan></text>
    <text id="ウォレットの_NFT管理_画面から配布されたNFTを確認し_コレクションとして一覧表示されます_" data-name="ウォレットの「NFT管理」画面から配布されたNFTを確認し、コレクションとして一覧表示されます。" transform="translate(325 9040.32)" fill="#252525" font-size="28" font-family="NotoSansJP-Bold, Noto Sans JP" font-weight="700"><tspan x="0" y="32">ウォレットの</tspan><tspan y="32">「NFT</tspan><tspan y="32">管理」</tspan><tspan x="0" y="73">画面</tspan><tspan y="73">から</tspan><tspan y="73">配布</tspan><tspan y="73">された</tspan><tspan y="73">NFT</tspan><tspan y="73">を</tspan><tspan x="0" y="114">確認</tspan><tspan y="114">し、コレクションとし</tspan><tspan x="0" y="155">て</tspan><tspan y="155">一覧表示</tspan><tspan y="155">されます。</tspan></text>
    <path id="パス_379" data-name="パス 379" d="M51.307,0,42.955,9.344,31.667,3.895,27.542,15.732l-12.515-.7.7,12.515L3.895,31.667,9.344,42.955,0,51.307l9.344,8.352L3.895,70.947l11.837,4.124-.7,12.515,12.515-.7,4.124,11.838L42.955,93.27l8.352,9.344,8.352-9.344,11.288,5.449,4.124-11.838,12.515.7-.7-12.515,11.837-4.124L93.27,59.659l9.344-8.352L93.27,42.955l5.449-11.288L86.882,27.543l.7-12.515-12.515.7L70.947,3.895,59.659,9.344Z" transform="translate(316.386 7847.465)" fill="#2d3138"/>
    <path id="パス_380" data-name="パス 380" d="M51.307,0,42.955,9.344,31.667,3.895,27.542,15.732l-12.515-.7.7,12.515L3.895,31.667,9.344,42.955,0,51.307l9.344,8.352L3.895,70.947l11.837,4.124-.7,12.515,12.515-.7,4.124,11.838L42.955,93.27l8.352,9.344,8.352-9.344,11.288,5.449,4.124-11.838,12.515.7-.7-12.515,11.837-4.124L93.27,59.659l9.344-8.352L93.27,42.955l5.449-11.288L86.882,27.543l.7-12.515-12.515.7L70.947,3.895,59.659,9.344Z" transform="translate(316.386 8376.019)" fill="#2d3138"/>
    <path id="パス_381" data-name="パス 381" d="M51.307,0,42.955,9.344,31.667,3.895,27.542,15.732l-12.515-.7.7,12.515L3.895,31.667,9.344,42.955,0,51.307l9.344,8.352L3.895,70.947l11.837,4.124-.7,12.515,12.515-.7,4.124,11.838L42.955,93.27l8.352,9.344,8.352-9.344,11.288,5.449,4.124-11.838,12.515.7-.7-12.515,11.837-4.124L93.27,59.659l9.344-8.352L93.27,42.955l5.449-11.288L86.882,27.543l.7-12.515-12.515.7L70.947,3.895,59.659,9.344Z" transform="translate(316.386 8905.019)" fill="#2d3138"/>
    <text id="_01" data-name="#
01" transform="translate(367.645 7893.82)" fill="#fff" font-size="24" font-family="Helvetica-Bold, Helvetica" font-weight="700"><tspan x="-6.674" y="0">#</tspan><tspan y="0" font-family="Blippo-Black, Blippo MN" font-weight="800"></tspan><tspan font-size="30" font-family="Blippo-Black, Blippo MN" font-weight="800"><tspan x="-15.66" y="27">01</tspan></tspan></text>
    <text id="_02" data-name="#
02" transform="translate(367.645 8422.374)" fill="#fff" font-size="24" font-family="Helvetica-Bold, Helvetica" font-weight="700"><tspan x="-6.674" y="0">#</tspan><tspan y="0" font-family="Blippo-Black, Blippo MN" font-weight="800"></tspan><tspan font-size="30" font-family="Blippo-Black, Blippo MN" font-weight="800"><tspan x="-19.785" y="27">02</tspan></tspan></text>
    <text id="_03" data-name="#
03" transform="translate(367.645 8951.374)" fill="#fff" font-size="24" font-family="Helvetica-Bold, Helvetica" font-weight="700"><tspan x="-6.674" y="0">#</tspan><tspan y="0" font-family="Blippo-Black, Blippo MN" font-weight="800"></tspan><tspan font-size="30" font-family="Blippo-Black, Blippo MN" font-weight="800"><tspan x="-18.18" y="27">03</tspan></tspan></text>
    <g id="グループ_85" data-name="グループ 85" transform="translate(80 7847.469)">
      <g id="グループ_84" data-name="グループ 84" transform="translate(0 -0.004)" clip-path="url(#clip-path)">
        <path id="パス_345" data-name="パス 345" d="M29.268,0H165.389a29.268,29.268,0,0,1,29.268,29.268V361.772a29.269,29.269,0,0,1-29.268,29.268H29.268A29.269,29.269,0,0,1,0,361.772V29.265A29.268,29.268,0,0,1,29.268,0" transform="translate(0 0.003)" fill="#454343" fill-rule="evenodd"/>
        <path id="パス_346" data-name="パス 346" d="M102.663,86.633H237.714a21.693,21.693,0,0,1,21.663,21.723v329.16a21.694,21.694,0,0,1-21.663,21.723H102.663A21.694,21.694,0,0,1,81,437.516V108.356a21.693,21.693,0,0,1,21.663-21.723" transform="translate(-72.86 -77.927)" fill="#fff" fill-rule="evenodd"/>
        <path id="パス_347" data-name="パス 347" d="M573.709,52.828h72.433a3.846,3.846,0,0,1,3.846,3.845v5.45a3.846,3.846,0,0,1-3.846,3.845H573.709a3.846,3.846,0,0,1-3.846-3.845v-5.45a3.846,3.846,0,0,1,3.846-3.845" transform="translate(-512.597 -47.519)" fill="#454343" fill-rule="evenodd"/>
      </g>
    </g>
    <g id="グループ_125" data-name="グループ 125" transform="translate(80 8376.022)">
      <g id="グループ_84-2" data-name="グループ 84" transform="translate(0 -0.004)" clip-path="url(#clip-path)">
        <path id="パス_345-2" data-name="パス 345" d="M29.268,0H165.389a29.268,29.268,0,0,1,29.268,29.268V361.772a29.269,29.269,0,0,1-29.268,29.268H29.268A29.269,29.269,0,0,1,0,361.772V29.265A29.268,29.268,0,0,1,29.268,0" transform="translate(0 0.003)" fill="#454343" fill-rule="evenodd"/>
        <path id="パス_346-2" data-name="パス 346" d="M102.663,86.633H237.714a21.693,21.693,0,0,1,21.663,21.723v329.16a21.694,21.694,0,0,1-21.663,21.723H102.663A21.694,21.694,0,0,1,81,437.516V108.356a21.693,21.693,0,0,1,21.663-21.723" transform="translate(-72.86 -77.927)" fill="#fff" fill-rule="evenodd"/>
        <path id="パス_347-2" data-name="パス 347" d="M573.709,52.828h72.433a3.846,3.846,0,0,1,3.846,3.845v5.45a3.846,3.846,0,0,1-3.846,3.845H573.709a3.846,3.846,0,0,1-3.846-3.845v-5.45a3.846,3.846,0,0,1,3.846-3.845" transform="translate(-512.597 -47.519)" fill="#454343" fill-rule="evenodd"/>
      </g>
    </g>
    <g id="グループ_126" data-name="グループ 126" transform="translate(80 8905.022)">
      <g id="グループ_84-3" data-name="グループ 84" transform="translate(0 -0.004)" clip-path="url(#clip-path)">
        <path id="パス_345-3" data-name="パス 345" d="M29.268,0H165.389a29.268,29.268,0,0,1,29.268,29.268V361.772a29.269,29.269,0,0,1-29.268,29.268H29.268A29.269,29.269,0,0,1,0,361.772V29.265A29.268,29.268,0,0,1,29.268,0" transform="translate(0 0.003)" fill="#454343" fill-rule="evenodd"/>
        <path id="パス_346-3" data-name="パス 346" d="M102.663,86.633H237.714a21.693,21.693,0,0,1,21.663,21.723v329.16a21.694,21.694,0,0,1-21.663,21.723H102.663A21.694,21.694,0,0,1,81,437.516V108.356a21.693,21.693,0,0,1,21.663-21.723" transform="translate(-72.86 -77.927)" fill="#fff" fill-rule="evenodd"/>
        <path id="パス_347-3" data-name="パス 347" d="M573.709,52.828h72.433a3.846,3.846,0,0,1,3.846,3.845v5.45a3.846,3.846,0,0,1-3.846,3.845H573.709a3.846,3.846,0,0,1-3.846-3.845v-5.45a3.846,3.846,0,0,1,3.846-3.845" transform="translate(-512.597 -47.519)" fill="#454343" fill-rule="evenodd"/>
      </g>
    </g>
    <path id="多角形_11" data-name="多角形 11" d="M33.928,2.135a2,2,0,0,1,3.2,0L68.658,44.194a2,2,0,0,1-1.6,3.2H4a2,2,0,0,1-1.6-3.2Z" transform="translate(410.056 8326.072) rotate(180)" fill="url(#linear-gradient-2)"/>
    <path id="多角形_18" data-name="多角形 18" d="M33.928,2.135a2,2,0,0,1,3.2,0L68.658,44.194a2,2,0,0,1-1.6,3.2H4a2,2,0,0,1-1.6-3.2Z" transform="translate(410.056 8855.072) rotate(180)" fill="url(#linear-gradient-3)"/>
  </g>
</svg>
