<svg xmlns="http://www.w3.org/2000/svg" xmlns:xlink="http://www.w3.org/1999/xlink" width="39.904" height="23.808" viewBox="0 0 39.904 23.808">
  <defs>
    <linearGradient id="linear-gradient" x1="0.129" x2="0.839" y2="0.864" gradientUnits="objectBoundingBox">
      <stop offset="0" stop-color="#eda3ff"/>
      <stop offset="1" stop-color="#a09eff"/>
    </linearGradient>
  </defs>
  <path id="パス_369" data-name="パス 369" d="M-5.856,1.952V.16A11.542,11.542,0,0,0,2.3-10.88,11.16,11.16,0,0,0-8.864-21.856a11.167,11.167,0,0,0-11.2,10.976A11.6,11.6,0,0,0-11.84.16V1.952ZM-11.68-6.624a5.031,5.031,0,0,1-2.144-4.192A5.075,5.075,0,0,1-8.864-15.9,5.13,5.13,0,0,1-3.84-10.816,5.137,5.137,0,0,1-6.048-6.624V-8.992H-11.68ZM19.84,0V-5.984H16.288c1.952-3.9,3.392-5.76,3.392-8.32a7.405,7.405,0,0,0-7.648-7.232A7.448,7.448,0,0,0,4.9-14.176C4.9-11.52,6.624-8.736,8.48-7.9l2.752-4.864a1.2,1.2,0,0,1-.576-.992c0-1.088.512-1.632,1.44-1.632.832,0,1.44.544,1.44,1.664a1.34,1.34,0,0,1-.256.672L6.176,0Z" transform="translate(20.064 21.856)" fill="url(#linear-gradient)"/>
</svg>
