<svg xmlns="http://www.w3.org/2000/svg" xmlns:xlink="http://www.w3.org/1999/xlink" width="252.023" height="56.896" viewBox="0 0 252.023 56.896">
  <defs>
    <clipPath id="clip-path">
      <rect id="長方形_1675" data-name="長方形 1675" width="252.023" height="56.896" fill="none"/>
    </clipPath>
  </defs>
  <g id="グループ_134" data-name="グループ 134" clip-path="url(#clip-path)">
    <path id="パス_402" data-name="パス 402" d="M128.911,61.188,123.73,35.327H127.5l3.2,18.787q.388,2.26.561,4.234,1.021-2.117,2.243-4.234l10.768-18.787h3.558L132.487,61.188Z" transform="translate(-17.827 -5.09)" fill="#fff"/>
    <path id="パス_403" data-name="パス 403" d="M169.266,52.046l3.318.864a14.994,14.994,0,0,1-5.195,6.43A12.906,12.906,0,0,1,160,61.553a11.055,11.055,0,0,1-6.6-1.7,8.172,8.172,0,0,1-3.1-4.931,16.31,16.31,0,0,1-.045-6.932,17.719,17.719,0,0,1,2.943-7.048,14.15,14.15,0,0,1,5.362-4.569,15.1,15.1,0,0,1,6.692-1.561,9.33,9.33,0,0,1,6.265,1.975,8.055,8.055,0,0,1,2.676,5.557l-3.586.793a6.287,6.287,0,0,0-1.862-4.11,6.127,6.127,0,0,0-4.134-1.288A9.872,9.872,0,0,0,155.641,43a17.508,17.508,0,0,0-1.792,4.966,14.868,14.868,0,0,0-.14,5.759,5.518,5.518,0,0,0,2.332,3.678,7.474,7.474,0,0,0,4.238,1.217,8.951,8.951,0,0,0,5.282-1.658,10.946,10.946,0,0,0,3.706-4.922" transform="translate(-21.598 -5.016)" fill="#fff"/>
    <path id="パス_404" data-name="パス 404" d="M195.1,61.187l4.434-22.808h-8.68l.593-3.052h20.882l-.593,3.052h-8.716l-4.434,22.808Z" transform="translate(-27.498 -5.09)" fill="#fff"/>
    <path id="パス_405" data-name="パス 405" d="M211.007,62.316l3.641-18.734h2.912l-.552,2.841a10.35,10.35,0,0,1,2.569-2.629,4.242,4.242,0,0,1,2.2-.635,5.444,5.444,0,0,1,3.126,1.023l-1.687,2.946a4.017,4.017,0,0,0-2.238-.688,3.67,3.67,0,0,0-2.027.627,4.461,4.461,0,0,0-1.541,1.738,13.873,13.873,0,0,0-1.259,3.7l-1.907,9.808Z" transform="translate(-30.403 -6.219)" fill="#fff"/>
    <path id="パス_406" data-name="パス 406" d="M239,60.005a15.516,15.516,0,0,1-3.871,2.117,11.183,11.183,0,0,1-3.687.618q-3.144,0-4.541-1.509a4.177,4.177,0,0,1-.94-3.854,6.038,6.038,0,0,1,1.126-2.514,6.941,6.941,0,0,1,2.026-1.826A9.783,9.783,0,0,1,231.647,52a25.817,25.817,0,0,1,2.968-.476,33.491,33.491,0,0,0,5.981-1.094c.1-.435.156-.711.179-.829a3.038,3.038,0,0,0-.384-2.734,4.675,4.675,0,0,0-3.475-1.077,6.6,6.6,0,0,0-3.523.786,6.212,6.212,0,0,0-2.148,2.778l-3.081-.424a9.7,9.7,0,0,1,2.046-3.219,8.044,8.044,0,0,1,3.224-1.887,14.118,14.118,0,0,1,4.46-.662,10.72,10.72,0,0,1,3.861.564,4.025,4.025,0,0,1,1.97,1.42,4.115,4.115,0,0,1,.586,2.161,17.848,17.848,0,0,1-.407,2.928l-.823,4.234a45.646,45.646,0,0,0-.882,5.6,6.05,6.05,0,0,0,.381,2.249H239.2a5.967,5.967,0,0,1-.2-2.311m1.108-7.091a27.28,27.28,0,0,1-5.516,1.2,14.121,14.121,0,0,0-2.945.635,3.7,3.7,0,0,0-1.476,1.032,3.235,3.235,0,0,0-.742,1.508A2.259,2.259,0,0,0,230,59.406a3.635,3.635,0,0,0,2.7.847,7.7,7.7,0,0,0,3.481-.8,6.616,6.616,0,0,0,2.565-2.2,8.714,8.714,0,0,0,1.138-3.175Z" transform="translate(-32.542 -6.219)" fill="#fff"/>
    <path id="パス_407" data-name="パス 407" d="M261.987,61.187l.459-2.363a7.39,7.39,0,0,1-5.878,2.787,6.477,6.477,0,0,1-3.956-1.235,6.215,6.215,0,0,1-2.3-3.448,11.01,11.01,0,0,1-.062-5.089,15.228,15.228,0,0,1,1.941-5.089,9.82,9.82,0,0,1,3.538-3.5,8.964,8.964,0,0,1,4.5-1.217,5.669,5.669,0,0,1,2.934.715,4.807,4.807,0,0,1,1.83,1.861l1.8-9.279h3.217l-5.027,25.861Zm-8.408-9.349q-.7,3.6.5,5.38A3.771,3.771,0,0,0,257.38,59a5.655,5.655,0,0,0,3.935-1.7,9.381,9.381,0,0,0,2.492-5.2q.747-3.845-.413-5.645a3.766,3.766,0,0,0-3.37-1.8,5.545,5.545,0,0,0-3.94,1.729,10.113,10.113,0,0,0-2.505,5.45" transform="translate(-36.019 -5.09)" fill="#fff"/>
    <path id="パス_408" data-name="パス 408" d="M286.992,56.284l3.264.4a10.488,10.488,0,0,1-3.8,4.464,10.372,10.372,0,0,1-5.771,1.588q-4.188,0-6.148-2.532t-1.073-7.1a12.571,12.571,0,0,1,3.906-7.339,10.228,10.228,0,0,1,6.941-2.611,6.753,6.753,0,0,1,5.756,2.557q1.93,2.559,1.028,7.2c-.037.188-.1.471-.183.847H276.682a6.145,6.145,0,0,0,.86,4.728,4.38,4.38,0,0,0,3.671,1.64,5.856,5.856,0,0,0,3.216-.917,8.036,8.036,0,0,0,2.563-2.928m-9.623-5.134h10.657a5.471,5.471,0,0,0-.533-3.546,4.049,4.049,0,0,0-3.651-1.834,6.235,6.235,0,0,0-4.031,1.464,7.232,7.232,0,0,0-2.442,3.917" transform="translate(-39.362 -6.219)" fill="#fff"/>
    <path id="パス_409" data-name="パス 409" d="M23.528,48.888c-.71,3.887,1.279,5.134,4.732,5.134,2.447,0,5.19-.929,5.743-3.376.662-2.911-3.668-3.466-7.864-4.812C21.99,44.5,17.8,42.367,19.171,36.305,20.809,29.1,28.3,26.269,34.156,26.269c6.2,0,11.725,3.2,10.08,10.648H36.114c.812-3.009-1.631-3.983-4.12-3.983-1.75,0-4.079.644-4.571,2.82-.578,2.543,3.818,3.007,8.052,4.351,4.2,1.338,8.234,3.559,6.883,9.526-1.9,8.367-9.234,11.05-16.088,11.05-7.165,0-12.742-3.328-10.87-11.793Z" transform="translate(-2.166 -3.785)" fill="#fff"/>
    <path id="パス_410" data-name="パス 410" d="M89.36,27.083h8.122L90,60.1H81.87Z" transform="translate(-11.796 -3.902)" fill="#fff"/>
    <path id="パス_411" data-name="パス 411" d="M54.773,27.082H69.356c5.4-.089,10.957,1.387,9.4,8.278a10.017,10.017,0,0,1-5.615,6.659c3.091,1.018,4.45,4.077,3.6,7.818C74.955,57.7,68.953,60.1,62.27,60.1H47.291Zm5.178,13h6.287a4.055,4.055,0,0,0,4.03-3.145c.55-2.405-.891-3.194-2.592-3.194H61.387ZM56.972,53.21h6.51c2.577,0,4.583-.972,5.206-3.694.661-2.917-1.041-3.884-3.49-3.884H58.692Z" transform="translate(-6.814 -3.902)" fill="#fff"/>
    <path id="パス_412" data-name="パス 412" d="M97.032,9.917C92.542-2.008,66.847-3.37,39.653,6.871,20.259,14.182,5.338,25.419,0,35.592c7.378-7.71,19.3-15.284,33.68-20.7C60.879,4.638,86.571,6,91.062,17.931c1.293,3.421.692,7.34-1.455,11.435,6.573-6.867,9.543-13.832,7.425-19.45" transform="translate(0 0)" fill="#dd0321"/>
  </g>
</svg>
