<svg xmlns="http://www.w3.org/2000/svg" xmlns:xlink="http://www.w3.org/1999/xlink" width="470.467" height="59.765" viewBox="0 0 470.467 59.765">
  <defs>
    <clipPath id="clip-path">
      <rect id="長方形_1680" data-name="長方形 1680" width="470.467" height="59.765" fill="none"/>
    </clipPath>
  </defs>
  <g id="グループ_140" data-name="グループ 140" transform="translate(0 0)">
    <g id="グループ_139" data-name="グループ 139" transform="translate(0 0)" clip-path="url(#clip-path)">
      <path id="パス_415" data-name="パス 415" d="M379.316,46.559,373.827,58.48a.7.7,0,0,1-.7.7l-31.522-.032a.7.7,0,0,1-.638-.982l3.9-8.792,0-.008,0-.008,13.875-33.672a.7.7,0,0,0-.645-.965H341.5a.7.7,0,0,1-.7-.7l4.7-11.855a.7.7,0,0,1,.7-.7l32.461-.033a.7.7,0,0,1,.655.939l-4.081,11.11L362.787,44.907a.7.7,0,0,0,.648.955h15.183a.7.7,0,0,1,.7.7" transform="translate(-100.652 -0.424)" fill="#fff"/>
      <path id="パス_416" data-name="パス 416" d="M84.113,42.73a5.863,5.863,0,0,1,1.6-6.8l.038-.032c3.572-3.11,5.973-9.214,5.973-15.185A19.9,19.9,0,0,0,85.07,5.373C81.981,2.765,78,1.15,67.7,1.15H49.895a.7.7,0,0,0-.7.7V58.161a.7.7,0,0,0,.7.7H63.191a.7.7,0,0,0,.7-.7V41.6a.7.7,0,0,1,.7-.7H66.9a.7.7,0,0,1,.637.417l7.548,17.3a.7.7,0,0,0,.639.419h14.44a.7.7,0,0,0,.64-.977Zm-12.8-15.109H64.589a.7.7,0,0,1-.7-.7V15.131a.7.7,0,0,1,.7-.7h6.727a6.594,6.594,0,0,1,0,13.187" transform="translate(-14.53 -0.34)" fill="#fff"/>
      <path id="パス_417" data-name="パス 417" d="M31.221,1.462H9.436A9.436,9.436,0,0,0,0,10.9V58.447a.726.726,0,0,0,.724.724H13.973a.721.721,0,0,0,.72-.72V49.526c.772-11.606,6.359-12.911,16.424-12.911a.723.723,0,0,0,.722-.717l.1-11.8a.726.726,0,0,0-.727-.733H19a4.309,4.309,0,1,1,0-8.617h0l12.2-.093a.729.729,0,0,0,.726-.8l0-11.737a.723.723,0,0,0-.719-.658" transform="translate(0 -0.432)" fill="#fff"/>
      <path id="パス_418" data-name="パス 418" d="M159.134,2.169a7.417,7.417,0,0,0-2.49,4.938c-.108,1.681-.038,6.738-.038,6.738V36.117c0,9.823-2.237,14.081-5.843,17.765-4.1,4.186-8.879,6.309-15.572,6.309-3.3,0-10.829-.61-16.044-6.252-4.985-5.475-5.824-9.922-5.824-17.822V2.169a.7.7,0,0,1,.7-.7h13.271a.7.7,0,0,1,.7.7V36.118c0,2.062-.274,4.105.452,5.75a7.165,7.165,0,0,0,6.525,4.3,6.7,6.7,0,0,0,6.373-4c.84-1.962.6-3.945.6-6.05V2.169a.7.7,0,0,1,.7-.7h15.8a.7.7,0,0,1,.7.7" transform="translate(-33.469 -0.435)" fill="#fff"/>
      <path id="パス_419" data-name="パス 419" d="M247.648,2.169a17.777,17.777,0,0,0-5.353,5.274,21.839,21.839,0,0,0-2.893,6.608.7.7,0,0,1-.7.7A10.948,10.948,0,0,0,227.757,25.7V58.438a.7.7,0,0,1-.7.7H213.787a.7.7,0,0,1-.7-.7V15.445a.7.7,0,0,0-.7-.7H202.067a.7.7,0,0,1-.7-.7l-.006-5.384a19.709,19.709,0,0,0-.2-2.374,7.951,7.951,0,0,0-2.192-4.124.7.7,0,0,1,.7-.7h47.285a.7.7,0,0,1,.7.7" transform="translate(-58.763 -0.435)" fill="#fff"/>
      <path id="パス_420" data-name="パス 420" d="M298.481,41.24a20.715,20.715,0,0,1-3.168,11.386c-3.245,4.738-8.8,7.14-16.51,7.14-6.41,0-11.427-1.657-14.932-4.93a18.339,18.339,0,0,1-4.9-8.938.7.7,0,0,1,.534-.853l13.134-2.721a.7.7,0,0,1,.812.5,5.409,5.409,0,0,0,5.2,4.308,5.267,5.267,0,0,0,5.239-5.268c0-2.786-2.153-3.714-10.164-7.162l-.669-.285c-3.768-1.56-13.782-5.7-13.782-16.577C259.277,6.25,269.454,0,279.03,0a23,23,0,0,1,8.634,1.673c2.432,1.051,7.646,3.98,8.672,10.084a.7.7,0,0,1-.519.8L283.622,15.6a.69.69,0,0,1-.8-.385,4.132,4.132,0,0,0-4.243-2.573,4.471,4.471,0,0,0-4.711,4.263c0,2.48,1.521,3.184,11.425,7.753,9.492,4.363,13.19,9.011,13.19,16.581" transform="translate(-76.478 0)" fill="#fff"/>
      <path id="パス_421" data-name="パス 421" d="M192.834,8.725V51.884a7.252,7.252,0,1,1-14.5,0V8.725a7.252,7.252,0,1,1,14.5,0" transform="translate(-52.667 -0.435)" fill="#fff"/>
      <path id="パス_422" data-name="パス 422" d="M413.134,8.668V51.776a7.363,7.363,0,1,1-14.726,0V8.668a7.363,7.363,0,1,1,14.726,0" transform="translate(-117.665 -0.385)" fill="#fff"/>
      <path id="パス_423" data-name="パス 423" d="M587.977,46.777l.014,11.71a.728.728,0,0,1-.726.65H552.625a.809.809,0,0,1-.812-.8V2.032a.73.73,0,0,1,.734-.727h34.717a.73.73,0,0,1,.729.654l0,11.671a.756.756,0,0,1-.758.827H567.4a.725.725,0,0,0-.729.723V22.39a.727.727,0,0,0,.731.724h14.879a.721.721,0,0,1,.724.717V35.665a.735.735,0,0,1-.739.73H567.393a.717.717,0,0,0-.719.715v8.149a.727.727,0,0,0,.732.726h19.847a.725.725,0,0,1,.724.793" transform="translate(-162.971 -0.385)" fill="#fff"/>
      <path id="パス_424" data-name="パス 424" d="M519.443,5.536c-3.124-2.613-7.153-4.231-17.565-4.231H474a.656.656,0,0,0-.707.7,22.02,22.02,0,0,1,6.46,6.41c2.741,3.917,3.74,8.131,3.409,16.164V58.439a.7.7,0,0,0,.707.7h13.449a.7.7,0,0,0,.7-.7V46.558a5.439,5.439,0,0,1,5.464-5.414c9.068,0,12.847-1.762,16.651-5.013,8.029-7.192,8.185-23.551-.692-30.594m-9.6,20.68c-.061.052-.12.1-.183.155s-.123.1-.19.14a6.665,6.665,0,0,1-3.987,1.321h-6.668a.715.715,0,0,1-.8-.7V15.316a.7.7,0,0,1,.706-.7h6.758a6.671,6.671,0,0,1,4.93,2.17,6.787,6.787,0,0,1,.639.808l.026.042a6.6,6.6,0,0,1-.183,7.436c-.057.087-.128.168-.192.254-.042.052-.083.1-.127.156a5.047,5.047,0,0,1-.734.733" transform="translate(-139.782 -0.385)" fill="#fff"/>
      <path id="パス_425" data-name="パス 425" d="M458.042,5.536c-3.124-2.613-7.153-4.231-17.565-4.231H419.983c-.391,0-.679.12-.679.506a8.281,8.281,0,0,1,1.843,3.061,16.158,16.158,0,0,1,.612,5.269c.067,3.311-.008,9.935-.035,14.436-.085,14,.037,33.862.037,33.862a.7.7,0,0,0,.707.7h13.448a.7.7,0,0,0,.7-.7V46.558a5.439,5.439,0,0,1,5.464-5.414c9.068,0,12.847-1.762,16.651-5.013,3.613-3.117,6.043-9.235,6.043-15.218a19.862,19.862,0,0,0-6.735-15.376m-9.6,20.68c-.061.052-.12.1-.183.155s-.123.1-.19.14a6.665,6.665,0,0,1-3.987,1.321h-6.758a.7.7,0,0,1-.706-.7V15.316a.7.7,0,0,1,.706-.7h6.758a6.671,6.671,0,0,1,4.931,2.17,4.855,4.855,0,0,1,.357.423c.1.125.194.253.282.385l.026.042a6.529,6.529,0,0,1-.182,7.436c-.057.087-.128.168-.192.254-.042.052-.083.1-.127.156a5.048,5.048,0,0,1-.734.733" transform="translate(-123.836 -0.385)" fill="#fff"/>
      <path id="パス_426" data-name="パス 426" d="M641.917,42.974a5.838,5.838,0,0,1,1.623-6.81l.038-.033c3.613-3.117,6.042-9.234,6.042-15.218a19.864,19.864,0,0,0-6.735-15.376c-3.124-2.614-7.153-4.232-17.565-4.232H607.308a.7.7,0,0,0-.7.7V58.439a.7.7,0,0,0,.707.7h13.448a.7.7,0,0,0,.7-.7v-16.6a.7.7,0,0,1,.707-.7h2.338a.7.7,0,0,1,.646.419l7.634,17.154a.706.706,0,0,0,.647.42h14.6a.7.7,0,0,0,.647-.979ZM628.98,27.833H622.17a.7.7,0,0,1-.706-.7V15.316a.7.7,0,0,1,.706-.7h6.811a6.608,6.608,0,1,1,0,13.215" transform="translate(-179.153 -0.385)" fill="#fff"/>
    </g>
  </g>
</svg>
