<svg xmlns="http://www.w3.org/2000/svg" xmlns:xlink="http://www.w3.org/1999/xlink" width="80" height="80" viewBox="0 0 80 80">
  <defs>
    <linearGradient id="linear-gradient" x1="0.148" y1="0.153" x2="0.832" y2="0.86" gradientUnits="objectBoundingBox">
      <stop offset="0" stop-color="#eda3ff"/>
      <stop offset="1" stop-color="#a09eff"/>
    </linearGradient>
    <linearGradient id="linear-gradient-2" x1="0.133" y1="0.081" x2="0.894" y2="0.903" xlink:href="#linear-gradient"/>
  </defs>
  <g id="グループ_195" data-name="グループ 195" transform="translate(-643 -7391)">
    <path id="パス_399_-_アウトライン" data-name="パス 399 - アウトライン" d="M40,2A38.011,38.011,0,0,0,25.209,75.015,38.01,38.01,0,0,0,54.791,4.985,37.76,37.76,0,0,0,40,2m0-2A40,40,0,1,1,0,40,40,40,0,0,1,40,0Z" transform="translate(643 7391)" fill="url(#linear-gradient)"/>
    <path id="instagram-brands-solid_1_" data-name="instagram-brands-solid (1)" d="M21.453,42.309A11.034,11.034,0,1,0,32.487,53.344,11.017,11.017,0,0,0,21.453,42.309Zm0,18.208a7.174,7.174,0,1,1,7.174-7.174,7.187,7.187,0,0,1-7.174,7.174ZM35.513,41.858a2.574,2.574,0,1,1-2.574-2.574A2.568,2.568,0,0,1,35.513,41.858Zm7.308,2.612c-.163-3.448-.951-6.5-3.476-9.018s-5.57-3.3-9.018-3.476c-3.553-.2-14.2-.2-17.757,0-3.438.163-6.492.951-9.018,3.467s-3.3,5.57-3.476,9.018c-.2,3.553-.2,14.2,0,17.757.163,3.448.951,6.5,3.476,9.018s5.57,3.3,9.018,3.476c3.553.2,14.2.2,17.757,0,3.448-.163,6.5-.951,9.018-3.476s3.3-5.57,3.476-9.018C43.022,58.664,43.022,48.023,42.821,44.47ZM38.23,66.03a7.263,7.263,0,0,1-4.091,4.091c-2.833,1.124-9.555.864-12.686.864s-9.863.25-12.686-.864A7.263,7.263,0,0,1,4.676,66.03c-1.124-2.833-.864-9.555-.864-12.686s-.25-9.863.864-12.686a7.263,7.263,0,0,1,4.091-4.091c2.833-1.124,9.555-.864,12.686-.864s9.863-.25,12.686.864a7.263,7.263,0,0,1,4.091,4.091c1.124,2.833.864,9.555.864,12.686S39.354,63.206,38.23,66.03Z" transform="translate(661.552 7377.656)" fill="url(#linear-gradient-2)"/>
  </g>
</svg>
