<svg xmlns="http://www.w3.org/2000/svg" width="706.505" height="536.148" viewBox="0 0 706.505 536.148">
  <g id="グループ_198" data-name="グループ 198" transform="translate(-14.742 -1515.273)">
    <rect id="長方形_1629" data-name="長方形 1629" width="671.247" height="483.793" rx="19" transform="translate(50 1567.629)" fill="#2d3138"/>
    <g id="長方形_1630" data-name="長方形 1630" transform="translate(40 1557.629)" fill="#fff" stroke="#2d3138" stroke-width="4">
      <rect width="671.247" height="483.793" rx="19" stroke="none"/>
      <rect x="2" y="2" width="667.247" height="479.793" rx="17" fill="none"/>
    </g>
    <text id="SBI_Web3ウォレットを開設するだけでもらえる" data-name="SBI Web3ウォレットを開設するだけでもらえる" transform="translate(120 1653.629)" fill="#252525" font-size="36" font-family="NotoSansJP-Black, Noto Sans JP" font-weight="800"><tspan x="0" y="42">SBI Web3</tspan><tspan y="42">ウォレットを</tspan><tspan y="42">開設</tspan><tspan y="42">す</tspan><tspan x="0" y="91">るだけでもらえる</tspan></text>
    <text id="すでに開設済みのお客様も対象_" data-name="すでに開設済みのお客様も対象！" transform="translate(120 1605.629)" fill="#252525" font-size="28" font-family="NotoSansJP-Black, Noto Sans JP" font-weight="800"><tspan x="0" y="32">すでに</tspan><tspan y="32">開設済</tspan><tspan y="32">みのお</tspan><tspan y="32">客様</tspan><tspan y="32">も</tspan><tspan y="32">対象！</tspan></text>
    <text id="口座開設でランダムで配布される宣材写真3枚_ライブ時の写真3枚のNFTが無料でもらえる" data-name="口座開設でランダムで配布される宣材写真3枚、ライブ時の写真3枚のNFTが無料でもらえる" transform="translate(120 1774.707)" fill="#252525" font-size="28" font-family="NotoSansJP-Bold, Noto Sans JP" font-weight="700"><tspan x="0" y="32">口座開設</tspan><tspan y="32">でランダムで</tspan><tspan y="32">配布</tspan><tspan y="32">される</tspan><tspan y="32">宣材写</tspan><tspan x="0" y="73">真3枚、</tspan><tspan y="73">ライブ</tspan><tspan y="73">時</tspan><tspan y="73">の</tspan><tspan y="73">写真3枚</tspan><tspan y="73">の</tspan><tspan y="73">NFT</tspan><tspan y="73">が</tspan><tspan y="73">無料</tspan><tspan x="0" y="114">でもらえる</tspan></text>
    <path id="パス_372" data-name="パス 372" d="M51.307,0,42.955,9.344,31.667,3.895,27.542,15.732l-12.515-.7.7,12.515L3.895,31.667,9.344,42.955,0,51.307l9.344,8.352L3.895,70.947l11.837,4.124-.7,12.515,12.515-.7,4.124,11.838L42.955,93.27l8.352,9.344,8.352-9.344,11.288,5.449,4.124-11.838,12.515.7-.7-12.515,11.837-4.124L93.27,59.659l9.344-8.352L93.27,42.955l5.449-11.288L86.882,27.543l.7-12.515-12.515.7L70.947,3.895,59.659,9.344Z" transform="translate(14.742 1515.273)" fill="#2d3138"/>
    <text id="Point_01" data-name="Point
01" transform="translate(66 1561.629)" fill="#fff" font-size="24" font-family="Blippo-Black, Blippo MN" font-weight="800"><tspan x="-28.26" y="0">Point</tspan><tspan font-size="30"><tspan x="-15.66" y="27">01</tspan></tspan></text>
    <text id="_SBI_Web3ウォレットのご利用にはSBI_VCトレードの口座開設が必要になります_" data-name="※SBI Web3ウォレットのご利用にはSBI VCトレードの口座開設が必要になります。" transform="translate(120 1919.293)" fill="#b1b1b1" font-size="24" font-family="NotoSansJP-Bold, Noto Sans JP" font-weight="700"><tspan x="0" y="28">※SBI Web3</tspan><tspan y="28">ウォレットのご</tspan><tspan y="28">利用</tspan><tspan y="28">には</tspan><tspan y="28">SBI VC</tspan><tspan y="28">ト</tspan><tspan x="0" y="64">レードの</tspan><tspan y="64">口座開設</tspan><tspan y="64">が</tspan><tspan y="64">必要</tspan><tspan y="64">になります。</tspan></text>
  </g>
</svg>
