<svg xmlns="http://www.w3.org/2000/svg" width="995.258" height="213.258" viewBox="0 0 995.258 213.258">
  <g id="グループ_185" data-name="グループ 185" transform="translate(-177.742 -795.742)">
    <rect id="長方形_11" data-name="長方形 11" width="960" height="167" rx="19" transform="translate(213 842)" fill="#2d3138"/>
    <g id="長方形_2" data-name="長方形 2" transform="translate(203 832)" fill="#fff" stroke="#2d3138" stroke-width="2">
      <rect width="960" height="167" rx="19" stroke="none"/>
      <rect x="1" y="1" width="958" height="165" rx="18" fill="none"/>
    </g>
    <text id="SBI_Web3ウォレットを開設するだけでもらえる" data-name="SBI Web3ウォレットを開設するだけでもらえる" transform="translate(290 912)" fill="#252525" font-size="28" font-family="NotoSansJP-Black, Noto Sans JP" font-weight="800"><tspan x="0" y="0">SBI Web3</tspan><tspan y="0">ウォレットを</tspan><tspan y="0">開設</tspan><tspan y="0">するだけでもらえる</tspan></text>
    <text id="すでに開設済みのお客様も対象_" data-name="すでに開設済みのお客様も対象！" transform="translate(290 876)" fill="#252525" font-size="18" font-family="NotoSansJP-Black, Noto Sans JP" font-weight="800"><tspan x="0" y="0">すでに</tspan><tspan y="0">開設済</tspan><tspan y="0">みのお</tspan><tspan y="0">客様</tspan><tspan y="0">も</tspan><tspan y="0">対象！</tspan></text>
    <text id="口座開設でランダムで配布される宣材写真3枚_ライブ時の写真3枚のNFTが無料でもらえる" data-name="口座開設でランダムで配布される宣材写真3枚、ライブ時の写真3枚のNFTが無料でもらえる" transform="translate(290 949)" fill="#252525" font-size="16" font-family="NotoSansJP-Bold, Noto Sans JP" font-weight="700"><tspan x="0" y="0">口座開設</tspan><tspan y="0">でランダムで</tspan><tspan y="0">配布</tspan><tspan y="0">される</tspan><tspan y="0">宣材写真3枚、</tspan><tspan y="0">ライブ</tspan><tspan y="0">時</tspan><tspan y="0">の</tspan><tspan y="0">写真3枚</tspan><tspan y="0">の</tspan><tspan y="0">NFT</tspan><tspan y="0">が</tspan><tspan y="0">無料</tspan><tspan y="0">でもらえる</tspan></text>
    <text id="_SBI_Web3ウォレットのご利用にはSBI_VCトレードの口座開設が必要になります_" data-name="※SBI Web3ウォレットのご利用にはSBI VCトレードの口座開設が必要になります。" transform="translate(290 974)" fill="#b1b1b1" font-size="12" font-family="NotoSansJP-Bold, Noto Sans JP" font-weight="700"><tspan x="0" y="0">※SBI Web3</tspan><tspan y="0">ウォレットのご</tspan><tspan y="0">利用</tspan><tspan y="0">には</tspan><tspan y="0">SBI VC</tspan><tspan y="0">トレードの</tspan><tspan y="0">口座開設</tspan><tspan y="0">が</tspan><tspan y="0">必要</tspan><tspan y="0">になります。</tspan></text>
    <path id="パス_15" data-name="パス 15" d="M48.258,0,40.4,8.789,29.785,3.663,25.906,14.8l-11.771-.663L14.8,25.906,3.663,29.785,8.789,40.4,0,48.258l8.789,7.856L3.663,66.732,14.8,70.611l-.663,11.771,11.771-.663,3.879,11.134L40.4,87.728l7.856,8.789,7.856-8.789,10.617,5.125,3.879-11.134,11.771.663-.663-11.771,11.134-3.879L87.728,56.114l8.789-7.856L87.728,40.4l5.125-10.617L81.719,25.906l.663-11.771L70.611,14.8,66.731,3.663,56.114,8.789Z" transform="translate(177.742 795.742)" fill="#2d3138"/>
    <path id="パス_773" data-name="パス 773" d="M-17.042-4.83a4.365,4.365,0,0,0,4.221-4.536,5.235,5.235,0,0,0-5.334-5c-3.066,0-5.208,2.9-5.208,4.494V0h4.179V-9.282c0-.8.441-1.176.924-1.176a.914.914,0,0,1,.987.882c0,.714-.42,1.071-1.239,1.071V-4.83ZM-.829-5.124c0-7.056-10.584-7.056-10.584-.042C-11.413,2-.829,2.016-.829-5.124ZM-4.672-5.1a1.418,1.418,0,1,1-2.835-.084A1.419,1.419,0,0,1-4.672-5.1Zm5.691-7.833A1.783,1.783,0,0,0,2.93-11.13a1.8,1.8,0,0,0,1.932-1.806A1.908,1.908,0,0,0,2.93-14.763,1.888,1.888,0,0,0,1.019-12.936ZM1-10.227V0H4.841V-10.227ZM16.118-5.4c0-3.15-2.121-5.04-4.662-5.04A4.557,4.557,0,0,0,7.025-5.712V0H10.8V-5.775a.813.813,0,0,1,.756-.882.781.781,0,0,1,.777.882V0h3.78Zm1.911-8.736V-5.46A5.335,5.335,0,0,0,23.363.021c.1,0,.189-.021.294-.021V-4.032a1.647,1.647,0,0,1-1.449-.588,2.21,2.21,0,0,1-.357-1.554h1.722v-4.053h-1.7v-3.906ZM-11.664,12.96a8.34,8.34,0,0,0,8.616,8.328A8.277,8.277,0,0,0,4.992,13.1,8.336,8.336,0,0,0-3.5,4.656,8.34,8.34,0,0,0-11.664,12.96ZM.312,12.744A3.645,3.645,0,0,1-3.12,16.632a3.592,3.592,0,0,1-3.336-1.776,2.8,2.8,0,0,1-.528-1.608,3.678,3.678,0,0,1,3.72-3.936A3.677,3.677,0,0,1,.312,12.744ZM6.624,21H11.28V5.112H6.624Z" transform="translate(226 840)" fill="#fff"/>
  </g>
</svg>
