<svg xmlns="http://www.w3.org/2000/svg" width="706.505" height="440.846" viewBox="0 0 706.505 440.846">
  <g id="グループ_199" data-name="グループ 199" transform="translate(-14.742 -2072.273)">
    <rect id="長方形_1632" data-name="長方形 1632" width="671.247" height="388.49" rx="19" transform="translate(50 2124.629)" fill="#2d3138"/>
    <g id="長方形_1631" data-name="長方形 1631" transform="translate(40 2114.629)" fill="#fff" stroke="#2d3138" stroke-width="4">
      <rect width="671.247" height="388.49" rx="19" stroke="none"/>
      <rect x="2" y="2" width="667.247" height="384.49" rx="17" fill="none"/>
    </g>
    <text id="_10_000円入金すると_さらにもらえる" data-name="10,000円入金すると、さらにもらえる" transform="translate(120 2162.887)" fill="#252525" font-size="36" font-family="NotoSansJP-Black, Noto Sans JP" font-weight="800"><tspan x="0" y="42">10,000円入金</tspan><tspan y="42">すると、さらに</tspan><tspan x="0" y="96">もらえる</tspan></text>
    <text id="_10_000円入金で_01に加えて_宣材写真4枚_ライブ時の写真4枚_全員集合版宣材写真_ライブ時の写真のNFTが無料でもらえる" data-name="10,000円入金で#01に加えて、宣材写真4枚＋ライブ時の写真4枚、全員集合版宣材写真＋ライブ時の写真のNFTが無料でもらえる" transform="translate(120 2291.767)" fill="#252525" font-size="28" font-family="NotoSansJP-Bold, Noto Sans JP" font-weight="700"><tspan x="0" y="32">10,000円入金</tspan><tspan y="32">で#01に</tspan><tspan y="32">加</tspan><tspan y="32">えて、</tspan><tspan y="32">宣材写真</tspan><tspan x="0" y="73">4枚＋</tspan><tspan y="73">ライブ</tspan><tspan y="73">時</tspan><tspan y="73">の</tspan><tspan y="73">写真4枚、全員集合版宣</tspan><tspan x="0" y="114">材写真＋</tspan><tspan y="114">ライブ</tspan><tspan y="114">時</tspan><tspan y="114">の</tspan><tspan y="114">写真</tspan><tspan y="114">の</tspan><tspan y="114">NFT</tspan><tspan y="114">が</tspan><tspan y="114">無料</tspan><tspan y="114">で</tspan><tspan x="0" y="155">もらえる</tspan></text>
    <path id="パス_373" data-name="パス 373" d="M51.307,0,42.955,9.344,31.667,3.895,27.542,15.732l-12.515-.7.7,12.515L3.895,31.667,9.344,42.955,0,51.307l9.344,8.352L3.895,70.947l11.837,4.124-.7,12.515,12.515-.7,4.124,11.838L42.955,93.27l8.352,9.344,8.352-9.344,11.288,5.449,4.124-11.838,12.515.7-.7-12.515,11.837-4.124L93.27,59.659l9.344-8.352L93.27,42.955l5.449-11.288L86.882,27.543l.7-12.515-12.515.7L70.947,3.895,59.659,9.344Z" transform="translate(14.742 2072.273)" fill="#2d3138"/>
    <text id="Point_02" data-name="Point
02" transform="translate(66 2118.629)" fill="#fff" font-size="24" font-family="Blippo-Black, Blippo MN" font-weight="800"><tspan x="-28.26" y="0">Point</tspan><tspan font-size="30"><tspan x="-19.785" y="27">02</tspan></tspan></text>
  </g>
</svg>
