<svg xmlns="http://www.w3.org/2000/svg" width="995.258" height="213.258" viewBox="0 0 995.258 213.258">
  <g id="グループ_186" data-name="グループ 186" transform="translate(-177.742 -1029.742)">
    <rect id="長方形_12" data-name="長方形 12" width="960" height="167" rx="19" transform="translate(213 1076)" fill="#2d3138"/>
    <g id="長方形_8" data-name="長方形 8" transform="translate(203 1066)" fill="#fff" stroke="#2d3138" stroke-width="2">
      <rect width="960" height="167" rx="19" stroke="none"/>
      <rect x="1" y="1" width="958" height="165" rx="18" fill="none"/>
    </g>
    <text id="_10_000円入金すると_さらにもらえる" data-name="10,000円入金すると、さらにもらえる" transform="translate(290 1133)" fill="#252525" font-size="28" font-family="NotoSansJP-Black, Noto Sans JP" font-weight="800"><tspan x="0" y="0">10,000円入金</tspan><tspan y="0">すると、さらにもらえる</tspan></text>
    <text id="_10_000円入金で_01に加えて_宣材写真4枚_ライブ時の写真4枚_全員集合版宣材写真_ライブ時の写真のNFTが無料でもらえる" data-name="10,000円入金で#01に加えて、宣材写真4枚＋ライブ時の写真4枚、全員集合版宣材写真＋ライブ時の写真のNFTが無料でもらえる" transform="translate(290 1151)" fill="#252525" font-size="16" font-family="NotoSansJP-Bold, Noto Sans JP" font-weight="700"><tspan x="0" y="19">10,000円入金</tspan><tspan y="19">で#01に</tspan><tspan y="19">加</tspan><tspan y="19">えて、</tspan><tspan y="19">宣材写真4枚＋</tspan><tspan y="19">ライブ</tspan><tspan y="19">時</tspan><tspan y="19">の</tspan><tspan y="19">写真4枚、全員集合版宣材写真＋</tspan><tspan y="19">ライブ</tspan><tspan y="19">時</tspan><tspan x="0" y="43">の</tspan><tspan y="43">写真</tspan><tspan y="43">の</tspan><tspan y="43">NFT</tspan><tspan y="43">が</tspan><tspan y="43">無料</tspan><tspan y="43">でもらえる</tspan></text>
    <path id="パス_16" data-name="パス 16" d="M48.258,0,40.4,8.789,29.785,3.663,25.906,14.8l-11.771-.663L14.8,25.906,3.663,29.785,8.789,40.4,0,48.258l8.789,7.856L3.663,66.732,14.8,70.611l-.663,11.771,11.771-.663,3.879,11.134L40.4,87.728l7.856,8.789,7.856-8.789,10.617,5.125,3.879-11.134,11.771.663-.663-11.771,11.134-3.879L87.728,56.114l8.789-7.856L87.728,40.4l5.125-10.617L81.719,25.906l.663-11.771L70.611,14.8,66.731,3.663,56.114,8.789Z" transform="translate(177.742 1029.741)" fill="#2d3138"/>
    <path id="パス_774" data-name="パス 774" d="M-17.042-4.83a4.365,4.365,0,0,0,4.221-4.536,5.235,5.235,0,0,0-5.334-5c-3.066,0-5.208,2.9-5.208,4.494V0h4.179V-9.282c0-.8.441-1.176.924-1.176a.914.914,0,0,1,.987.882c0,.714-.42,1.071-1.239,1.071V-4.83ZM-.829-5.124c0-7.056-10.584-7.056-10.584-.042C-11.413,2-.829,2.016-.829-5.124ZM-4.672-5.1a1.418,1.418,0,1,1-2.835-.084A1.419,1.419,0,0,1-4.672-5.1Zm5.691-7.833A1.783,1.783,0,0,0,2.93-11.13a1.8,1.8,0,0,0,1.932-1.806A1.908,1.908,0,0,0,2.93-14.763,1.888,1.888,0,0,0,1.019-12.936ZM1-10.227V0H4.841V-10.227ZM16.118-5.4c0-3.15-2.121-5.04-4.662-5.04A4.557,4.557,0,0,0,7.025-5.712V0H10.8V-5.775a.813.813,0,0,1,.756-.882.781.781,0,0,1,.777.882V0h3.78Zm1.911-8.736V-5.46A5.335,5.335,0,0,0,23.363.021c.1,0,.189-.021.294-.021V-4.032a1.647,1.647,0,0,1-1.449-.588,2.21,2.21,0,0,1-.357-1.554h1.722v-4.053h-1.7v-3.906ZM-14.964,12.96a8.34,8.34,0,0,0,8.616,8.328A8.277,8.277,0,0,0,1.692,13.1,8.336,8.336,0,0,0-6.8,4.656,8.34,8.34,0,0,0-14.964,12.96Zm11.976-.216A3.645,3.645,0,0,1-6.42,16.632a3.592,3.592,0,0,1-3.336-1.776,2.8,2.8,0,0,1-.528-1.608,3.678,3.678,0,0,1,3.72-3.936A3.677,3.677,0,0,1-2.988,12.744ZM14.868,21V16.512H12.2c1.464-2.928,2.544-4.32,2.544-6.24a5.544,5.544,0,1,0-8.4,4.8l2.064-3.648a.9.9,0,0,1-.432-.744c0-.816.384-1.224,1.08-1.224.624,0,1.08.408,1.08,1.248a1,1,0,0,1-.192.5L4.62,21Z" transform="translate(226 1074)" fill="#fff"/>
  </g>
</svg>
