<svg xmlns="http://www.w3.org/2000/svg" xmlns:xlink="http://www.w3.org/1999/xlink" width="36.16" height="23.808" viewBox="0 0 36.16 23.808">
  <defs>
    <linearGradient id="linear-gradient" x1="0.129" x2="0.839" y2="0.864" gradientUnits="objectBoundingBox">
      <stop offset="0" stop-color="#eda3ff"/>
      <stop offset="1" stop-color="#a09eff"/>
    </linearGradient>
  </defs>
  <path id="パス_367" data-name="パス 367" d="M-4.144,1.952V.16a11.542,11.542,0,0,0,8.16-11.04A11.16,11.16,0,0,0-7.152-21.856a11.167,11.167,0,0,0-11.2,10.976A11.6,11.6,0,0,0-10.128.16V1.952ZM-9.968-6.624a5.031,5.031,0,0,1-2.144-4.192A5.075,5.075,0,0,1-7.152-15.9a5.13,5.13,0,0,1,5.024,5.088A5.137,5.137,0,0,1-4.336-6.624V-8.992H-9.968Zm16.352-8.8H8.912l-1.76,4.48c2.72-.064,4.16,1.12,4.16,2.464,0,2.08-1.248,3.008-2.528,3.008a5.342,5.342,0,0,1-2.4-.8V-.288a8.178,8.178,0,0,0,3.712.7,7.254,7.254,0,0,0,3.648-.9C16.528-1.824,17.808-4,17.808-7.3c0-2.624-1.312-4.064-3.552-5.984l3.424-8.256H6.384Z" transform="translate(18.352 21.856)" fill="url(#linear-gradient)"/>
</svg>
