<svg xmlns="http://www.w3.org/2000/svg" xmlns:xlink="http://www.w3.org/1999/xlink" width="37.792" height="23.808" viewBox="0 0 37.792 23.808">
  <defs>
    <linearGradient id="linear-gradient" x1="0.129" x2="0.839" y2="0.864" gradientUnits="objectBoundingBox">
      <stop offset="0" stop-color="#eda3ff"/>
      <stop offset="1" stop-color="#a09eff"/>
    </linearGradient>
  </defs>
  <path id="パス_370" data-name="パス 370" d="M-4.816,1.952V.16a11.542,11.542,0,0,0,8.16-11.04A11.16,11.16,0,0,0-7.824-21.856a11.167,11.167,0,0,0-11.2,10.976A11.6,11.6,0,0,0-10.8.16V1.952ZM-10.64-6.624a5.031,5.031,0,0,1-2.144-4.192A5.075,5.075,0,0,1-7.824-15.9,5.13,5.13,0,0,1-2.8-10.816,5.137,5.137,0,0,1-5.008-6.624V-8.992H-10.64Zm16.7-3.52a13.623,13.623,0,0,1,2.08-.288c1.888,0,4.256,1.184,4.256,2.976,0,1.312-1.152,2.4-2.944,2.4a6.655,6.655,0,0,1-3.3-.864V-.768A8.188,8.188,0,0,0,10.96.416,7.445,7.445,0,0,0,15.152-.7,6.775,6.775,0,0,0,18.768-7.04a7.371,7.371,0,0,0-6.08-7.008l.192-.96h5.28v-5.984H8.336Z" transform="translate(19.024 21.856)" fill="url(#linear-gradient)"/>
</svg>
