<svg xmlns="http://www.w3.org/2000/svg" xmlns:xlink="http://www.w3.org/1999/xlink" width="363.201" height="459.742" viewBox="0 0 363.201 459.742">
  <defs>
    <linearGradient id="linear-gradient" x1="0.219" y1="0.131" x2="0.774" y2="0.851" gradientUnits="objectBoundingBox">
      <stop offset="0" stop-color="#eda3ff"/>
      <stop offset="1" stop-color="#a09eff"/>
    </linearGradient>
    <clipPath id="clip-path">
      <rect width="363.201" height="459.742" fill="none"/>
    </clipPath>
    <clipPath id="clip-path-2">
      <rect id="長方形_1086" data-name="長方形 1086" width="89.795" height="100.785" transform="translate(0 0)" fill="url(#linear-gradient)"/>
    </clipPath>
  </defs>
  <g id="リピートグリッド_8" data-name="リピートグリッド 8" clip-path="url(#clip-path)">
    <g id="グループ_191" data-name="グループ 191" transform="translate(-866.767 -2477.286)">
      <rect id="長方形_1092" data-name="長方形 1092" width="328.427" height="425.7" rx="22" transform="translate(901.541 2511.328)" fill="#2d3138"/>
      <g id="長方形_1082" data-name="長方形 1082" transform="translate(896.61 2505.411)" fill="#fff" stroke="#2d3138" stroke-width="2">
        <rect width="328.427" height="425.7" rx="22" stroke="none"/>
        <rect x="1" y="1" width="326.427" height="423.7" rx="21" fill="none"/>
      </g>
      <text id="NFT受け取り" transform="translate(1058.236 2699.725)" fill="#2d3138" font-size="21" font-family="NotoSansJP-Black, Noto Sans JP" font-weight="800"><tspan x="-63.084" y="0">NFT</tspan><tspan y="0">受</tspan><tspan y="0">け</tspan><tspan y="0">取</tspan><tspan y="0">り</tspan></text>
      <text id="NFTがあなたのWeb3ウォレットに届きます_ウォレットにログインして_FRUITS_ZIPPERのメンバー写真やライブ画像を楽しみましょう_" data-name="NFTがあなたのWeb3ウォレットに届きます。ウォレットにログインして、FRUITS ZIPPERのメンバー写真やライブ画像を楽しみましょう。" transform="translate(921.266 2738.846)" fill="#2d3138" font-size="16" font-family="NotoSansJP-Medium, Noto Sans JP" font-weight="500"><tspan x="0" y="19">NFT</tspan><tspan y="19">があなたの</tspan><tspan y="19">Web3</tspan><tspan y="19">ウォレットに</tspan><tspan y="19">届</tspan><tspan x="0" y="43">きます。ウォレットにログインして、</tspan><tspan x="0" y="67">FRUITS ZIPPER</tspan><tspan y="67">のメンバー</tspan><tspan y="67">写真</tspan><tspan y="67">やライ</tspan><tspan x="0" y="91">ブ</tspan><tspan y="91">画像</tspan><tspan y="91">を</tspan><tspan y="91">楽</tspan><tspan y="91">しみましょう。</tspan></text>
      <g id="グループ_73" data-name="グループ 73" transform="translate(1015.432 2536.786)">
        <g id="グループ_72" data-name="グループ 72" transform="translate(0 0)" clip-path="url(#clip-path-2)">
          <path id="パス_303" data-name="パス 303" d="M85.118,21.773,49.574,1.252a9.379,9.379,0,0,0-9.354,0L4.677,21.773A9.38,9.38,0,0,0,0,29.874V70.916a9.38,9.38,0,0,0,4.677,8.1L40.221,99.538a9.379,9.379,0,0,0,9.354,0L85.118,79.017a9.38,9.38,0,0,0,4.677-8.1V29.874a9.38,9.38,0,0,0-4.677-8.1m.935,49.143a5.628,5.628,0,0,1-2.806,4.86L47.7,96.3a5.628,5.628,0,0,1-5.612,0L6.548,75.777a5.628,5.628,0,0,1-2.806-4.86V29.874a5.628,5.628,0,0,1,2.806-4.86L42.092,4.492a5.628,5.628,0,0,1,5.612,0L83.248,25.013a5.628,5.628,0,0,1,2.806,4.86Z" transform="translate(0 -0.003)" fill="url(#linear-gradient)"/>
          <path id="パス_304" data-name="パス 304" d="M620.966,398.747h-13.1a1.871,1.871,0,0,0,0,3.741h4.677v20.578a1.871,1.871,0,1,0,3.741,0V402.488h4.677a1.871,1.871,0,0,0,0-3.741" transform="translate(-549.317 -361.45)" fill="url(#linear-gradient)"/>
          <path id="パス_305" data-name="パス 305" d="M419.1,398.747H407.871A1.871,1.871,0,0,0,406,400.618v22.449a1.871,1.871,0,0,0,3.741,0v-9.354h7.483a1.871,1.871,0,1,0,0-3.741h-7.483v-7.483H419.1a1.871,1.871,0,0,0,0-3.741" transform="translate(-368.024 -361.45)" fill="url(#linear-gradient)"/>
          <path id="パス_306" data-name="パス 306" d="M196.966,398.745a1.871,1.871,0,0,0-1.871,1.871v15.529l-9.609-16.472a1.871,1.871,0,0,0-3.487.943v22.449a1.871,1.871,0,0,0,3.741,0V407.535l9.609,16.472a1.871,1.871,0,0,0,3.487-.943V400.615a1.871,1.871,0,0,0-1.871-1.871" transform="translate(-164.976 -361.447)" fill="url(#linear-gradient)"/>
        </g>
      </g>
      <path id="パス_327" data-name="パス 327" d="M47.6,0,39.847,8.668,29.376,3.613,25.55,14.594l-11.61-.654.654,11.61L3.613,29.376,8.668,39.848,0,47.6l8.668,7.748L3.613,65.815l10.981,3.826-.654,11.61L25.55,80.6l3.826,10.981,10.471-5.055L47.6,95.191l7.748-8.668,10.471,5.055L69.641,80.6l11.61.654L80.6,69.641l10.981-3.826L86.523,55.344,95.191,47.6l-8.668-7.748,5.055-10.471L80.6,25.55l.654-11.61-11.61.654L65.815,3.613,55.344,8.668Z" transform="translate(866.767 2477.286)" fill="#2d3138"/>
      <path id="パス_772" data-name="パス 772" d="M-16.59-4.76a1.121,1.121,0,0,1-1.22,1.12,1.8,1.8,0,0,1-1-.32V-.12a4.06,4.06,0,0,0,1.78.46,4.717,4.717,0,0,0,4.88-4.66c0-2.28-1.48-3.26-1.48-4.3a1.126,1.126,0,0,1,1.1-1.12,2,2,0,0,1,.66.16v-3.8a4.667,4.667,0,0,0-1.62-.28,4.588,4.588,0,0,0-4.54,4.6C-18.03-6.68-16.59-5.4-16.59-4.76Zm6.32-8.7V-5.2A5.081,5.081,0,0,0-5.19.02c.1,0,.18-.02.28-.02V-3.84A1.568,1.568,0,0,1-6.29-4.4a2.105,2.105,0,0,1-.34-1.48h1.64V-9.74H-6.61v-3.72Zm13.28,10a1.531,1.531,0,0,1-1.1.6C1.19-2.86.35-3.62.35-5.02c0-1.26.72-2.06,1.6-2.06A1.247,1.247,0,0,1,3.23-6H1.21a2.7,2.7,0,0,0-.18,1,2.3,2.3,0,0,0,.14.72h5.7c.02-.26.02-.42.02-.68A5.028,5.028,0,0,0,1.81-9.94,5.113,5.113,0,0,0-3.25-4.98,5.118,5.118,0,0,0,1.87.2,5.291,5.291,0,0,0,5.11-.94Zm5.72,8.2h3.66V-4.44a2.129,2.129,0,0,1,.24-1.24,1.458,1.458,0,0,1,1.16-.6,1.424,1.424,0,0,1,1.48,1.46,1.391,1.391,0,0,1-1.42,1.38,1.82,1.82,0,0,1-.84-.28V.14a5.656,5.656,0,0,0,.82.06,4.994,4.994,0,0,0,5.04-5.28,5.073,5.073,0,0,0-5.08-4.86A5.063,5.063,0,0,0,8.73-4.78ZM-13.11,15.3a7.992,7.992,0,0,0,8.257,7.981,7.932,7.932,0,0,0,7.705-7.843,7.988,7.988,0,0,0-8.142-8.1A7.993,7.993,0,0,0-13.11,15.3Zm11.477-.207a3.493,3.493,0,0,1-3.289,3.726,3.443,3.443,0,0,1-3.2-1.7,2.683,2.683,0,0,1-.506-1.541A3.525,3.525,0,0,1-5.06,11.8,3.524,3.524,0,0,1-1.633,15.088Zm6.21-3.174H6.394l-1.265,3.22c1.955-.046,2.99.8,2.99,1.771,0,1.495-.9,2.162-1.817,2.162a3.839,3.839,0,0,1-1.725-.575v4.3a5.878,5.878,0,0,0,2.668.506,5.214,5.214,0,0,0,2.622-.644,4.9,4.9,0,0,0,2.921-4.9c0-1.886-.943-2.921-2.553-4.3L12.7,7.521H4.577Z" transform="translate(913.651 2520.197)" fill="#fff"/>
      <text id="_特典2を受け取る場合は_SBI_VCトレード口座へ入金_10_000円_し_その後_SBI_Web3ウォレット内にあるエントリーボタンよりエントリーします_" data-name="※特典2を受け取る場合は、SBI VCトレード口座へ入金（10,000円）し、その後、SBI Web3ウォレット内にあるエントリーボタンよりエントリーします。" transform="translate(921 2843)" fill="#b1b1b1" font-size="12" font-family="NotoSansJP-Medium, Noto Sans JP" font-weight="500"><tspan x="0" y="14">※特典2</tspan><tspan y="14">を</tspan><tspan y="14">受</tspan><tspan y="14">け</tspan><tspan y="14">取</tspan><tspan y="14">る</tspan><tspan y="14">場合</tspan><tspan y="14">は、</tspan><tspan y="14">SBI VC</tspan><tspan y="14">トレード</tspan><tspan y="14">口座</tspan><tspan y="14">へ</tspan><tspan x="0" y="30">入金（10,000円）</tspan><tspan y="30">し、その</tspan><tspan y="30">後、</tspan><tspan y="30">SBI Web3</tspan><tspan y="30">ウォレッ</tspan><tspan x="0" y="46">ト</tspan><tspan y="46">内</tspan><tspan y="46">にあるエントリーボタンよりエントリーしま</tspan><tspan x="0" y="62">す。</tspan></text>
    </g>
  </g>
</svg>
