<svg xmlns="http://www.w3.org/2000/svg" xmlns:xlink="http://www.w3.org/1999/xlink" width="706.505" height="730.984" viewBox="0 0 706.505 730.984">
  <defs>
    <linearGradient id="linear-gradient" x1="0.059" y1="0.02" x2="0.958" y2="0.969" gradientUnits="objectBoundingBox">
      <stop offset="0" stop-color="#eda3ff"/>
      <stop offset="1" stop-color="#a09eff"/>
    </linearGradient>
    <clipPath id="clip-path">
      <rect id="長方形_1094" data-name="長方形 1094" width="235" height="168" fill="url(#linear-gradient)"/>
    </clipPath>
  </defs>
  <g id="グループ_202" data-name="グループ 202" transform="translate(-14.742 -5829.896)">
    <path id="合体_7" data-name="合体 7" d="M321.166,676.778l-29.451-30.766q-.095-.1-.184-.2H19a19,19,0,0,1-19-19V19A19,19,0,0,1,19,0H652.246a19,19,0,0,1,19,19V626.811a19,19,0,0,1-19,19H359.469q-.089.1-.184.2l-29.451,30.766a6,6,0,0,1-8.668,0Z" transform="translate(50 5882.252)" fill="#2d3138"/>
    <g id="長方形_1642" data-name="長方形 1642" transform="translate(40 5872.252)" fill="#fff" stroke="#2d3138" stroke-width="4">
      <rect width="671.246" height="643.974" rx="19" stroke="none"/>
      <rect x="2" y="2" width="667.246" height="639.974" rx="17" fill="none"/>
    </g>
    <path id="多角形_17" data-name="多角形 17" d="M40.536,3.271a4,4,0,0,1,5.928,0L80.941,41.314A4,4,0,0,1,77.977,48H9.023a4,4,0,0,1-2.964-6.686Z" transform="translate(419 6553.715) rotate(180)" fill="#fff"/>
    <text id="入金_10_000円_キャンペーンにエントリー" data-name="入金（10,000円）＆
キャンペーンにエントリー" transform="translate(375 6195.1)" fill="#252525" font-size="36" font-family="NotoSansJP-Black, Noto Sans JP" font-weight="800"><tspan x="-169.128" y="0">入金（10,000円）＆</tspan><tspan x="-215.1" y="54">キャンペーンにエントリー</tspan></text>
    <text id="特典2を受け取る場合は_SBI_VCトレード口座へ入金_10_000円_し_その後_SBI_Web3ウォレット内にあるエントリーボタンよりエントリーします_" data-name="特典2を受け取る場合は、SBI VCトレード口座へ入金（10,000円）し、その後、SBI Web3ウォレット内にあるエントリーボタンよりエントリーします。" transform="translate(120 6281.488)" fill="#252525" font-size="28" font-family="NotoSansJP-Medium, Noto Sans JP" font-weight="500"><tspan x="0" y="32">特典2</tspan><tspan y="32">を</tspan><tspan y="32">受</tspan><tspan y="32">け</tspan><tspan y="32">取</tspan><tspan y="32">る</tspan><tspan y="32">場合</tspan><tspan y="32">は、</tspan><tspan y="32">SBI VC</tspan><tspan y="32">トレー</tspan><tspan x="0" y="73">ド</tspan><tspan y="73">口座</tspan><tspan y="73">へ</tspan><tspan y="73">入金（10,000円）</tspan><tspan y="73">し、その</tspan><tspan y="73">後、</tspan><tspan x="0" y="114">SBI Web3</tspan><tspan y="114">ウォレット</tspan><tspan y="114">内</tspan><tspan y="114">にあるエントリ</tspan><tspan x="0" y="155">ーボタンよりエントリーします。</tspan></text>
    <path id="パス_377" data-name="パス 377" d="M51.307,0,42.955,9.344,31.667,3.895,27.542,15.732l-12.515-.7.7,12.515L3.895,31.667,9.344,42.955,0,51.307l9.344,8.352L3.895,70.947l11.837,4.124-.7,12.515,12.515-.7,4.124,11.838L42.955,93.27l8.352,9.344,8.352-9.344,11.288,5.449,4.124-11.838,12.515.7-.7-12.515,11.837-4.124L93.27,59.659l9.344-8.352L93.27,42.955l5.449-11.288L86.882,27.543l.7-12.515-12.515.7L70.947,3.895,59.659,9.344Z" transform="translate(14.742 5829.896)" fill="#2d3138"/>
    <text id="Step_02" data-name="Step
02" transform="translate(66 5876.252)" fill="#fff" font-size="24" font-family="Blippo-Black, Blippo MN" font-weight="800"><tspan x="-23.532" y="0">Step</tspan><tspan font-size="30"><tspan x="-19.785" y="27">02</tspan></tspan></text>
    <g id="グループ_124" data-name="グループ 124" transform="translate(258 5938.831)">
      <g id="グループ_80" data-name="グループ 80" clip-path="url(#clip-path)">
        <path id="パス_338" data-name="パス 338" d="M231.269,75.964H172.211l-9.138-29.229a16.081,16.081,0,0,0-4.1-6.683l-36.3-35.484A15.951,15.951,0,0,0,111.462,0H3.376a3.376,3.376,0,0,0,0,6.752H111.462a9.236,9.236,0,0,1,6.49,2.644l36.3,35.485a9.305,9.305,0,0,1,2.372,3.868l8.508,27.215H145.059L132.986,52.475a3.376,3.376,0,0,0-2.184-1.732L97.04,42.3a3.377,3.377,0,0,0-3.7,5.029L113.6,80.673a3.536,3.536,0,0,0,1.817,1.449c.213.075,1.053.43,1.865.773.92.389,2.081.88,3.354,1.4,2.316.993,5.16,2.17,8.057,3.37,2.287.947,4.609,1.908,6.736,2.806a13.256,13.256,0,0,1,7.248,7.4,12.288,12.288,0,0,1-.625,10.139q-.047.084-.089.172a2.976,2.976,0,0,1-3.683,1.378q-.1-.033-.2-.058c-1.517-.438-19.944-6.378-21.594-6.995-.039-.017-.078-.034-.116-.049a32.16,32.16,0,0,1-6.951-3.878c-1.377-.928-2.718-1.973-4.137-3.077-.805-.627-1.625-1.264-2.415-1.855A62.062,62.062,0,0,0,64.652,80.6a27.3,27.3,0,0,1-17.36-6.172L22.55,51.541a3.377,3.377,0,0,0-2.293-.9H3.376a3.376,3.376,0,1,0,0,6.752H18.935L42.775,79.453c.045.041.09.08.136.119a34.066,34.066,0,0,0,21.742,7.785,55.341,55.341,0,0,1,34.1,11.65c.817.611,1.6,1.223,2.375,1.825,1.448,1.127,2.943,2.292,4.443,3.3a38.411,38.411,0,0,0,8.32,4.61l.01-.024c3.155,1.209,19.578,6.4,22.3,7.25l-.005.016a10.081,10.081,0,0,0,3.106.492A9.659,9.659,0,0,0,148,111.207a19.075,19.075,0,0,0,1.009-15.685,20.063,20.063,0,0,0-10.959-11.273c-1.174-.495-2.411-1.011-3.667-1.533h93.513v77.652H57.4V96.221a3.376,3.376,0,1,0-6.752,0v67.524a3.376,3.376,0,0,0,3.376,3.376h177.25a3.376,3.376,0,0,0,3.376-3.376V79.34a3.376,3.376,0,0,0-3.376-3.376M116.513,102.521a2.452,2.452,0,0,1,.329.17,3.279,3.279,0,0,0-.329-.17M103.374,50.846l24.307,6.077,9.787,19.041H118.637Z" transform="translate(0 0)" fill="url(#linear-gradient)"/>
        <path id="パス_339" data-name="パス 339" d="M94.353,125.082a3.377,3.377,0,0,0-4.613-4.933,9.283,9.283,0,0,1-6.364,2.511A3.376,3.376,0,0,0,80,126.037v25.321a3.376,3.376,0,0,0,3.376,3.376,9.3,9.3,0,0,1,9.285,9.284,3.376,3.376,0,0,0,3.376,3.376H214.2a3.376,3.376,0,0,0,3.376-3.376,9.3,9.3,0,0,1,9.285-9.284,3.376,3.376,0,0,0,3.376-3.376V126.037a3.376,3.376,0,0,0-3.376-3.376,9.3,9.3,0,0,1-9.285-9.285A3.376,3.376,0,0,0,214.2,110H176.221a3.376,3.376,0,1,0,0,6.752h34.964a16.087,16.087,0,0,0,12.3,12.3V148.34a16.086,16.086,0,0,0-12.3,12.3H99.055a16.079,16.079,0,0,0-12.3-12.292V129.058a16.015,16.015,0,0,0,7.6-3.975" transform="translate(-12.476 -17.155)" fill="url(#linear-gradient)"/>
        <path id="パス_340" data-name="パス 340" d="M166.061,151.861a9.319,9.319,0,0,1-9.187-7.943,3.376,3.376,0,0,0-6.683.961,16.037,16.037,0,0,0,31.908-2.3,15.919,15.919,0,0,0-.964-5.487,3.376,3.376,0,1,0-6.341,2.319,9.294,9.294,0,0,1-8.732,12.452" transform="translate(-23.417 -21.034)" fill="url(#linear-gradient)"/>
        <path id="パス_341" data-name="パス 341" d="M221.817,146.752a3.376,3.376,0,1,0,0-6.752h-8.44a3.376,3.376,0,0,0,0,6.752Z" transform="translate(-32.75 -21.834)" fill="url(#linear-gradient)"/>
        <path id="パス_342" data-name="パス 342" d="M121.817,146.752a3.376,3.376,0,0,0,0-6.752h-8.44a3.376,3.376,0,0,0,0,6.752Z" transform="translate(-17.155 -21.834)" fill="url(#linear-gradient)"/>
      </g>
    </g>
  </g>
</svg>
