<svg xmlns="http://www.w3.org/2000/svg" xmlns:xlink="http://www.w3.org/1999/xlink" width="383.405" height="459.742" viewBox="0 0 383.405 459.742">
  <defs>
    <linearGradient id="linear-gradient" x1="0.059" y1="0.02" x2="0.958" y2="0.969" gradientUnits="objectBoundingBox">
      <stop offset="0" stop-color="#eda3ff"/>
      <stop offset="1" stop-color="#a09eff"/>
    </linearGradient>
    <clipPath id="clip-path">
      <rect id="長方形_1094" data-name="長方形 1094" width="120" height="86" fill="url(#linear-gradient)"/>
    </clipPath>
  </defs>
  <g id="グループ_190" data-name="グループ 190" transform="translate(-490.268 -2477.286)">
    <path id="合体_3" data-name="合体 3" d="M22,425.7a22,22,0,0,1-22-22V22A22,22,0,0,1,22,0H306.427a22,22,0,0,1,22,22V188.386a5.151,5.151,0,0,1,.954.554l18.536,13.573a5,5,0,0,1,0,8.068l-18.536,13.573a5.151,5.151,0,0,1-.954.554V403.7a22,22,0,0,1-22,22Z" transform="translate(523.709 2511.328)" fill="#2d3138"/>
    <g id="合体_4" data-name="合体 4" transform="translate(518.69 2505.411)" fill="#f7f6f7" opacity="0.999">
      <path d="M 306.4266052246094 424.7000122070312 L 21.99960327148438 424.7000122070312 C 19.16428756713867 424.7000122070312 16.41428756713867 424.1448974609375 13.82597160339355 423.0500183105469 C 11.3254976272583 421.9923095703125 9.07960319519043 420.4779663085938 7.150708198547363 418.5489501953125 C 5.221813201904297 416.6199645996094 3.707497596740723 414.3739624023438 2.649866104125977 411.8733215332031 C 1.555129170417786 409.2849426269531 1.0000239610672 406.534912109375 1.0000239610672 403.6995239257812 L 1.0000239610672 21.99958419799805 C 1.0000239610672 19.16421699523926 1.555129170417786 16.41421699523926 2.649866104125977 13.82590103149414 C 3.707497596740723 11.32542705535889 5.221760749816895 9.079532623291016 7.150655269622803 7.150637626647949 C 9.079549789428711 5.221743106842041 11.3254451751709 3.70747971534729 13.82591819763184 2.649848222732544 C 16.41423416137695 1.555111408233643 19.16423416137695 1.000006079673767 21.99960327148438 1.000006079673767 L 306.4266052246094 1.000006079673767 C 309.2621765136719 1.000006079673767 312.0123901367188 1.555111408233643 314.6007995605469 2.649848222732544 C 317.1013793945312 3.70747971534729 319.3473815917969 5.221743106842041 321.2763366699219 7.150637626647949 C 323.2052917480469 9.079532623291016 324.7196044921875 11.32542705535889 325.7772216796875 13.82590103149414 C 326.8719787597656 16.41421699523926 327.4270629882812 19.16421699523926 327.4270629882812 21.99958419799805 L 327.4270629882812 194.6888427734375 L 327.4270629882812 195.3390045166016 L 328.0213317871094 195.6028442382812 C 328.2879638671875 195.7212219238281 328.5466613769531 195.8716888427734 328.7902221679688 196.0500640869141 L 347.3267211914062 209.6230621337891 C 348.3669128417969 210.3845825195312 348.9634399414062 211.5607452392578 348.9634399414062 212.8500061035156 C 348.9634399414062 214.1392669677734 348.3669128417969 215.3154296875 347.3267517089844 216.076904296875 L 328.7903442382812 229.6498413085938 C 328.546875 229.8281707763672 328.2881774902344 229.9786376953125 328.0213317871094 230.0970611572266 L 327.4270629882812 230.3608551025391 L 327.4270629882812 231.0110626220703 L 327.4270629882812 403.6995239257812 C 327.4270629882812 406.534912109375 326.8719787597656 409.2849426269531 325.7772216796875 411.8733215332031 C 324.7195434570312 414.3739624023438 323.2052307128906 416.6199645996094 321.2762756347656 418.5488891601562 C 319.3473510742188 420.4779663085938 317.1013793945312 421.9923095703125 314.6007690429688 423.0500183105469 C 312.0123291015625 424.1448364257812 309.2621154785156 424.7000122070312 306.4266052246094 424.7000122070312 Z" stroke="none"/>
      <path d="M 306.4266052246094 423.7000122070312 C 309.1275939941406 423.7000122070312 311.7467041015625 423.1714477539062 314.2112121582031 422.1289978027344 C 316.5926513671875 421.1217346191406 318.7317504882812 419.6793518066406 320.5692138671875 417.8418273925781 C 322.4066467285156 416.0043334960938 323.8489990234375 413.8651733398438 324.856201171875 411.4837951660156 C 325.8985900878906 409.0193481445312 326.4270935058594 406.4003295898438 326.4270935058594 403.6994934082031 L 326.4270935058594 229.7106170654297 L 327.6157531738281 229.1829986572266 C 327.817138671875 229.0936126708984 328.0135498046875 228.9792785644531 328.1995544433594 228.8430633544922 L 346.736083984375 215.2700042724609 C 347.5160827636719 214.6990051269531 347.9635009765625 213.8169555664062 347.9635009765625 212.8500061035156 C 347.9635009765625 211.883056640625 347.5160827636719 211.0010070800781 346.7359924316406 210.4299011230469 L 328.1993713378906 196.8568420410156 C 328.0133666992188 196.7206115722656 327.8170471191406 196.6062774658203 327.6158142089844 196.5169525146484 L 326.4270935058594 195.9894561767578 L 326.4270935058594 21.9996166229248 C 326.4270935058594 19.29878425598145 325.8985900878906 16.67984008789062 324.8562622070312 14.2155065536499 C 323.8490295410156 11.834228515625 322.4066467285156 9.695172309875488 320.5692749023438 7.857783794403076 C 318.7318115234375 6.020394802093506 316.5927124023438 4.578061580657959 314.2112731933594 3.570894956588745 C 311.7467651367188 2.52850604057312 309.1276550292969 2.000006198883057 306.4266052246094 2.000006198883057 L 21.99959754943848 2.000006198883057 C 19.29881858825684 2.000006198883057 16.67981910705566 2.52850604057312 14.21548557281494 3.570839405059814 C 11.83420848846436 4.578061580657959 9.695152282714844 6.020394802093506 7.857763767242432 7.857783794403076 C 6.020374774932861 9.695172309875488 4.578041553497314 11.834228515625 3.570819139480591 14.2155065536499 C 2.528486013412476 16.67984008789062 1.999985933303833 19.2988395690918 1.999985933303833 21.9996166229248 L 1.999985933303833 403.6994934082031 C 1.999985933303833 406.4003295898438 2.528486013412476 409.0193481445312 3.570874691009521 411.4837951660156 C 4.578096866607666 413.8651733398438 6.020430564880371 416.0043334960938 7.857819080352783 417.8418273925781 C 9.695208549499512 419.6793518066406 11.83426380157471 421.1217346191406 14.21554183959961 422.1290588378906 C 16.67987442016602 423.1714477539062 19.29881858825684 423.7000122070312 21.99959754943848 423.7000122070312 L 306.4266052246094 423.7000122070312 M 306.4266052246094 425.7000122070312 L 21.99959754943848 425.7000122070312 C 9.849596977233887 425.7000122070312 -1.409233937010868e-05 415.8495178222656 -1.409233937010868e-05 403.6994934082031 L -1.409233937010868e-05 21.9996166229248 C -1.409233937010868e-05 9.849617004394531 9.849596977233887 6.10351571594947e-06 21.99959754943848 6.10351571594947e-06 L 306.4266052246094 6.10351571594947e-06 C 318.5775451660156 6.10351571594947e-06 328.4270935058594 9.849617004394531 328.4270935058594 21.9996166229248 L 328.4270935058594 194.6888885498047 C 328.7537231445312 194.8338470458984 329.0730285644531 195.0176696777344 329.381103515625 195.2432861328125 L 347.9175415039062 208.8162231445312 C 350.6454162597656 210.8132781982422 350.6454162597656 214.8867340087891 347.9175415039062 216.8837890625 L 329.381103515625 230.4567260742188 C 329.0732727050781 230.6821746826172 328.7535400390625 230.8661651611328 328.4270935058594 231.0110626220703 L 328.4270935058594 403.6994934082031 C 328.4270935058594 415.8495178222656 318.5775451660156 425.7000122070312 306.4266052246094 425.7000122070312 Z" stroke="none" fill="#2d3138"/>
    </g>
    <text id="特典2を受け取る場合は_SBI_VCトレード口座へ入金_10_000円_し_その後_SBI_Web3ウォレット内にあるエントリーボタンよりエントリーします_" data-name="特典2を受け取る場合は、SBI VCトレード口座へ入金（10,000円）し、その後、SBI Web3ウォレット内にあるエントリーボタンよりエントリーします。" transform="translate(544.512 2738.846)" fill="#2d3138" font-size="16" font-family="NotoSansJP-Medium, Noto Sans JP" font-weight="500"><tspan x="0" y="19">特典2</tspan><tspan y="19">を</tspan><tspan y="19">受</tspan><tspan y="19">け</tspan><tspan y="19">取</tspan><tspan y="19">る</tspan><tspan y="19">場合</tspan><tspan y="19">は、</tspan><tspan y="19">SBI VC</tspan><tspan y="19">トレ</tspan><tspan x="0" y="43">ード</tspan><tspan y="43">口座</tspan><tspan y="43">へ</tspan><tspan y="43">入金（10,000円）</tspan><tspan y="43">し、その</tspan><tspan x="0" y="67">後、</tspan><tspan y="67">SBI Web3</tspan><tspan y="67">ウォレット</tspan><tspan y="67">内</tspan><tspan y="67">にあるエ</tspan><tspan x="0" y="91">ントリーボタンよりエントリーしま</tspan><tspan x="0" y="115">す。</tspan></text>
    <text id="入金_10_000円_キャンペーンにエントリー" data-name="入金（10,000円）＆
キャンペーンにエントリー" transform="translate(680.265 2680)" fill="#2d3138" font-size="21" font-family="NotoSansJP-Black, Noto Sans JP" font-weight="800"><tspan x="-98.658" y="0">入金（10,000円）＆</tspan><tspan x="-125.475" y="31">キャンペーンにエントリー</tspan></text>
    <path id="パス_326" data-name="パス 326" d="M47.6,0,39.847,8.668,29.376,3.613,25.55,14.594l-11.61-.654.654,11.61L3.613,29.376,8.668,39.848,0,47.6l8.668,7.748L3.613,65.815l10.981,3.826-.654,11.61L25.55,80.6l3.826,10.981,10.471-5.055L47.6,95.191l7.748-8.668,10.471,5.055L69.641,80.6l11.61.654L80.6,69.641l10.981-3.826L86.523,55.344,95.191,47.6l-8.668-7.748,5.055-10.471L80.6,25.55l.654-11.61-11.61.654L65.815,3.613,55.344,8.668Z" transform="translate(490.268 2477.286)" fill="#2d3138"/>
    <path id="パス_771" data-name="パス 771" d="M-16.59-4.76a1.121,1.121,0,0,1-1.22,1.12,1.8,1.8,0,0,1-1-.32V-.12a4.06,4.06,0,0,0,1.78.46,4.717,4.717,0,0,0,4.88-4.66c0-2.28-1.48-3.26-1.48-4.3a1.126,1.126,0,0,1,1.1-1.12,2,2,0,0,1,.66.16v-3.8a4.667,4.667,0,0,0-1.62-.28,4.588,4.588,0,0,0-4.54,4.6C-18.03-6.68-16.59-5.4-16.59-4.76Zm6.32-8.7V-5.2A5.081,5.081,0,0,0-5.19.02c.1,0,.18-.02.28-.02V-3.84A1.568,1.568,0,0,1-6.29-4.4a2.105,2.105,0,0,1-.34-1.48h1.64V-9.74H-6.61v-3.72Zm13.28,10a1.531,1.531,0,0,1-1.1.6C1.19-2.86.35-3.62.35-5.02c0-1.26.72-2.06,1.6-2.06A1.247,1.247,0,0,1,3.23-6H1.21a2.7,2.7,0,0,0-.18,1,2.3,2.3,0,0,0,.14.72h5.7c.02-.26.02-.42.02-.68A5.028,5.028,0,0,0,1.81-9.94,5.113,5.113,0,0,0-3.25-4.98,5.118,5.118,0,0,0,1.87.2,5.291,5.291,0,0,0,5.11-.94Zm5.72,8.2h3.66V-4.44a2.129,2.129,0,0,1,.24-1.24,1.458,1.458,0,0,1,1.16-.6,1.424,1.424,0,0,1,1.48,1.46,1.391,1.391,0,0,1-1.42,1.38,1.82,1.82,0,0,1-.84-.28V.14a5.656,5.656,0,0,0,.82.06,4.994,4.994,0,0,0,5.04-5.28,5.073,5.073,0,0,0-5.08-4.86A5.063,5.063,0,0,0,8.73-4.78ZM-14.34,15.3a7.992,7.992,0,0,0,8.257,7.981,7.932,7.932,0,0,0,7.705-7.843,7.988,7.988,0,0,0-8.142-8.1A7.993,7.993,0,0,0-14.34,15.3Zm11.477-.207a3.493,3.493,0,0,1-3.289,3.726,3.443,3.443,0,0,1-3.2-1.7,2.683,2.683,0,0,1-.506-1.541A3.525,3.525,0,0,1-6.29,11.8,3.524,3.524,0,0,1-2.863,15.088ZM14.248,23V18.7H11.7c1.4-2.806,2.438-4.14,2.438-5.98a5.313,5.313,0,1,0-8.05,4.6l1.978-3.5a.862.862,0,0,1-.414-.713c0-.782.368-1.173,1.035-1.173.6,0,1.035.391,1.035,1.2a.963.963,0,0,1-.184.483L4.427,23Z" transform="translate(537.152 2520.197)" fill="#fff"/>
    <g id="グループ_81" data-name="グループ 81" transform="translate(620 2544)">
      <g id="グループ_80" data-name="グループ 80" clip-path="url(#clip-path)">
        <path id="パス_338" data-name="パス 338" d="M118.341,38.871H88.121L83.445,23.914a8.229,8.229,0,0,0-2.1-3.42L62.772,2.337A8.162,8.162,0,0,0,57.036,0H1.728a1.728,1.728,0,0,0,0,3.455H57.036a4.726,4.726,0,0,1,3.321,1.353L78.934,22.966a4.761,4.761,0,0,1,1.214,1.979L84.5,38.871H74.228L68.05,26.852a1.727,1.727,0,0,0-1.118-.886L49.656,21.647a1.728,1.728,0,0,0-1.9,2.573L58.128,41.281a1.809,1.809,0,0,0,.93.742c.109.038.539.22.955.4.471.2,1.065.45,1.716.717,1.185.508,2.64,1.11,4.123,1.725,1.17.485,2.359.977,3.447,1.436a6.783,6.783,0,0,1,3.709,3.786,6.288,6.288,0,0,1-.32,5.188q-.024.043-.045.088a1.523,1.523,0,0,1-1.885.705q-.051-.017-.1-.03c-.776-.224-10.205-3.264-11.05-3.579l-.06-.025a16.456,16.456,0,0,1-3.557-1.984c-.7-.475-1.391-1.009-2.117-1.575-.412-.321-.831-.647-1.236-.949a31.757,31.757,0,0,0-19.554-6.675A13.971,13.971,0,0,1,24.2,38.088L11.539,26.374a1.728,1.728,0,0,0-1.173-.46H1.728a1.728,1.728,0,1,0,0,3.455H9.689l12.2,11.287.07.061A17.432,17.432,0,0,0,33.083,44.7a28.318,28.318,0,0,1,17.451,5.961c.418.313.82.626,1.215.934.741.577,1.506,1.173,2.274,1.689a19.655,19.655,0,0,0,4.257,2.359l.005-.013c1.614.618,10.018,3.277,11.41,3.71l0,.008a5.158,5.158,0,0,0,1.589.252,4.943,4.943,0,0,0,4.449-2.7,9.761,9.761,0,0,0,.516-8.026,10.266,10.266,0,0,0-5.608-5.768c-.6-.253-1.234-.517-1.876-.784h47.851V82.062H29.369V49.237a1.728,1.728,0,0,0-3.455,0V83.789a1.728,1.728,0,0,0,1.728,1.728h90.7a1.728,1.728,0,0,0,1.728-1.728V40.6a1.728,1.728,0,0,0-1.728-1.728M59.62,52.461a1.255,1.255,0,0,1,.168.087,1.678,1.678,0,0,0-.168-.087M52.9,26.018l12.438,3.11,5.008,9.743H60.707Z" transform="translate(0 0)" fill="url(#linear-gradient)"/>
        <path id="パス_339" data-name="パス 339" d="M87.345,117.718a1.728,1.728,0,0,0-2.36-2.524,4.75,4.75,0,0,1-3.257,1.285A1.728,1.728,0,0,0,80,118.206v12.957a1.728,1.728,0,0,0,1.728,1.728,4.756,4.756,0,0,1,4.751,4.751,1.728,1.728,0,0,0,1.728,1.728h60.466a1.728,1.728,0,0,0,1.728-1.728,4.757,4.757,0,0,1,4.751-4.751,1.728,1.728,0,0,0,1.728-1.728V118.206a1.728,1.728,0,0,0-1.728-1.728,4.756,4.756,0,0,1-4.751-4.751A1.728,1.728,0,0,0,148.673,110H129.237a1.728,1.728,0,1,0,0,3.455h17.891a8.232,8.232,0,0,0,6.3,6.3v9.868a8.231,8.231,0,0,0-6.3,6.3H89.751a8.228,8.228,0,0,0-6.3-6.29v-9.872a8.2,8.2,0,0,0,3.889-2.034" transform="translate(-45.448 -62.491)" fill="url(#linear-gradient)"/>
        <path id="パス_340" data-name="パス 340" d="M158.295,143.566a4.768,4.768,0,0,1-4.7-4.065,1.727,1.727,0,0,0-3.42.492,8.206,8.206,0,0,0,16.327-1.178,8.146,8.146,0,0,0-.493-2.808,1.728,1.728,0,1,0-3.245,1.187,4.756,4.756,0,0,1-4.468,6.372" transform="translate(-85.303 -76.621)" fill="url(#linear-gradient)"/>
        <path id="パス_341" data-name="パス 341" d="M216.047,143.455a1.728,1.728,0,1,0,0-3.455h-4.319a1.728,1.728,0,0,0,0,3.455Z" transform="translate(-119.3 -79.534)" fill="url(#linear-gradient)"/>
        <path id="パス_342" data-name="パス 342" d="M116.047,143.455a1.728,1.728,0,0,0,0-3.455h-4.319a1.728,1.728,0,0,0,0,3.455Z" transform="translate(-62.491 -79.534)" fill="url(#linear-gradient)"/>
      </g>
    </g>
  </g>
</svg>
