<svg xmlns="http://www.w3.org/2000/svg" xmlns:xlink="http://www.w3.org/1999/xlink" width="706.505" height="809.896" viewBox="0 0 706.505 809.896">
  <defs>
    <linearGradient id="linear-gradient" y1="0.029" x2="1.155" y2="0.966" gradientUnits="objectBoundingBox">
      <stop offset="0" stop-color="#eda3ff"/>
      <stop offset="1" stop-color="#a09eff"/>
    </linearGradient>
    <clipPath id="clip-path">
      <rect id="長方形_1093" data-name="長方形 1093" width="168" height="168" fill="url(#linear-gradient)"/>
    </clipPath>
  </defs>
  <g id="グループ_201" data-name="グループ 201" transform="translate(-14.742 -5018)">
    <path id="合体_6" data-name="合体 6" d="M320.945,755.446l-29.422-34.32H19a19,19,0,0,1-19-19V19A19,19,0,0,1,19,0H652.246a19,19,0,0,1,19,19V702.125a19,19,0,0,1-19,19H359.477l-29.422,34.32a6,6,0,0,1-9.111,0Z" transform="translate(50 5070.355)" fill="#2d3138"/>
    <g id="長方形_1639" data-name="長方形 1639" transform="translate(40 5060.355)" fill="#fff" stroke="#2d3138" stroke-width="4">
      <rect width="671.246" height="723.1" rx="19" stroke="none"/>
      <rect x="2" y="2" width="667.246" height="719.1" rx="17" fill="none"/>
    </g>
    <path id="多角形_14" data-name="多角形 14" d="M40.536,3.271a4,4,0,0,1,5.928,0L80.941,41.314A4,4,0,0,1,77.977,48H9.023a4,4,0,0,1-2.964-6.686Z" transform="translate(419 5821) rotate(180)" fill="#fff"/>
    <text id="SBI_VCトレード口座_SBI_Web3ウォレットの開設" data-name="SBI VCトレード口座＆
SBI Web3ウォレットの開設" transform="translate(375 5383.203)" fill="#252525" font-size="36" font-family="NotoSansJP-Black, Noto Sans JP" font-weight="800"><tspan x="-183.798" y="0">SBI VC</tspan><tspan y="0">トレード</tspan><tspan y="0">口座＆</tspan><tspan x="-228.798" y="54">SBI Web3</tspan><tspan y="54">ウォレットの</tspan><tspan y="54">開設</tspan></text>
    <text id="SBI_VCトレード口座の開設と_SBI_Web3ウォレットを開設します_同時開設可能_既にSBI_VCトレード口座をお持ちの方は_SBI_Web3ウォレットの開設_利用登録_のみで_特典1の受け取り対象となります_" data-name="SBI VCトレード口座の開設と、SBI Web3ウォレットを開設します（同時開設可能）。既にSBI VCトレード口座をお持ちの方は、SBI Web3ウォレットの開設（利用登録）のみで、特典1の受け取り対象となります。" transform="translate(120 5469.592)" fill="#252525" font-size="28" font-family="NotoSansJP-Medium, Noto Sans JP" font-weight="500"><tspan x="0" y="32">SBI VC</tspan><tspan y="32">トレード</tspan><tspan y="32">口座</tspan><tspan y="32">の</tspan><tspan y="32">開設</tspan><tspan y="32">と、</tspan><tspan y="32">SBI </tspan><tspan x="0" y="73">Web3</tspan><tspan y="73">ウォレットを</tspan><tspan y="73">開設</tspan><tspan y="73">します</tspan><tspan y="73">（同時開</tspan><tspan x="0" y="114">設可能）。既</tspan><tspan y="114">に</tspan><tspan y="114">SBI VC</tspan><tspan y="114">トレード</tspan><tspan y="114">口座</tspan><tspan y="114">をお</tspan><tspan x="0" y="155">持</tspan><tspan y="155">ちの</tspan><tspan y="155">方</tspan><tspan y="155">は、</tspan><tspan y="155">SBI Web3</tspan><tspan y="155">ウォレットの</tspan><tspan y="155">開</tspan><tspan x="0" y="196">設（利用登録）</tspan><tspan y="196">のみで、</tspan><tspan y="196">特典1</tspan><tspan y="196">の</tspan><tspan y="196">受</tspan><tspan y="196">け</tspan><tspan y="196">取</tspan><tspan x="0" y="237">り</tspan><tspan y="237">対象</tspan><tspan y="237">となります。</tspan></text>
    <path id="パス_376" data-name="パス 376" d="M51.307,0,42.955,9.344,31.667,3.895,27.542,15.732l-12.515-.7.7,12.515L3.895,31.667,9.344,42.955,0,51.307l9.344,8.352L3.895,70.947l11.837,4.124-.7,12.515,12.515-.7,4.124,11.838L42.955,93.27l8.352,9.344,8.352-9.344,11.288,5.449,4.124-11.838,12.515.7-.7-12.515,11.837-4.124L93.27,59.659l9.344-8.352L93.27,42.955l5.449-11.288L86.882,27.543l.7-12.515-12.515.7L70.947,3.895,59.659,9.344Z" transform="translate(14.742 5018)" fill="#2d3138"/>
    <text id="Step_01" data-name="Step
01" transform="translate(66 5064.355)" fill="#fff" font-size="24" font-family="Blippo-Black, Blippo MN" font-weight="800"><tspan x="-23.532" y="0">Step</tspan><tspan font-size="30"><tspan x="-15.66" y="27">01</tspan></tspan></text>
    <g id="グループ_122" data-name="グループ 122" transform="translate(291 5127.17)">
      <g id="グループ_78" data-name="グループ 78" transform="translate(0 -0.17)" clip-path="url(#clip-path)">
        <path id="パス_328" data-name="パス 328" d="M94.066,133.546a2.377,2.377,0,0,0-2.377,2.377v10.671H6.348a2.369,2.369,0,0,0-.594.084V13.841a8.1,8.1,0,0,1,8.087-8.087H83.6a8.1,8.1,0,0,1,8.087,8.087V24.306a2.377,2.377,0,1,0,4.754,0V13.841A12.856,12.856,0,0,0,83.6,1H13.841A12.856,12.856,0,0,0,1,13.841V153.363A12.856,12.856,0,0,0,13.841,166.2H83.6a12.856,12.856,0,0,0,12.841-12.841v-17.44a2.377,2.377,0,0,0-2.377-2.377m-2.377,19.817A8.1,8.1,0,0,1,83.6,161.45H13.841a8.1,8.1,0,0,1-8.087-8.087v-2.1a2.367,2.367,0,0,0,.594.084H91.689Z" transform="translate(-0.406 -0.093)" fill="url(#linear-gradient)"/>
        <path id="パス_329" data-name="パス 329" d="M83.2,166.392H13.436A13.45,13.45,0,0,1,0,152.957V13.435A13.45,13.45,0,0,1,13.436,0H83.2A13.45,13.45,0,0,1,96.632,13.435V23.9a2.971,2.971,0,0,1-5.943,0V13.435A7.5,7.5,0,0,0,83.2,5.943H13.436a7.5,7.5,0,0,0-7.493,7.492V145.593H90.689V135.517a2.971,2.971,0,1,1,5.943,0v17.44A13.45,13.45,0,0,1,83.2,166.392M13.436,1.189A12.261,12.261,0,0,0,1.189,13.435V152.957A12.261,12.261,0,0,0,13.436,165.2H83.2a12.261,12.261,0,0,0,12.247-12.246v-17.44a1.783,1.783,0,1,0-3.566,0v11.265H5.943a1.79,1.79,0,0,0-.446.065l-.743.193V13.435a8.692,8.692,0,0,1,8.682-8.681H83.2a8.692,8.692,0,0,1,8.682,8.681V23.9a1.783,1.783,0,0,0,3.566,0V13.435A12.261,12.261,0,0,0,83.2,1.189ZM83.2,161.638H13.436a8.692,8.692,0,0,1-8.682-8.681V150.09l.743.193a1.79,1.79,0,0,0,.446.065H91.878v2.61a8.692,8.692,0,0,1-8.682,8.681m-77.254-10.1v1.421a7.5,7.5,0,0,0,7.493,7.492H83.2a7.5,7.5,0,0,0,7.493-7.492v-1.421Z" transform="translate(0 0.313)" fill="url(#linear-gradient)"/>
        <path id="パス_330" data-name="パス 330" d="M172.415,59.7H60.8A12.856,12.856,0,0,0,47.957,72.537v62.784A12.856,12.856,0,0,0,60.8,148.162H172.415a12.856,12.856,0,0,0,12.841-12.841V72.537A12.857,12.857,0,0,0,172.415,59.7m8.087,75.626a8.1,8.1,0,0,1-8.087,8.087H60.8a8.1,8.1,0,0,1-8.087-8.087V100.364H180.5Zm0-39.711H52.711v-13.2H180.5Zm0-17.957H52.711V72.537A8.1,8.1,0,0,1,60.8,64.449H172.415a8.1,8.1,0,0,1,8.087,8.088Z" transform="translate(-19.458 -23.908)" fill="url(#linear-gradient)"/>
        <path id="パス_331" data-name="パス 331" d="M172.009,148.351H60.392a13.45,13.45,0,0,1-13.435-13.436V72.131A13.451,13.451,0,0,1,60.392,58.695H172.009a13.451,13.451,0,0,1,13.435,13.436v62.784a13.45,13.45,0,0,1-13.435,13.436M60.392,59.884A12.26,12.26,0,0,0,48.146,72.131v62.784a12.26,12.26,0,0,0,12.246,12.247H172.009a12.261,12.261,0,0,0,12.246-12.247V72.131a12.261,12.261,0,0,0-12.246-12.248ZM172.009,143.6H60.392a8.691,8.691,0,0,1-8.681-8.682V99.364H180.69v35.551a8.69,8.69,0,0,1-8.681,8.682M52.9,100.552v34.363a7.5,7.5,0,0,0,7.492,7.493H172.009a7.5,7.5,0,0,0,7.492-7.493V100.552ZM180.69,95.8H51.711V81.406H180.69ZM52.9,94.61H179.5V82.595H52.9ZM180.69,77.841H51.711v-5.71a8.691,8.691,0,0,1,8.681-8.682H172.009a8.691,8.691,0,0,1,8.681,8.682ZM52.9,76.652H179.5V72.131a7.5,7.5,0,0,0-7.492-7.494H60.392A7.5,7.5,0,0,0,52.9,72.131Z" transform="translate(-19.052 -23.502)" fill="url(#linear-gradient)"/>
        <path id="パス_332" data-name="パス 332" d="M85.551,170.1h27.9a2.377,2.377,0,1,0,0-4.754h-27.9a2.377,2.377,0,0,0,0,4.754" transform="translate(-33.747 -66.776)" fill="url(#linear-gradient)"/>
        <path id="パス_333" data-name="パス 333" d="M113.05,170.291h-27.9a2.971,2.971,0,1,1,0-5.943h27.9a2.971,2.971,0,0,1,0,5.943m-27.9-4.754a1.783,1.783,0,1,0,0,3.566h27.9a1.783,1.783,0,0,0,0-3.566Z" transform="translate(-33.341 -66.37)" fill="url(#linear-gradient)"/>
        <path id="パス_334" data-name="パス 334" d="M167.725,170.1h13.953a2.377,2.377,0,0,0,0-4.754H167.725a2.377,2.377,0,1,0,0,4.754" transform="translate(-67.089 -66.776)" fill="url(#linear-gradient)"/>
        <path id="パス_335" data-name="パス 335" d="M181.272,170.291H167.319a2.971,2.971,0,0,1,0-5.943h13.953a2.971,2.971,0,0,1,0,5.943m-13.953-4.754a1.783,1.783,0,0,0,0,3.566h13.953a1.783,1.783,0,1,0,0-3.566Z" transform="translate(-66.683 -66.37)" fill="url(#linear-gradient)"/>
        <path id="パス_336" data-name="パス 336" d="M72.863,16a2.377,2.377,0,1,0,0,4.754h8.1a2.377,2.377,0,0,0,0-4.754Z" transform="translate(-28.599 -6.179)" fill="url(#linear-gradient)"/>
        <path id="パス_337" data-name="パス 337" d="M80.561,20.943h-8.1a2.971,2.971,0,0,1,0-5.943h8.1a2.971,2.971,0,0,1,0,5.943m-8.1-4.754a1.783,1.783,0,0,0,0,3.566h8.1a1.783,1.783,0,0,0,0-3.566Z" transform="translate(-28.193 -5.773)" fill="url(#linear-gradient)"/>
      </g>
    </g>
  </g>
</svg>
