<svg xmlns="http://www.w3.org/2000/svg" xmlns:xlink="http://www.w3.org/1999/xlink" width="384.483" height="459.742" viewBox="0 0 384.483 459.742">
  <defs>
    <linearGradient id="linear-gradient" y1="0.029" x2="1.155" y2="0.966" gradientUnits="objectBoundingBox">
      <stop offset="0" stop-color="#eda3ff"/>
      <stop offset="1" stop-color="#a09eff"/>
    </linearGradient>
    <clipPath id="clip-path">
      <rect id="長方形_1093" data-name="長方形 1093" width="91" height="91" transform="translate(0 -0.17)" fill="url(#linear-gradient)"/>
    </clipPath>
  </defs>
  <g id="グループ_189" data-name="グループ 189" transform="translate(-114.5 -2477.286)">
    <path id="合体_2" data-name="合体 2" d="M22,425.7a22,22,0,0,1-22-22V22A22,22,0,0,1,22,0H306.427a22,22,0,0,1,22,22V188.386a5.151,5.151,0,0,1,.954.554l18.536,13.573a5,5,0,0,1,0,8.068l-18.536,13.573a5.151,5.151,0,0,1-.954.554V403.7a22,22,0,0,1-22,22Z" transform="translate(149.019 2511.328)" fill="#2d3138"/>
    <g id="合体_1" data-name="合体 1" transform="translate(144 2505.411)" fill="#f7f6f7" opacity="0.999">
      <path d="M 306.4266052246094 424.7000122070312 L 21.99960327148438 424.7000122070312 C 19.16428756713867 424.7000122070312 16.41428756713867 424.1448974609375 13.82597160339355 423.0500183105469 C 11.3254976272583 421.9923095703125 9.07960319519043 420.4779663085938 7.150708198547363 418.5489501953125 C 5.221813201904297 416.6199645996094 3.707497596740723 414.3739624023438 2.649866104125977 411.8733215332031 C 1.555129170417786 409.2849426269531 1.0000239610672 406.534912109375 1.0000239610672 403.6995239257812 L 1.0000239610672 21.99958419799805 C 1.0000239610672 19.16421699523926 1.555129170417786 16.41421699523926 2.649866104125977 13.82590103149414 C 3.707497596740723 11.32542705535889 5.221760749816895 9.079532623291016 7.150655269622803 7.150637626647949 C 9.079549789428711 5.221743106842041 11.3254451751709 3.70747971534729 13.82591819763184 2.649848222732544 C 16.41423416137695 1.555111408233643 19.16423416137695 1.000006079673767 21.99960327148438 1.000006079673767 L 306.4266052246094 1.000006079673767 C 309.2621765136719 1.000006079673767 312.0123901367188 1.555111408233643 314.6007995605469 2.649848222732544 C 317.1013793945312 3.70747971534729 319.3473815917969 5.221743106842041 321.2763366699219 7.150637626647949 C 323.2052917480469 9.079532623291016 324.7196044921875 11.32542705535889 325.7772216796875 13.82590103149414 C 326.8719787597656 16.41421699523926 327.4270629882812 19.16421699523926 327.4270629882812 21.99958419799805 L 327.4270629882812 194.6888427734375 L 327.4270629882812 195.3390045166016 L 328.0213317871094 195.6028442382812 C 328.2879638671875 195.7212219238281 328.5466613769531 195.8716888427734 328.7902221679688 196.0500640869141 L 347.3267517089844 209.6221618652344 C 348.3669738769531 210.3840637207031 348.9635925292969 211.5607452392578 348.9634399414062 212.8503265380859 C 348.9633483886719 214.1394805908203 348.3667602539062 215.3155364990234 347.3267517089844 216.076904296875 L 328.7903442382812 229.6498413085938 C 328.5472412109375 229.8278961181641 328.2885437011719 229.9782104492188 328.021484375 230.0967407226562 L 327.4270629882812 230.3604736328125 L 327.4270629882812 231.0107879638672 L 327.4270629882812 403.6995239257812 C 327.4270629882812 406.534912109375 326.8719787597656 409.2849426269531 325.7772216796875 411.8733215332031 C 324.7195434570312 414.3739624023438 323.2052307128906 416.6199645996094 321.2762756347656 418.5488891601562 C 319.3473510742188 420.4779663085938 317.1013793945312 421.9923095703125 314.6007690429688 423.0500183105469 C 312.0123291015625 424.1448364257812 309.2621154785156 424.7000122070312 306.4266052246094 424.7000122070312 Z" stroke="none"/>
      <path d="M 306.4266052246094 423.7000122070312 C 309.1275939941406 423.7000122070312 311.7467041015625 423.1714477539062 314.2112121582031 422.1289978027344 C 316.5926513671875 421.1217346191406 318.7317504882812 419.6793518066406 320.5692138671875 417.8418273925781 C 322.4066467285156 416.0043334960938 323.8489990234375 413.8651733398438 324.856201171875 411.4837951660156 C 325.8985900878906 409.0193481445312 326.4270935058594 406.4003295898438 326.4270935058594 403.6994934082031 L 326.4270935058594 229.7103881835938 L 327.6157531738281 229.1827850341797 C 327.8175354003906 229.0932312011719 328.0139770507812 228.9788970947266 328.1995544433594 228.8430633544922 L 346.736083984375 215.2700042724609 C 347.5159912109375 214.6990661621094 347.96337890625 213.8171234130859 347.9634399414062 212.8502349853516 C 347.9635314941406 211.8828887939453 347.5160827636719 211.0003356933594 346.7360534667969 210.4290008544922 L 328.1993713378906 196.8568420410156 C 328.0133666992188 196.7206115722656 327.8170471191406 196.6062774658203 327.6158142089844 196.5169525146484 L 326.4270935058594 195.9894561767578 L 326.4270935058594 21.9996166229248 C 326.4270935058594 19.29878425598145 325.8985900878906 16.67984008789062 324.8562622070312 14.2155065536499 C 323.8490295410156 11.834228515625 322.4066467285156 9.695172309875488 320.5692749023438 7.857783794403076 C 318.7318115234375 6.020394802093506 316.5927124023438 4.578061580657959 314.2112731933594 3.570894956588745 C 311.7467651367188 2.52850604057312 309.1276550292969 2.000006198883057 306.4266052246094 2.000006198883057 L 21.99959754943848 2.000006198883057 C 19.29881858825684 2.000006198883057 16.67981910705566 2.52850604057312 14.21548557281494 3.570839405059814 C 11.83420848846436 4.578061580657959 9.695152282714844 6.020394802093506 7.857763767242432 7.857783794403076 C 6.020374774932861 9.695172309875488 4.578041553497314 11.834228515625 3.570819139480591 14.2155065536499 C 2.528486013412476 16.67984008789062 1.999985933303833 19.2988395690918 1.999985933303833 21.9996166229248 L 1.999985933303833 403.6994934082031 C 1.999985933303833 406.4003295898438 2.528486013412476 409.0193481445312 3.570874691009521 411.4837951660156 C 4.578096866607666 413.8651733398438 6.020430564880371 416.0043334960938 7.857819080352783 417.8418273925781 C 9.695208549499512 419.6793518066406 11.83426380157471 421.1217346191406 14.21554183959961 422.1290588378906 C 16.67987442016602 423.1714477539062 19.29881858825684 423.7000122070312 21.99959754943848 423.7000122070312 L 306.4266052246094 423.7000122070312 M 306.4266052246094 425.7000122070312 L 21.99959754943848 425.7000122070312 C 9.849596977233887 425.7000122070312 -1.409233937010868e-05 415.8495178222656 -1.409233937010868e-05 403.6994934082031 L -1.409233937010868e-05 21.9996166229248 C -1.409233937010868e-05 9.849617004394531 9.849596977233887 6.10351571594947e-06 21.99959754943848 6.10351571594947e-06 L 306.4266052246094 6.10351571594947e-06 C 318.5775451660156 6.10351571594947e-06 328.4270935058594 9.849617004394531 328.4270935058594 21.9996166229248 L 328.4270935058594 194.6888885498047 C 328.7537231445312 194.8338470458984 329.0730285644531 195.0176696777344 329.381103515625 195.2432861328125 L 347.9175415039062 208.8152770996094 C 350.6454162597656 210.8132781982422 350.6454162597656 214.8867340087891 347.9175415039062 216.8837890625 L 329.381103515625 230.4567260742188 C 329.0732727050781 230.6821136474609 328.7535400390625 230.8659515380859 328.4270935058594 231.0108337402344 L 328.4270935058594 403.6994934082031 C 328.4270935058594 415.8495178222656 318.5775451660156 425.7000122070312 306.4266052246094 425.7000122070312 Z" stroke="none" fill="#2d3138"/>
    </g>
    <text id="SBI_VCトレード口座の開設と_SBI_Web3ウォレットを開設します_同時開設可能_既にSBI_VCトレード口座をお持ちの方は_SBI_Web3ウォレットの開設_利用登録_のみで_特典1の受け取り対象となります_" data-name="SBI VCトレード口座の開設と、SBI Web3ウォレットを開設します（同時開設可能）。既にSBI VCトレード口座をお持ちの方は、SBI Web3ウォレットの開設（利用登録）のみで、特典1の受け取り対象となります。" transform="translate(168.745 2738.846)" fill="#2d3138" font-size="16" font-family="NotoSansJP-Medium, Noto Sans JP" font-weight="500"><tspan x="0" y="19">SBI VC</tspan><tspan y="19">トレード</tspan><tspan y="19">口座</tspan><tspan y="19">の</tspan><tspan y="19">開設</tspan><tspan y="19">と、</tspan><tspan y="19">SBI </tspan><tspan x="0" y="43">Web3</tspan><tspan y="43">ウォレットを</tspan><tspan y="43">開設</tspan><tspan y="43">します</tspan><tspan y="43">（同時</tspan><tspan x="0" y="67">開設可能）。既</tspan><tspan y="67">に</tspan><tspan y="67">SBI VC</tspan><tspan y="67">トレード</tspan><tspan y="67">口座</tspan><tspan x="0" y="91">をお</tspan><tspan y="91">持</tspan><tspan y="91">ちの</tspan><tspan y="91">方</tspan><tspan y="91">は、</tspan><tspan y="91">SBI Web3</tspan><tspan y="91">ウォレッ</tspan><tspan x="0" y="115">トの</tspan><tspan y="115">開設（利用登録）</tspan><tspan y="115">のみで、</tspan><tspan y="115">特典1</tspan><tspan x="0" y="139">の</tspan><tspan y="139">受</tspan><tspan y="139">け</tspan><tspan y="139">取</tspan><tspan y="139">り</tspan><tspan y="139">対象</tspan><tspan y="139">となります。</tspan></text>
    <text id="SBI_VCトレード口座_SBI_Web3ウォレットの開設" data-name="SBI VCトレード口座＆
SBI Web3ウォレットの開設" transform="translate(304.566 2680)" fill="#2d3138" font-size="21" font-family="NotoSansJP-Black, Noto Sans JP" font-weight="800"><tspan x="-107.215" y="0">SBI VC</tspan><tspan y="0">トレード</tspan><tspan y="0">口座＆</tspan><tspan x="-133.465" y="31">SBI Web3</tspan><tspan y="31">ウォレットの</tspan><tspan y="31">開設</tspan></text>
    <path id="パス_325" data-name="パス 325" d="M47.6,0,39.847,8.668,29.376,3.613,25.55,14.594l-11.61-.654.654,11.61L3.613,29.376,8.668,39.848,0,47.6l8.668,7.748L3.613,65.815l10.981,3.826-.654,11.61L25.55,80.6l3.826,10.981,10.471-5.055L47.6,95.191l7.748-8.668,10.471,5.055L69.641,80.6l11.61.654L80.6,69.641l10.981-3.826L86.523,55.344,95.191,47.6l-8.668-7.748,5.055-10.471L80.6,25.55l.654-11.61-11.61.654L65.815,3.613,55.344,8.668Z" transform="translate(114.5 2477.286)" fill="#2d3138"/>
    <path id="パス_770" data-name="パス 770" d="M-16.59-4.76a1.121,1.121,0,0,1-1.22,1.12,1.8,1.8,0,0,1-1-.32V-.12a4.06,4.06,0,0,0,1.78.46,4.717,4.717,0,0,0,4.88-4.66c0-2.28-1.48-3.26-1.48-4.3a1.126,1.126,0,0,1,1.1-1.12,2,2,0,0,1,.66.16v-3.8a4.667,4.667,0,0,0-1.62-.28,4.588,4.588,0,0,0-4.54,4.6C-18.03-6.68-16.59-5.4-16.59-4.76Zm6.32-8.7V-5.2A5.081,5.081,0,0,0-5.19.02c.1,0,.18-.02.28-.02V-3.84A1.568,1.568,0,0,1-6.29-4.4a2.105,2.105,0,0,1-.34-1.48h1.64V-9.74H-6.61v-3.72Zm13.28,10a1.531,1.531,0,0,1-1.1.6C1.19-2.86.35-3.62.35-5.02c0-1.26.72-2.06,1.6-2.06A1.247,1.247,0,0,1,3.23-6H1.21a2.7,2.7,0,0,0-.18,1,2.3,2.3,0,0,0,.14.72h5.7c.02-.26.02-.42.02-.68A5.028,5.028,0,0,0,1.81-9.94,5.113,5.113,0,0,0-3.25-4.98,5.118,5.118,0,0,0,1.87.2,5.291,5.291,0,0,0,5.11-.94Zm5.72,8.2h3.66V-4.44a2.129,2.129,0,0,1,.24-1.24,1.458,1.458,0,0,1,1.16-.6,1.424,1.424,0,0,1,1.48,1.46,1.391,1.391,0,0,1-1.42,1.38,1.82,1.82,0,0,1-.84-.28V.14a5.656,5.656,0,0,0,.82.06,4.994,4.994,0,0,0,5.04-5.28,5.073,5.073,0,0,0-5.08-4.86A5.063,5.063,0,0,0,8.73-4.78ZM-11.178,15.3a7.992,7.992,0,0,0,8.257,7.981,7.932,7.932,0,0,0,7.705-7.843,7.988,7.988,0,0,0-8.142-8.1A7.993,7.993,0,0,0-11.178,15.3ZM.3,15.088A3.493,3.493,0,0,1-2.99,18.814a3.443,3.443,0,0,1-3.2-1.7,2.683,2.683,0,0,1-.506-1.541A3.525,3.525,0,0,1-3.128,11.8,3.524,3.524,0,0,1,.3,15.088ZM6.348,23H10.81V7.774H6.348Z" transform="translate(161.384 2520.197)" fill="#fff"/>
    <g id="グループ_79" data-name="グループ 79" transform="translate(263 2539.17)">
      <g id="グループ_78" data-name="グループ 78" clip-path="url(#clip-path)">
        <path id="パス_328" data-name="パス 328" d="M51.576,73.03a1.292,1.292,0,0,0-1.292,1.292v5.8H3.906a1.287,1.287,0,0,0-.323.046V7.978A4.4,4.4,0,0,1,7.978,3.584h37.91a4.4,4.4,0,0,1,4.395,4.395v5.687a1.292,1.292,0,1,0,2.584,0V7.978A6.986,6.986,0,0,0,45.889,1H7.978A6.986,6.986,0,0,0,1,7.978V83.8a6.986,6.986,0,0,0,6.978,6.978h37.91A6.986,6.986,0,0,0,52.867,83.8V74.322a1.292,1.292,0,0,0-1.292-1.292M50.284,83.8a4.4,4.4,0,0,1-4.395,4.395H7.978A4.4,4.4,0,0,1,3.584,83.8V82.659a1.286,1.286,0,0,0,.323.046H50.284Z" transform="translate(-0.677 -0.677)" fill="url(#linear-gradient)"/>
        <path id="パス_329" data-name="パス 329" d="M45.212,90.424H7.3a7.309,7.309,0,0,1-7.3-7.3V7.3A7.309,7.309,0,0,1,7.3,0h37.91a7.309,7.309,0,0,1,7.3,7.3v5.687a1.615,1.615,0,1,1-3.229,0V7.3a4.076,4.076,0,0,0-4.072-4.072H7.3A4.076,4.076,0,0,0,3.229,7.3v71.82H49.284V73.645a1.615,1.615,0,1,1,3.229,0v9.478a7.309,7.309,0,0,1-7.3,7.3M7.3.646A6.663,6.663,0,0,0,.646,7.3V83.123A6.663,6.663,0,0,0,7.3,89.778h37.91a6.663,6.663,0,0,0,6.656-6.655V73.645a.969.969,0,0,0-1.938,0v6.122H3.229a.973.973,0,0,0-.242.035l-.4.1V7.3A4.723,4.723,0,0,1,7.3,2.584h37.91A4.723,4.723,0,0,1,49.93,7.3v5.687a.969.969,0,0,0,1.938,0V7.3A6.663,6.663,0,0,0,45.212.646ZM45.212,87.84H7.3a4.723,4.723,0,0,1-4.718-4.718V81.564l.4.1a.973.973,0,0,0,.242.035h46.7v1.418a4.723,4.723,0,0,1-4.718,4.718M3.229,82.35v.772A4.076,4.076,0,0,0,7.3,87.194h37.91a4.076,4.076,0,0,0,4.072-4.072V82.35Z" fill="url(#linear-gradient)"/>
        <path id="パス_330" data-name="パス 330" d="M115.592,59.695H54.935a6.986,6.986,0,0,0-6.978,6.979v34.119a6.986,6.986,0,0,0,6.978,6.978h60.657a6.986,6.986,0,0,0,6.978-6.978V66.674a6.987,6.987,0,0,0-6.978-6.979m4.395,41.1a4.4,4.4,0,0,1-4.395,4.395H54.935a4.4,4.4,0,0,1-4.395-4.395v-19h69.446Zm0-21.581H50.541V72.037h69.446Zm0-9.759H50.541v-2.78a4.4,4.4,0,0,1,4.395-4.4h60.657a4.4,4.4,0,0,1,4.395,4.4Z" transform="translate(-32.47 -40.417)" fill="url(#linear-gradient)"/>
        <path id="パス_331" data-name="パス 331" d="M114.915,107.417H54.258a7.309,7.309,0,0,1-7.3-7.3V66a7.31,7.31,0,0,1,7.3-7.3h60.657a7.31,7.31,0,0,1,7.3,7.3v34.119a7.309,7.309,0,0,1-7.3,7.3M54.258,59.341A6.663,6.663,0,0,0,47.6,66v34.119a6.663,6.663,0,0,0,6.655,6.656h60.657a6.663,6.663,0,0,0,6.655-6.656V66a6.663,6.663,0,0,0-6.655-6.656Zm60.657,45.493H54.258a4.723,4.723,0,0,1-4.718-4.718V80.8h70.092v19.32a4.723,4.723,0,0,1-4.718,4.718M50.186,81.442v18.674a4.076,4.076,0,0,0,4.072,4.072h60.657a4.076,4.076,0,0,0,4.072-4.072V81.442Zm69.446-2.584H49.541V71.037h70.092Zm-69.446-.646h68.8V71.683h-68.8ZM119.632,69.1H49.541V66a4.723,4.723,0,0,1,4.718-4.718h60.657A4.723,4.723,0,0,1,119.632,66Zm-69.446-.646h68.8V66a4.076,4.076,0,0,0-4.072-4.072H54.258A4.076,4.076,0,0,0,50.186,66Z" transform="translate(-31.793 -39.74)" fill="url(#linear-gradient)"/>
        <path id="パス_332" data-name="パス 332" d="M84.466,167.932H99.63a1.292,1.292,0,1,0,0-2.584H84.466a1.292,1.292,0,1,0,0,2.584" transform="translate(-56.314 -111.95)" fill="url(#linear-gradient)"/>
        <path id="パス_333" data-name="パス 333" d="M98.953,167.577H83.789a1.615,1.615,0,0,1,0-3.229H98.953a1.615,1.615,0,0,1,0,3.229m-15.164-2.584a.969.969,0,1,0,0,1.938H98.953a.969.969,0,0,0,0-1.938Z" transform="translate(-55.637 -111.273)" fill="url(#linear-gradient)"/>
        <path id="パス_334" data-name="パス 334" d="M166.64,167.932h7.582a1.292,1.292,0,0,0,0-2.584H166.64a1.292,1.292,0,1,0,0,2.584" transform="translate(-111.95 -111.95)" fill="url(#linear-gradient)"/>
        <path id="パス_335" data-name="パス 335" d="M173.545,167.577h-7.582a1.615,1.615,0,1,1,0-3.229h7.582a1.615,1.615,0,1,1,0,3.229m-7.582-2.584a.969.969,0,1,0,0,1.938h7.582a.969.969,0,0,0,0-1.938Z" transform="translate(-111.273 -111.273)" fill="url(#linear-gradient)"/>
        <path id="パス_336" data-name="パス 336" d="M71.778,16a1.292,1.292,0,1,0,0,2.584h4.4a1.292,1.292,0,0,0,0-2.584Z" transform="translate(-47.723 -10.833)" fill="url(#linear-gradient)"/>
        <path id="パス_337" data-name="パス 337" d="M75.5,18.229H71.1A1.615,1.615,0,1,1,71.1,15h4.4a1.615,1.615,0,0,1,0,3.229m-4.4-2.584a.969.969,0,1,0,0,1.938h4.4a.969.969,0,0,0,0-1.938Z" transform="translate(-47.046 -10.156)" fill="url(#linear-gradient)"/>
      </g>
    </g>
  </g>
</svg>
