<svg xmlns="http://www.w3.org/2000/svg" xmlns:xlink="http://www.w3.org/1999/xlink" width="80" height="80" viewBox="0 0 80 80">
  <defs>
    <linearGradient id="linear-gradient" x1="0.148" y1="0.153" x2="0.832" y2="0.86" gradientUnits="objectBoundingBox">
      <stop offset="0" stop-color="#eda3ff"/>
      <stop offset="1" stop-color="#a09eff"/>
    </linearGradient>
    <linearGradient id="linear-gradient-2" x1="0" y1="0.059" x2="1" y2="1" xlink:href="#linear-gradient"/>
  </defs>
  <g id="グループ_194" data-name="グループ 194" transform="translate(-523 -7391)">
    <path id="パス_399" data-name="パス 399" d="M40,0A40,40,0,1,1,0,40,40,40,0,0,1,40,0Z" transform="translate(523 7391)" fill="#fff"/>
    <path id="パス_399_-_アウトライン" data-name="パス 399 - アウトライン" d="M40,2A38.011,38.011,0,0,0,25.209,75.015,38.01,38.01,0,0,0,54.791,4.985,37.76,37.76,0,0,0,40,2m0-2A40,40,0,1,1,0,40,40,40,0,0,1,40,0Z" transform="translate(523 7391)" fill="url(#linear-gradient)"/>
    <path id="x-twitter-brands-solid_1_" data-name="x-twitter-brands-solid (1)" d="M57.712,48h6.022L50.581,63.029,66.054,83.484H53.942l-9.494-12.4L33.6,83.484H27.568L41.633,67.405,26.8,48H39.219l8.572,11.336ZM55.6,79.884h3.335L37.4,51.412H33.82Z" transform="translate(516.573 7365.258)" fill="url(#linear-gradient-2)"/>
  </g>
</svg>
